<?xml version="1.0" encoding="utf-8"?>
<!-- Generator: Adobe Illustrator 23.0.0, SVG Export Plug-In . SVG Version: 6.00 Build 0)  -->
<svg version="1.1" id="Layer_1" xmlns="http://www.w3.org/2000/svg" xmlns:xlink="http://www.w3.org/1999/xlink" x="0px" y="0px"
	 viewBox="0 0 70 70" style="enable-background:new 0 0 70 70;" xml:space="preserve">
<style type="text/css">
	.st0{fill:#FFFFFF;}
	.st1{fill:#2A429B;}
	.st2{fill:#218DEE;}
</style>
<path class="st0" d="M10,0h50c5.5,0,10,4.5,10,10v50c0,5.5-4.5,10-10,10H10C4.5,70,0,65.5,0,60V10C0,4.5,4.5,0,10,0z"/>
<g>
	<path class="st1" d="M32.1,48.7c-3.3,2.7-6.6,5.4-9.8,8c-1.3,1.1-1.4,1.1-2.4-0.3c-8.2-10.9-3.9-25.9,8.8-30.7
		c2.8-1.1,5.7-1.3,8.8-1c3.7,0.4,7,1.6,9.8,3.7c4.3,3.3,7,7.6,7.7,13c0.7,5.5-0.6,10.6-4,15c-1,1.3-1.3,1.3-2.6,0.2
		c-3.5-3-7-6.1-10.7-9c-0.3,0.6,0.2,0.9,0.5,1.2c2.9,3.4,5.8,6.7,8.7,10c0.5,0.5,0.3,0.8-0.2,1.2c-2.7,2-5.7,3.2-9,3.7
		c-0.9,0.1-1.3-0.1-1.2-1c0-0.7,0.1-1.5-1-1.3c-0.9,0.2-2.4-0.7-2.4,1.2c0,1.1-0.5,1.2-1.5,1.1c-2.8-0.6-5.4-1.6-7.8-3.1
		c-0.7-0.4-0.7-0.8-0.2-1.3c2.8-3.2,5.4-6.6,8.3-9.8C32.2,49.3,32.2,49.1,32.1,48.7z M44.3,40.5c1.9-0.1,3.7-0.3,5.5-0.7
		c1.8-0.4,1.9-0.3,1.1-2c-1.6-3.5-4-6.3-7.4-8.1c-3.2-1.7-6.5-2.6-10.2-2c-3.8,0.6-7,2.2-9.7,4.8c-1.9,1.9-3.3,4-4.1,6.6
		c-0.1,0.5-0.2,0.8,0.5,0.9c4,0.5,8,1.1,11.9-1.1c2.2-1.3,4.5-1.2,6.8,0.1C40.4,40,42.3,40.5,44.3,40.5z M52.2,45.4
		c0.1-1.7,0.1-1.7-1.6-1.3c-1.2,0.3-2.5,0.6-3.7,0.9c-1.9,0.5-3.7,1.3-5.1,2.7c-1.2,1.2-1.3,1.2,0.1,2.1c2,1.3,4,2.5,5.8,3.9
		c0.9,0.7,1.3,0.5,1.8-0.4C51.2,50.9,52.1,48.3,52.2,45.4z M18.7,45.1c0.3,3.3,1.2,6,2.8,8.4c0.3,0.4,0.4,0.9,1.1,0.4
		c2.1-1.5,4.3-2.9,6.5-4.3c0.7-0.5,0.8-0.7,0.2-1.4c-2.5-2.7-5.6-3.6-9.1-4.1C18.9,43.9,18.5,44.3,18.7,45.1z M39.9,45
		c0-2.1-1.1-3.7-2.9-4.5c-1.7-0.7-3.6-0.3-4.9,1c-1.3,1.4-1.7,3.4-1,5c0.4,1,0.8,1.2,1.7,0.5c0.6-0.5,1.2-1.3,2.1-1.1
		c1,0.3,2,0.6,3,1c1.3,0.5,1.5,0.5,1.9-0.9C39.8,45.7,39.8,45.2,39.9,45z M33.5,59.6c0,0.6-0.4,1.5,0.8,1.4c0.7-0.1,1.9,0.2,1.9-1
		c0-0.8,0.7-2.3-1-2.4C33.6,57.5,33.6,57.5,33.5,59.6z M27,41.4c-0.9,0-1.7,0.7-1.7,1.6c0,0.7,1,2,1.6,1.9c0.7,0,1.7-1.2,1.6-1.9
		C28.4,42,27.8,41.5,27,41.4z M45.4,43.4c0-1.1-0.6-1.7-1.6-1.7c-0.9,0-1.5,0.6-1.6,1.5c0,1,0.6,1.6,1.6,1.6
		C44.7,44.9,45.3,44.3,45.4,43.4z M35.8,55.4c-0.4-0.3,0.5-1.4-0.6-1.6c-1.5-0.3-1.2,1-1.3,1.7c-0.1,0.8-0.2,1.5,1,1.4
		C36.2,56.9,36,56.3,35.8,55.4z M35.5,51.8C35.5,51.8,35.5,51.8,35.5,51.8c0-0.4,0-0.7-0.1-1.1c0-0.3,0-0.8-0.5-0.8
		c-0.6,0-0.4,0.5-0.5,0.8c-0.1,0.6-0.2,1.2-0.2,1.9c0,0.4,0,0.8,0.6,0.7c0.4,0,0.8-0.2,0.8-0.7C35.6,52.3,35.5,52.1,35.5,51.8z"/>
	<path class="st2" d="M26.6,21c-3.2,0.2-6.4,1.5-9.7-0.1c-2.1-1-4.4-1.5-6.6-2.2c-0.4-0.1-0.8-0.2-1.1-0.7c2-0.6,3.9-1.3,5.8-1.9
		c0.3-0.1,0.7-0.3,1-0.3c1-0.3,2-1.2,3.1-0.3c0.3,0.2,0.8,0.1,1.2-0.1c4.5-1.3,9.1-2.5,13.6-3.8c0.9-0.3,1.8-0.3,2.7,0
		c3.3,0.9,6.6,1.9,9.9,2.8c0.3,0.1,0.6,0.2,0.9-0.2c-1.7-0.6-3.3-1.2-4.9-1.8c-2-0.7-4.1-1.3-6.1-2c-0.8-0.3-1.5-0.2-2.2,0
		c-4.6,1.5-9.1,2.9-13.7,4.4c-0.4,0.1-0.8,0.4-1.3-0.2c2.2-0.7,4.3-1.4,6.4-2.1c2.9-1,5.7-1.9,8.6-2.9c0.8-0.3,1.6-0.3,2.4,0
		c4.1,1.4,8.3,2.7,12.4,4.1c3.9,1.3,7.8,2.6,11.6,3.9c0.3,0.1,0.6,0.1,0.9,0.5c-2.1,1-4.3,1.5-6.4,2.2c-1.6,0.6-1.7,0.7-0.6,2.1
		c0.9,1.1,1.8,2.2,3.5,1.8c0.9-0.2,3.7,2.4,3.9,3.4c0.2,1-0.7,1.2-1.2,1.4c-0.7,0.4-0.5-0.5-0.7-0.8c-0.4-1-0.7-2-2.2-1.7
		c-0.2,0-0.5-0.1-0.6-0.2c-1.2-1.8-3.8-2.2-4.4-4.6c-0.1-0.3-0.3-0.5-0.6-0.4c-1.7,0.8-3.4-0.1-5.1-0.1c1.1,0.7,3,0.2,3.3,2.1
		c0.3,1.4,0.6,2.7,0.8,4.2c-4.6-3.8-9.7-5.9-15.6-5.8c-5.9,0.1-11,2.4-15.5,6.7c0.2-2.1,0.5-3.8,0.6-5.5c0.1-0.7,0.5-0.8,1-0.9
		c1.2-0.2,2.4-0.4,3.6-0.6C25.7,21.4,26.3,21.5,26.6,21c1.7,0.5,3.3-0.6,5-0.2C29.9,20.2,28.2,20.6,26.6,21z M47.7,14.5
		c1.3,0.4,2.2,0.6,3.1,0.9c0-0.1,0.1-0.2,0.1-0.4C50,14.7,49.1,14.3,47.7,14.5z"/>
</g>
</svg>
