<?xml version="1.0" encoding="utf-8"?>
<!-- Generator: Adobe Illustrator 23.0.0, SVG Export Plug-In . SVG Version: 6.00 Build 0)  -->
<svg version="1.1" id="ff89978a-9cc6-4db0-9bd2-e66489869078"
	 xmlns="http://www.w3.org/2000/svg" xmlns:xlink="http://www.w3.org/1999/xlink" x="0px" y="0px" viewBox="0 0 1048.7 812.5"
	 style="enable-background:new 0 0 1048.7 812.5;" xml:space="preserve">
<style type="text/css">
	.st0{opacity:0.1;fill:#667EEA;enable-background:new    ;}
	.st1{opacity:0.4;}
	.st2{fill:#ECECEC;}
	.st3{fill:#DCDCDC;}
	.st4{fill:#C8C8C8;}
	.st5{fill:#1A2E35;}
	.st6{fill:#FFC800;}
	.st7{fill:#FFFFFF;}
	.st8{fill:#2B454E;}
	.st9{fill:#FF9581;}
	.st10{opacity:0.1;}
	.st11{fill:#375A64;}
	.st12{opacity:0.5;}
	.st13{opacity:0.2;}
	.st14{opacity:0.3;fill:#FFFFFF;}
	.st15{opacity:0.3;fill:#ECECEC;}
	.st16{opacity:0.6;}
	.st17{opacity:0.4;fill:#FFFFFF;}
	.st18{opacity:0.3;}
	.st19{fill:none;}
	.st20{opacity:0.7;fill:#FFFFFF;}
	.st21{fill:#C36358;}
	.st22{fill:#A8A8A8;}
	.st23{opacity:0.3;fill:#1A2E35;}
</style>
<title>designer life</title>
<ellipse class="st0" cx="-175.4" cy="376.6" rx="34.6" ry="3.8"/>
<g class="st1">
	<path class="st2" d="M823.7,153c11.9,0,211.4,1.5,224,1c0.9,0,1.4-1.5,0.5-2c-7.9-4.4-16.9-3.5-25.1-6.6c-4.8-1.8-7.8-5.4-11.2-9.4
		c-2.9-3.5-6.3-6.2-10.4-7.6c-3.7-1.2-7.6-1.4-11.3-0.4c-4,1.1-7.6,3.7-11.4,5.3c-9.6,4-18.9,0.2-25.7-7.7
		c-5.6-6.5-11.2-12.7-18.9-16.2c-6.4-3-13.6-3.6-20-0.3c-7.3,3.7-12.3,11.2-19.2,15.7c-8.2,5.3-17.9,4.1-26.9,5.7
		c-9,1.6-15.9,10.1-23.8,15c-2.7,1.7-5.5,3.1-8.6,3c-1.8-0.1-3.5-0.6-5.2-0.8c-2.7-0.4-5.3-0.3-7.1,2.2
		C822.9,150.4,823,153,823.7,153z"/>
	<path class="st2" d="M250.7,247.9c11.9,0,211.4,1.5,224,1c0.9,0,1.4-1.5,0.5-2c-7.9-4.4-16.9-3.5-25.1-6.6
		c-4.8-1.8-7.8-5.4-11.2-9.4c-2.9-3.5-6.3-6.2-10.4-7.6c-3.7-1.2-7.6-1.4-11.3-0.4c-4,1.1-7.6,3.7-11.4,5.3
		c-9.6,4-18.9,0.2-25.7-7.7c-5.6-6.5-11.2-12.7-18.9-16.2c-6.4-3-13.6-3.6-20-0.3c-7.3,3.7-12.3,11.2-19.2,15.7
		c-8.2,5.3-17.9,4.1-26.9,5.7c-9,1.6-15.9,10.1-23.8,15c-2.7,1.7-5.5,3.1-8.6,3c-1.8-0.1-3.5-0.6-5.2-0.8c-2.7-0.4-5.3-0.3-7.1,2.2
		C249.8,245.3,249.9,247.9,250.7,247.9z"/>
	<path class="st2" d="M6.2,206.6c8.7,0,154.4,1.1,163.5,0.7c0.7,0,1-1.1,0.4-1.5c-5.8-3.2-12.3-2.6-18.3-4.8
		c-3.5-1.3-5.7-3.9-8.1-6.9c-2.1-2.6-4.6-4.5-7.6-5.5c-2.7-0.9-5.5-1-8.3-0.3c-3,0.8-5.5,2.7-8.3,3.9c-7,3-13.8,0.1-18.8-5.7
		c-4.1-4.8-8.2-9.3-13.8-11.9c-4.7-2.2-9.9-2.6-14.6-0.2c-5.3,2.7-9,8.2-14,11.4c-6,3.9-13.1,3-19.6,4.1C32,191.2,27,197.4,21.2,201
		c-2,1.2-4,2.2-6.3,2.2c-1.3,0-2.6-0.4-3.8-0.6c-2-0.3-3.9-0.2-5.2,1.6C5.6,204.6,5.7,206.6,6.2,206.6z"/>
	<path class="st2" d="M592.3,73.1c8.7,0,154.4,1.1,163.5,0.7c0.7,0,1-1.1,0.4-1.5c-5.8-3.2-12.3-2.6-18.3-4.8
		c-3.5-1.3-5.7-3.9-8.1-6.9c-2.1-2.6-4.6-4.5-7.6-5.5c-2.7-0.9-5.5-1-8.3-0.3c-3,0.8-5.5,2.7-8.3,3.9c-7,3-13.8,0.1-18.8-5.7
		c-4.1-4.8-8.2-9.3-13.8-11.9c-4.7-2.2-9.9-2.6-14.6-0.2c-5.3,2.7-9,8.2-14,11.4c-6,3.9-13.1,3-19.6,4.1
		c-6.6,1.2-11.6,7.4-17.4,10.9c-2,1.2-4,2.2-6.3,2.2c-1.3,0-2.6-0.4-3.8-0.6c-2-0.3-3.9-0.2-5.2,1.6
		C591.7,71.2,591.7,73.1,592.3,73.1z"/>
	<path class="st2" d="M614.3,239c0.2,0.7,301.2,0,297.4,0c-1.7,0,2.6-2.9,0.9-3.8c-9.8-5.4-20.5-5.6-31.2-6.7
		c-6.2-0.6-12.6-1.6-18.2-4.9c-5.7-3.3-9.2-9.1-13.2-14.4c-12.4-16.5-32.2-25.1-51.4-21.8c-21.4,3.8-38.3,22-59.7,25.4
		c-12.9,2-25.1-3.6-37.6-5.5c-10.4-1.6-19,0.6-28.3,5.8c-6.8,3.8-13.1,6.9-20.7,7.5c-5.9,0.5-11.8-0.3-17.7-0.4
		c-9.5-0.1-18.8,4.5-26.1,11.7C607.5,232.7,604.5,239,614.3,239z"/>
	<path class="st2" d="M230.4,132.9c0.2,0.7,301.2,0,297.4,0c-1.7,0,2.6-2.9,0.9-3.8c-9.8-5.4-20.5-5.6-31.2-6.7
		c-6.2-0.6-12.6-1.6-18.2-4.9c-5.7-3.3-9.2-9.1-13.2-14.4c-12.4-16.5-32.2-25.1-51.4-21.8c-21.4,3.8-38.3,22-59.7,25.4
		c-12.9,2-25.1-3.6-37.6-5.5c-10.4-1.6-19,0.6-28.3,5.8c-6.8,3.8-13.1,6.9-20.7,7.5c-5.9,0.5-11.8-0.3-17.7-0.4
		c-9.5-0.1-18.8,4.5-26.1,11.7C223.6,126.6,220.6,132.9,230.4,132.9z"/>
</g>
<g>
	<g>
		<path class="st2" d="M133.4,215.2c0,0-63.9-28.3-114.4,70.4c-51.8,101.2,13.3,167.8,65,128c0,0,40.6,95.2,121.6,72.4
			c81-22.8,94.1-95.4,94.1-95.4s71.9,5.6,73.9-54.5c2-60.1-50.8-113.3-50.8-113.3s-3.2-149.7-90.3-148.4
			C145.4,75.7,133.4,215.2,133.4,215.2z"/>
		<g>
			<polygon class="st3" points="193.2,745.5 211,300.1 229.7,745.5 			"/>
			<polygon class="st3" points="205.5,467 149.7,342.6 216.5,447.8 			"/>
		</g>
	</g>
	<g>
		<path class="st3" d="M812,332c0,0-49.8-22-89.2,54.9c-40.4,78.9,10.4,130.9,50.7,99.9c0,0,31.7,74.2,94.9,56.5
			c63.2-17.8,73.4-74.4,73.4-74.4s56.1,4.4,57.6-42.5c1.5-46.9-39.6-88.4-39.6-88.4s-2.5-116.7-70.4-115.8
			C821.4,223.2,812,332,812,332z"/>
		<g>
			<polygon class="st4" points="858.6,745.6 872.5,398.2 887.1,745.5 			"/>
			<polygon class="st4" points="868.2,528.4 824.7,431.4 876.8,513.4 			"/>
		</g>
	</g>
</g>
<path class="st5" d="M18.7,745.6c325.8-1.1,691.2-1.1,1017,0C709.9,746.7,344.5,746.7,18.7,745.6L18.7,745.6z"/>
<g>
	<rect x="423" y="39" class="st3" width="11.5" height="706.6"/>
	<g>
		<polygon class="st6" points="521.1,145.7 428.8,249 336.5,145.7 428.8,42.4 		"/>
		<path class="st5" d="M428.8,237.7l-82.2-92l82.2-92l82.2,92L428.8,237.7z M348.9,145.7l79.9,89.4l79.9-89.4l-79.9-89.4
			L348.9,145.7z"/>
		<g>
			<g>
				<path class="st5" d="M387.4,138.8v-13.9c0-0.7,0.5-1.3,1.2-1.3h2.5c4.1,0,7.3,3.7,7.3,8.2c0,4.6-3.3,8.2-7.3,8.2h-2.5
					C387.9,140.1,387.4,139.5,387.4,138.8z M389.7,137.5h1.3c2.8,0,5-2.5,5-5.6c0-3.1-2.2-5.6-5-5.6h-1.3V137.5z"/>
				<path class="st5" d="M411.8,138.1c0.2,0.7-0.1,1.4-0.7,1.6c-0.1,0-0.3,0.1-0.5,0.1c0,0,0,0,0,0c-0.2,0-0.5,0-0.8-0.3
					c-0.3-0.2-0.5-0.5-0.7-0.8c-0.3-0.7-0.4-1.5-0.4-2.8c0-0.4-0.1-0.8-0.3-1c-0.1-0.3-0.4-0.5-0.6-0.7c-0.4-0.3-1-0.5-1.2-0.6h-2.5
					v5.1c0,0.7-0.5,1.3-1.2,1.3c-0.7,0-1.2-0.6-1.2-1.3v-13.9c0-0.7,0.5-1.3,1.2-1.3c0,0,0,0,0,0h3.7c2.5,0,4.5,2.3,4.5,5.1
					c0,1.6-0.6,2.9-1.6,3.9c0.3,0.2,0.5,0.5,0.7,0.9c0.4,0.7,0.7,1.6,0.7,2.5c0,0.7,0,1.2,0.1,1.4
					C411.4,137.4,411.6,137.7,411.8,138.1z M408.8,128.7c0-1.4-1-2.4-2.2-2.4h-2.6v4.8h2.6C407.9,131.1,408.8,130,408.8,128.7z"/>
				<path class="st5" d="M415.3,124.9c0-0.7,0.5-1.3,1.2-1.3c0.6,0,1.2,0.6,1.2,1.3v13.9c0,0.7-0.5,1.3-1.2,1.3
					c-0.7,0-1.2-0.6-1.2-1.3V124.9z"/>
				<path class="st5" d="M426.4,139.8c0,0-0.1-0.1-0.1-0.1c0,0,0,0,0-0.1c0,0-0.1-0.1-0.1-0.1c0,0,0,0,0,0c0,0-0.1-0.1-0.1-0.2
					l-5.1-13.7c-0.3-0.6,0-1.4,0.6-1.7c0.6-0.3,1.2,0,1.5,0.7l4.1,10.9l4.1-10.9c0.3-0.7,0.9-1,1.5-0.7c0.6,0.3,0.9,1,0.6,1.7
					l-5.2,13.7c0,0,0,0.1-0.1,0.2c0,0,0,0,0,0c0,0-0.1,0.1-0.1,0.1c0,0,0,0,0,0.1c0,0-0.1,0.1-0.1,0.1c0,0,0,0,0,0
					c0,0-0.1,0.1-0.2,0.1c0,0,0,0,0,0c-0.1,0-0.1,0-0.2,0c0,0,0,0,0,0c-0.1,0-0.1,0-0.2,0c-0.1,0-0.1,0-0.2,0c0,0,0,0,0,0
					c0,0-0.1,0-0.2,0c0,0,0,0,0,0s0,0,0,0C426.5,140,426.5,139.9,426.4,139.8C426.4,139.8,426.4,139.8,426.4,139.8z"/>
				<path class="st5" d="M436.4,124.9c0-0.7,0.5-1.3,1.2-1.3c0.6,0,1.2,0.6,1.2,1.3v13.9c0,0.7-0.5,1.3-1.2,1.3
					c-0.7,0-1.2-0.6-1.2-1.3V124.9z"/>
				<path class="st5" d="M445,138.8c0,0.7-0.5,1.3-1.1,1.3c-0.7,0-1.2-0.6-1.2-1.3v-13.6c0,0,0,0,0,0c0-0.4,0.1-0.8,0.5-1.1
					c0.5-0.4,1.2-0.3,1.6,0.3l6.8,10.5v-9.7c0-0.7,0.5-1.3,1.1-1.3c0.6,0,1.2,0.6,1.2,1.3v13.6c0,0.7-0.5,1.3-1.2,1.3
					c-0.3,0-0.7-0.2-0.9-0.5c0,0-0.1-0.1-0.1-0.1L445,129V138.8z"/>
				<path class="st5" d="M457.2,131.6c0-4.7,3.5-8.5,7.7-8.5c1.8,0,3.5,0.7,4.8,1.8c0.5,0.4,0.6,1.3,0.2,1.9
					c-0.4,0.6-1.2,0.7-1.7,0.2c-0.9-0.8-2.1-1.3-3.3-1.3c-1.5,0-2.8,0.6-3.8,1.7c-1,1.1-1.6,2.5-1.6,4.1c0,1.6,0.6,3,1.6,4
					c0.9,1.1,2.3,1.7,3.8,1.7c1,0,2-0.4,2.9-0.9v-3.2h-3c-0.7,0-1.2-0.6-1.2-1.3c0-0.8,0.5-1.3,1.2-1.3h4.1c0,0,0,0,0,0c0,0,0,0,0,0
					c0.7,0,1.2,0.6,1.2,1.3v5.2c0,0.2,0,0.3-0.1,0.4c0,0,0,0.1,0,0.1v0c-0.1,0.2-0.2,0.4-0.4,0.6c-1.3,1.2-3,1.8-4.8,1.8
					C460.7,140.1,457.2,136.3,457.2,131.6z"/>
			</g>
			<g>
				<path class="st5" d="M384.2,161.5c0.4-0.5,1.1-0.6,1.5-0.2c0.9,0.8,2.5,1.8,4,1.8c1,0,2-0.4,2.6-0.9c0.6-0.5,0.9-1.1,0.9-1.7
					c0-0.3-0.1-0.5-0.2-0.8c-0.1-0.2-0.3-0.5-0.6-0.7c-0.6-0.4-1.6-0.8-2.9-1.1h0c-1-0.2-1.9-0.5-2.7-0.9c-0.8-0.4-1.5-1-2-1.8
					c-0.3-0.6-0.5-1.2-0.5-1.9c0-1.4,0.7-2.6,1.7-3.4c1-0.8,2.3-1.2,3.6-1.2c2,0,3.5,1.1,4.6,1.9c0.5,0.4,0.6,1.1,0.3,1.7
					c-0.3,0.6-1,0.7-1.5,0.4c-1.1-0.8-2.1-1.5-3.4-1.5c-0.9,0-1.8,0.3-2.4,0.8c-0.6,0.5-0.8,1-0.8,1.5c0,0.3,0,0.5,0.1,0.7
					c0.1,0.2,0.3,0.4,0.6,0.6c0.5,0.4,1.5,0.8,2.6,1h0c1.1,0.2,2.1,0.5,2.9,1c0.9,0.5,1.6,1.1,2.1,1.9c0.3,0.6,0.5,1.3,0.5,2
					c0,1.5-0.8,2.8-1.8,3.6c-1,0.8-2.4,1.3-3.9,1.3c-2.3,0-4.2-1.3-5.4-2.3C383.9,162.8,383.8,162,384.2,161.5z"/>
				<path class="st5" d="M398,157.1c0-4.7,3.5-8.4,7.7-8.5c1.8,0,3.5,0.7,4.8,1.8c0.5,0.5,0.6,1.3,0.2,1.9c-0.4,0.6-1.2,0.7-1.7,0.3
					c-0.9-0.8-2.1-1.3-3.4-1.3c-1.4,0-2.8,0.7-3.8,1.7c-0.9,1.1-1.5,2.5-1.5,4.1c0,1.6,0.6,3.1,1.5,4.1c1,1,2.3,1.7,3.8,1.7
					c1.3,0,2.4-0.4,3.4-1.3c0.5-0.4,1.3-0.3,1.7,0.3c0.4,0.6,0.3,1.4-0.2,1.9c-1.3,1.2-3,1.8-4.8,1.8
					C401.5,165.6,398,161.8,398,157.1z"/>
				<path class="st5" d="M414.8,164.3v-13.9c0-0.7,0.5-1.3,1.2-1.3c0.7,0,1.2,0.6,1.2,1.3v5.6h5.4v-5.6c0-0.7,0.5-1.3,1.2-1.3
					c0.7,0,1.2,0.6,1.2,1.3v13.9c0,0.7-0.5,1.3-1.2,1.3c-0.7,0-1.2-0.6-1.2-1.3v-5.6h-5.4v5.6c0,0.7-0.5,1.3-1.2,1.3
					C415.3,165.6,414.8,165,414.8,164.3z"/>
				<path class="st5" d="M440.7,151.2c1.3,1.6,2.1,3.6,2.1,5.9c0,2.3-0.8,4.4-2.1,5.9c-1.2,1.5-3.1,2.5-5,2.5c-2,0-3.9-1-5.1-2.5
					c-1.3-1.5-2.1-3.6-2.1-5.9c0-2.3,0.8-4.4,2.1-5.9c1.3-1.6,3.1-2.5,5.1-2.5C437.6,148.7,439.4,149.7,440.7,151.2z M440.4,157.1
					c0-1.6-0.6-3.1-1.4-4.1c-0.9-1.1-2.1-1.7-3.3-1.7c-1.3,0-2.5,0.6-3.4,1.7c-0.9,1-1.4,2.5-1.4,4.1c0,1.6,0.5,3.1,1.4,4.1
					c0.9,1.1,2.1,1.7,3.4,1.7c1.3,0,2.4-0.6,3.3-1.7C439.8,160.2,440.4,158.7,440.4,157.1z"/>
				<path class="st5" d="M458.3,151.2c1.3,1.6,2.1,3.6,2.1,5.9c0,2.3-0.8,4.4-2.1,5.9c-1.2,1.5-3.1,2.5-5,2.5c-2,0-3.9-1-5.1-2.5
					c-1.3-1.5-2.1-3.6-2.1-5.9c0-2.3,0.8-4.4,2.1-5.9c1.3-1.6,3.1-2.5,5.1-2.5C455.2,148.7,457.1,149.7,458.3,151.2z M458,157.1
					c0-1.6-0.6-3.1-1.4-4.1c-0.9-1.1-2.1-1.7-3.3-1.7c-1.3,0-2.5,0.6-3.4,1.7c-0.9,1-1.4,2.5-1.4,4.1c0,1.6,0.5,3.1,1.4,4.1
					c0.9,1.1,2.1,1.7,3.4,1.7c1.3,0,2.4-0.6,3.3-1.7C457.5,160.2,458,158.7,458,157.1z"/>
				<path class="st5" d="M464.5,164.3v-13.9c0-0.7,0.5-1.3,1.2-1.3c0.7,0,1.2,0.6,1.2,1.3V163h5.7c0.6,0,1.2,0.6,1.2,1.3
					c0,0.7-0.5,1.3-1.2,1.3h-6.8c0,0,0,0,0,0c0,0,0,0,0,0C465,165.6,464.5,165,464.5,164.3z"/>
			</g>
		</g>
		<g>
			<path class="st7" d="M431.3,73.4c0,1.6-1.1,2.8-2.5,2.8s-2.5-1.3-2.5-2.8c0-1.6,1.1-2.8,2.5-2.8S431.3,71.8,431.3,73.4z"/>
			<path class="st7" d="M431.3,218.1c0,1.6-1.1,2.8-2.5,2.8s-2.5-1.3-2.5-2.8c0-1.6,1.1-2.8,2.5-2.8S431.3,216.5,431.3,218.1z"/>
		</g>
	</g>
</g>
<g>
	<g>
		<path class="st8" d="M689.8,469.1c0,0.2,0,0.4,0,0.7c-18.2,0.8-74.7,2.5-93.3,3.2c0.7-2.9,11.1-47.1,14.2-49.6
			c3.1-2.5,55.1-2.5,56.3-1.3c4.1,3.7,10.7,34.2,10.7,34.2s1.2,1,2.8,2.5c0.3,0.2,0.6,0.5,0.8,0.8c0.3,0.3,0.6,0.5,0.9,0.8
			c1.9,1.8,4.1,3.9,5.6,5.6c0.2,0.2,0.3,0.4,0.5,0.6c0.4,0.6,0.8,1.1,1.1,1.5c0.1,0.1,0.1,0.3,0.2,0.4c0.1,0.2,0.1,0.3,0.1,0.4
			C689.7,468.9,689.8,469,689.8,469.1z"/>
	</g>
	<path class="st5" d="M601.8,385.3c10.9,12.6,4.2,24.9,8.9,28.9c12.2,10.4,4.7,15.3,8,19.2c2.7,3.2,12.7,5.1,10.1,17.7l-44.7,4.1
		c-1.9-8.1,5.1-13.2,5.2-19c0-5.8-6.5-11.1,2.4-24.4C597.5,403.2,596.6,379.3,601.8,385.3z"/>
	<g>
		<g>
			<path class="st9" d="M623.1,452c-13.8,22.8-48.3,48.5-56.4,51.3c-9.5,3.3-48.1,1.2-65.2-4c-4.4-1.3-0.9-43.7,6.8-42.7
				c10.2,1.3,47,8.7,52,7.3c4.8-1.4,37.5-17.3,55-26.2C633.9,428.4,628.6,442.9,623.1,452z"/>
			<path class="st10" d="M623.1,452c-13.8,22.8-48.3,48.5-56.4,51.3c-9.5,3.3-48.1,1.2-65.2-4c-4.4-1.3-0.9-43.7,6.8-42.7
				c10.2,1.3,47,8.7,52,7.3c4.8-1.4,37.5-17.3,55-26.2C633.9,428.4,628.6,442.9,623.1,452z"/>
			<g>
				<g>
					<path class="st9" d="M508.7,498.3c4.5-1.8,5.9-35.7,2.2-39.3c-0.7-0.7-1.7-1.6-3.9-4c0,0,0,0,0,0s-7.9-8.5-12.3-18.2
						c-3.7-8.1-8.2-20.7-12.2-18.7c-5.8,2.9-1.7,19.6,1.2,29c-4.7-1-8.9-1.3-11.4-0.5c-8.3,2.6-2.5,45.5,5.6,49.3
						C485.6,499.5,504.2,500.1,508.7,498.3z"/>
				</g>
				<g class="st10">
					<path d="M508.7,498.3c4.5-1.8,5.9-35.7,2.2-39.3c-0.7-0.7-1.7-1.6-3.9-4c0,0,0,0,0,0s-7.9-8.5-12.3-18.2
						c-3.7-8.1-8.2-20.7-12.2-18.7c-5.8,2.9-1.7,19.6,1.2,29c-4.7-1-8.9-1.3-11.4-0.5c-8.3,2.6-2.5,45.5,5.6,49.3
						C485.6,499.5,504.2,500.1,508.7,498.3z"/>
				</g>
				<g>
					<path class="st9" d="M485.7,445.3c2.6,4.1-3.1,5.2-3.1,5.2s8.7,0.6,9.9,5.9c1.2,5.2-5.8,6.3-6.3,6.4c0.5,0,8.4,0.8,9.2,6.3
						c0.8,5.7-6.4,5.5-6.9,5.5c0.4,0.2,6,2.7,5.7,7.1c-0.4,7.5-14.8,1.4-19.7,4.1c0,0,3.2,9.7,3.2,10c0,0-13.8-5.5-16.7-13
						c-1.5-4,1.5-6.3,1.5-6.3s-4.6-1.2-5.4-5.5c-0.4-2.2,2.5-4.9,2.5-4.9s-3.7-1.1-4.1-5c-0.4-3.1,2.5-5.3,2.5-5.3s-3.1-2.9-2.5-6.2
						C456.7,442.9,480.1,436.7,485.7,445.3z"/>
					<path class="st10" d="M485.7,445.3c2.6,4.1-3.1,5.2-3.1,5.2s8.7,0.6,9.9,5.9c1.2,5.2-5.8,6.3-6.3,6.4c0.5,0,8.4,0.8,9.2,6.3
						c0.8,5.7-6.4,5.5-6.9,5.5c0.4,0.2,6,2.7,5.7,7.1c-0.4,7.5-14.8,1.4-19.7,4.1c0,0,3.2,9.7,3.2,10c0,0-13.8-5.5-16.7-13
						c-1.5-4,1.5-6.3,1.5-6.3s-4.6-1.2-5.4-5.5c-0.4-2.2,2.5-4.9,2.5-4.9s-3.7-1.1-4.1-5c-0.4-3.1,2.5-5.3,2.5-5.3s-3.1-2.9-2.5-6.2
						C456.7,442.9,480.1,436.7,485.7,445.3z"/>
					<g>
						<path class="st5" d="M458.5,455.4c-0.1,0-0.1-0.1-0.1-0.1c7.2-4.1,16.3-6.2,24.4-4.8c0.3,0,0.3,0.5,0,0.6
							C474.3,451.3,466.7,452.4,458.5,455.4z"/>
						<path class="st5" d="M459.6,466.1c-0.1,0-0.1-0.1,0-0.2c7.5-4.2,17.8-6.2,26.9-3.4c0.3,0.1,0.5,0.5,0.1,0.5
							C480.4,461.6,466.9,463.4,459.6,466.1z"/>
						<path class="st5" d="M489.1,475.1c-8.9-2.4-17.5-1.3-26.2,1.2c-0.1,0-0.1-0.2-0.1-0.2c4-2.5,9.7-3.5,14.2-3.8
							c4.3-0.3,8.3,0.4,12.2,2.5C489.3,474.9,489.3,475.2,489.1,475.1z"/>
					</g>
					<path class="st5" d="M482.7,450.4c0.3,0.1-0.1,0.5,0.2,0.6c1.3,0.3,9.2,2.8,9.3,6c0.1,2.6-3,4.5-4.5,4.7l-3.6,0.5l3.6,0.9
						c1.6,0.4,3.2,1.1,4.5,2c1.4,0.9,2.5,2.3,2.7,3.9c0.3,1.7-0.3,3.2-1.7,3.9c-1.3,0.8-3,1-4.6,0.9l-4.3-0.3l4,1.8
						c1.1,0.5,2.2,1.2,3.1,2c0.9,0.8,1.8,1.8,2.1,2.9c0.3,1.1,0.1,2.4-0.6,3.2c-0.8,0.8-2,1.2-3.2,1.4c-2.4,0.4-5,0.2-7.5,0.2
						c-1.3,0-2.6-0.1-3.8,0c-1.3,0.1-2.6,0.1-3.8,0.8c1.2-0.5,2.5-0.4,3.8-0.4c1.3,0.1,2.5,0.2,3.8,0.3c2.5,0.3,5.1,0.5,7.7,0.2
						c1.3-0.2,2.7-0.4,3.9-1.5c1.2-1.1,1.5-3.1,1.1-4.7c-0.5-1.6-1.5-2.8-2.5-3.7c-1.1-0.9-2.2-1.7-3.5-2.3l-0.3,1.6
						c1.8,0.1,3.6,0,5.4-1c0.9-0.5,1.7-1.3,2.1-2.4c0.4-1.1,0.5-2.2,0.3-3.3c-0.4-2.3-1.9-3.9-3.4-4.9c-1.6-1-3.2-1.7-5-2.1
						l-0.1,1.4c1.8-0.3,5.5-2,5.9-6.1C493.5,451.7,484.4,450.5,482.7,450.4z"/>
					<path class="st5" d="M482.6,450.6c0.9-0.4,1.7-0.9,2.4-1.5c0.6-0.6,0.9-1.4,0.8-2.2c-0.1-0.8-0.7-1.6-1.3-2.3
						c-0.7-0.7-1.4-1.4-2.1-2.1c1,0.2,1.9,0.6,2.8,1.2c0.8,0.6,1.7,1.5,1.9,2.9c0.1,0.7,0,1.4-0.3,2c-0.3,0.6-0.7,1-1.2,1.3
						C484.6,450.5,483.6,450.7,482.6,450.6z"/>
				</g>
			</g>
			<g>
				<path class="st11" d="M592.1,447.9L604,482c0,0,15.7-19.4,23.1-33.7c7.4-14.3,5.1-21.6-14.9-11.2
					C600.7,443.1,592.1,447.9,592.1,447.9z"/>
				<g>
					<path class="st5" d="M608.3,474.3c-1.5-5.4-4.2-14.2-9.6-26.7c-0.1-0.2-0.3-0.1-0.2,0.1c0.7,2.3,7.6,22.6,9.7,26.7
						C608.2,474.5,608.4,474.4,608.3,474.3z"/>
				</g>
				<path class="st10" d="M627.2,448.3c-7.4,14.3-23.1,33.7-23.1,33.7l-9.1-26l33.7-23.4C632.5,434.1,631.5,440,627.2,448.3z"/>
			</g>
		</g>
	</g>
	<g>
		<path class="st11" d="M665.4,488.5c-4.2,0.2-8.3,0.4-12.4,0.5c-2,0.1-3.9,0.2-5.8,0.3c-18.3,0.8-34.4,1.6-49.4,2.1
			c-1.6-3.4-3.7-9.5-1.5-17.8c2.1-8.1,11.6-23.3,17.6-30.9c14.4-18.6,26.5-9.7,30.3-4.7C651.6,447.6,659.5,469.4,665.4,488.5z"/>
	</g>
	<g>
		<path class="st9" d="M636.1,434.5c-0.2,1.9-6.4,14.8-13.9,15.5c-2.4,0.2-4.2-14.5-4.2-14.5l-0.4-1.1l-4.9-14.8l14.6-13.9l2.1-1.9
			c0,0,1.1,4.1,2.4,9.3c0.1,0.2,0.1,0.5,0.2,0.7c0.1,0.3,0.2,0.6,0.2,0.8c0.2,0.8,0.4,1.6,0.6,2.3c0.1,0.6,0.3,1.2,0.4,1.8
			c0.2,0.6,0.3,1.3,0.4,1.9C635.2,427.2,636.2,433.7,636.1,434.5z"/>
		<path class="st5" d="M632,413.3c-2.4,12.7-10.5,19-14.3,21.2l-4.9-14.8l14.6-13.9l2.1-1.9C629.5,403.9,630.6,408.1,632,413.3z"/>
	</g>
	<path class="st5" d="M593.2,379.1c0,0-5.3,3.7-5.9,8.6c-1,7.9,3.1,19.4,3.1,19.4L593.2,379.1z"/>
	<path class="st9" d="M589.9,401.1c0.9,27.6,15.8,30.1,21.1,29.9c4.8-0.2,21.3-1.6,22.9-29.2c1.6-27.6-10.2-35.8-21.2-36
		C601.7,365.6,589,373.4,589.9,401.1z"/>
	<g>
		<path class="st5" d="M594.3,396.7c0.6-0.1,1.1-0.4,1.6-0.6c0.6-0.2,1.1-0.4,1.6-1c0.2-0.3,0.1-0.9-0.1-1.2
			c-0.6-0.6-1.4-0.6-2.2-0.3c-0.8,0.3-1.4,0.7-1.9,1.5C592.9,395.9,593.6,396.8,594.3,396.7z"/>
		<path class="st5" d="M610.7,395.1c-0.6,0-1.1-0.1-1.7-0.2c-0.7-0.1-1.2-0.1-1.7-0.6c-0.3-0.3-0.3-0.9-0.1-1.2
			c0.5-0.8,1.3-0.9,2.1-0.8c0.9,0.1,1.5,0.4,2.1,1C612,394,611.5,395.1,610.7,395.1z"/>
		<g>
			<g>
				<path class="st5" d="M607.8,402.4c0-0.1,0.1,0.1,0.1,0.2c0.1,1.9,0.5,4,2,4.5c0,0,0.1,0.1,0,0.1
					C608.1,407,607.6,404.1,607.8,402.4z"/>
				<path class="st5" d="M609.2,400.3c2.7-0.5,3.3,5.5,0.9,6C607.6,406.7,606.9,400.7,609.2,400.3z"/>
			</g>
			<path class="st5" d="M610.3,400.4c0.5,0.3,1,0.8,1.6,0.8c0.7,0,1.1-0.7,1.5-1.4c0-0.1,0.1,0,0.1,0.1c0.1,1.2-0.1,2.4-1.2,2.7
				c-1,0.3-1.8-0.6-2.2-1.8C609.9,400.7,610.1,400.3,610.3,400.4z"/>
		</g>
		<g>
			<g>
				<path class="st5" d="M598,403.1c0-0.1-0.1,0.1-0.1,0.2c0.1,1.9,0,4.1-1.5,4.8c0,0,0,0.1,0,0.1
					C598.2,407.8,598.4,404.9,598,403.1z"/>
				<path class="st5" d="M596.4,401.2c-2.7-0.1-2.7,6-0.2,6.1C598.7,407.4,598.7,401.3,596.4,401.2z"/>
			</g>
			<path class="st5" d="M595.3,401.6c-0.5,0.3-0.9,1-1.5,1c-0.7,0.1-1.2-0.6-1.6-1.2c0-0.1-0.1,0-0.1,0.1c0,1.2,0.4,2.4,1.5,2.5
				c1,0.1,1.7-0.9,2-2.1C595.7,401.7,595.5,401.4,595.3,401.6z"/>
		</g>
		<path class="st5" d="M609.6,416.9c-0.3,0.5-0.6,1.2-1.2,1.4c-0.6,0.2-1.3,0-1.9-0.1c-0.1,0-0.1,0.1-0.1,0.1
			c0.5,0.6,1.5,0.9,2.3,0.6c0.7-0.3,1-1.1,1.1-1.9C609.8,416.9,609.6,416.9,609.6,416.9z"/>
		<g>
			<path class="st5" d="M601.9,411.1c0,0-0.1,2.8,0.1,4.2c0,0.1,0.3,0.1,0.7,0.1c0,0,0,0,0,0c2.1,0.1,4.1-1,5.2-3
				c0.1-0.1-0.1-0.3-0.2-0.2c-1.4,1.5-3.1,2-4.9,2.3c-0.1-0.4,0.3-4.9,0.1-4.8c-0.6,0-1.9,0.7-2.6,1c0-5.9,0.8-11.8,0.7-17.7
				c0-0.2-0.3-0.2-0.3,0c-1.3,6.1-1.4,12.9-1.5,19C599.1,412.6,601.5,411.4,601.9,411.1z"/>
		</g>
	</g>
	<path class="st5" d="M635,400.8c-2.8,0.6-9.3,2.1-13.9-1.2c-2.5-1.8-4.9-5.1-6.9-11.4c-3.4-11-11.1-17.3-21-9.2
		c0,0-3.4-10.1,2.4-15.1c5.8-5,13,1,13,1s13.7-3.6,22.5,7.2C639.9,382.8,635,400.8,635,400.8z"/>
	<g>
		<path class="st8" d="M595,412.9c-2.8,0.2-5.4-3.5-5.7-8.3c-0.3-4.8,1.7-8.9,4.6-9.1c2.8-0.2,5.4,3.5,5.7,8.3
			C599.9,408.6,597.8,412.7,595,412.9z M593.9,396.6c-2.3,0.2-3.9,3.7-3.6,7.9c0.3,4.2,2.3,7.4,4.6,7.2c2.3-0.2,3.9-3.7,3.6-7.9
			C598.3,399.7,596.2,396.4,593.9,396.6z"/>
		<path class="st8" d="M612.5,411.5c-4,0.3-7.5-3.3-7.8-8.1c-0.3-4.8,2.7-9,6.7-9.3c4-0.3,7.5,3.3,7.8,8.1
			C619.5,407,616.5,411.2,612.5,411.5z M611.4,395.2c-3.4,0.3-6,3.9-5.7,8.1c0.3,4.2,3.3,7.3,6.7,7c3.4-0.3,6-3.9,5.7-8.1
			C617.9,398.1,614.8,394.9,611.4,395.2z"/>
		<path class="st8" d="M604.9,402.5c-4-1.2-5.7,0.4-5.7,0.4l-0.7-0.9c0.1-0.1,2.1-2,6.7-0.6L604.9,402.5z"/>
		<path class="st8" d="M618.6,401.4l-0.1-1.2c0.7-0.1,11.3-1.9,13.1-1.8c1.8,0,5.9,3.1,6.4,3.4l-0.6,1c-1.2-0.9-4.4-3.1-5.7-3.2
			c0,0-0.1,0-0.1,0C630.2,399.6,624.4,400.7,618.6,401.4z"/>
	</g>
	<g>
		<g>
			<path class="st9" d="M635.1,457c-17.3,25-45.8,50.8-54.3,51.7c-13.3,1.5-47.5-0.6-69.4-9.5c-4.6-1.8,12.4-49.7,16.7-46.4
				c8.4,6.7,47,13.5,47.4,14.1c0.9,1.1,29.9-13.5,46.9-24.4C642.2,430,644.4,443.5,635.1,457z"/>
			<g>
				<path class="st9" d="M475.1,439.5c-2.7,4.1,0.1,8.3,0.1,8.3s-3.4,1.4-4.9,4.9c-1.7,4,3.2,8.8,3.2,8.8s-3.2,2.2-4.4,6.1
					c-1.3,4,3,9.6,3,9.6s-1.9,3.9-0.9,8.1c1.8,7.2,11.7,10.4,18,12.5c6.2,2.1,25.7,1.5,29.5,1.8L531,455c0,0-25.6-18.3-33.3-19.6
					C491.2,434.3,478.1,434.9,475.1,439.5z"/>
				<g>
					<path class="st5" d="M475.7,447.2c7.1-0.7,14,1,21,2.3c0.2,0,0.1,0.3,0,0.3c-6.9-1.3-14-1.1-21-2.2
						C475.5,447.6,475.5,447.3,475.7,447.2z"/>
					<path class="st5" d="M473.8,461c1.6-0.1,3.2,0.4,4.8,0.8c1.7,0.4,3.4,0.8,5,1.3c3.4,0.9,6.7,1.9,10,3.1c0.1,0,0.1,0.3,0,0.3
						c-3.3-0.9-6.7-1.8-10.1-2.6c-1.7-0.4-3.4-0.7-5.1-1.1c-1.6-0.3-3.3-0.5-4.7-1.2C473.5,461.5,473.5,461.1,473.8,461z"/>
					<path class="st5" d="M472.2,477.4c1.4-0.2,3,0.5,4.3,1c1.5,0.5,3,0.9,4.6,1.4c3,0.9,6.1,1.8,9.2,2.5c0.2,0,0.1,0.3,0,0.3
						c-3.1-0.8-6.3-1.5-9.4-2.3c-1.5-0.4-3.1-0.8-4.6-1.2c-1.3-0.3-3-0.6-4.1-1.5C472.1,477.5,472.2,477.4,472.2,477.4z"/>
				</g>
			</g>
		</g>
		<g>
			<path class="st11" d="M603.1,451.5l11.9,34.2c0,0,15.7-19.4,23.1-33.7c7.4-14.3,5.1-21.6-14.9-11.2
				C611.7,446.8,603.1,451.5,603.1,451.5z"/>
			<g>
				<path class="st5" d="M619.3,478c-1.5-5.4-4.2-14.2-9.6-26.7c-0.1-0.2-0.3-0.1-0.2,0.1c0.7,2.3,7.6,22.6,9.7,26.7
					C619.2,478.2,619.3,478.1,619.3,478z"/>
				<path class="st5" d="M613.9,482.5c0.3,0.1,1.1,3.1,1.1,3.1c2-3.1,4.2-5.9,6.3-8.8c2.3-3.2,4.6-6.4,6.9-9.6
					c1.3-1.8,2.5-3.7,3.8-5.5c0.1-0.1,0.2,0,0.2,0.1c-1.3,2.3-2.7,4.6-4.1,6.8c1-1.1,1.9-2.2,2.9-3.3c0.1-0.1,0.2,0.1,0.1,0.1
					c-1.2,1.7-2.7,3.3-4.1,4.8c-0.4,0.6-0.7,1.1-1.1,1.7c-2.2,3.3-4.5,6.5-6.9,9.6c-1.4,1.7-4,5.4-3.9,5.2
					C615,486.7,613.7,482.8,613.9,482.5C613.8,482.5,613.9,482.5,613.9,482.5z"/>
			</g>
		</g>
	</g>
	<path class="st5" d="M608.6,365c11.7-2.4,21.7-0.8,27.1,5.1c11.2,12.3,7.9,36,12.7,39.9c12.5,10,5.1,15.1,8.5,18.9
		c2.8,3.1,12.8,4.6,10.6,17.4l-44.5,5.6c-2.2-8,4.8-13.3,4.6-19.2c-0.1-5.8-6.9-10.8,1.7-24.4C634.8,399.3,608.6,365,608.6,365z"/>
	<g>
		<g>
			<path class="st9" d="M627.3,402.6c0,0,4.4-9.3,8.1-7.7c3.7,1.6,1.1,14.6-2.8,16.9c-3.9,2.3-5.8-1.7-5.8-1.7L627.3,402.6z"/>
			<path class="st5" d="M634.6,398.6c0.1,0,0.1,0.1,0,0.1c-2.7,1.7-3.9,4.9-4.6,8.1c0.7-1.3,1.8-2.1,3.3-1.2c0.1,0,0,0.2-0.1,0.2
				c-1.2-0.1-2,0.2-2.7,1.4c-0.5,0.8-0.8,1.8-1.1,2.7c-0.1,0.3-0.6,0.2-0.5-0.1c0,0,0-0.1,0-0.1
				C628.5,405.7,630.7,399.6,634.6,398.6z"/>
		</g>
	</g>
</g>
<g>
	<g>
		<g>
			<path class="st5" d="M447.3,422.8c-23.3,0-39.5,19.8-36.2,44.3c3.3,24.4,24.8,44.3,48.1,44.3c23.3,0,39.5-19.8,36.3-44.3
				C492.1,442.6,470.6,422.8,447.3,422.8z M457.7,500.4c-17.5,0-33.7-14.9-36.2-33.3c-2.5-18.4,9.7-33.3,27.3-33.3
				c17.5,0,33.7,14.9,36.2,33.3C487.4,485.4,475.2,500.4,457.7,500.4z"/>
			<polygon class="st5" points="416.4,457.4 484.7,457.4 486.5,471.2 466.9,477.7 462.6,503 449.5,503 439.9,478.9 418.4,472.1 			
				"/>
		</g>
		<g>
			<path class="st6" d="M257.4,674.2l198.3,1.5c0,0-10.6-137.3-106-128.1C254.3,556.9,257.4,674.2,257.4,674.2z"/>
			<path class="st12" d="M257.4,674.2l198.3,1.5c0,0-10.6-137.3-106-128.1C254.3,556.9,257.4,674.2,257.4,674.2z"/>
		</g>
		<g>
			<path class="st6" d="M783.4,674.1l197.7-16.7c0,0-20.6-135.9-115-117.9C771.8,557.4,783.4,674.1,783.4,674.1z"/>
			<path class="st12" d="M783.4,674.1l197.7-16.7c0,0-20.6-135.9-115-117.9C771.8,557.4,783.4,674.1,783.4,674.1z"/>
		</g>
		<g>
			<path class="st5" d="M273.5,662.1c1,37.3,21.9,83.1,54.3,83.1c3.2,0,46.6,0.9,49.4-0.1c26.1-8.8,41.6-57.5,38.7-100.3
				c-2.3-33.4-12.7-70.7-40-75.2c-1.8-0.3-47.5,0-49.5,0C293.7,569.6,272.4,622,273.5,662.1z"/>
			<g>
				<path class="st8" d="M316.6,662.1c1.3,37.3,20.2,83.1,62.3,83.1c42.1,0,61.4-52.9,57.1-100.4c-3.2-35.6-17.8-75.2-58.9-75.2
					C334.7,569.6,315.2,622,316.6,662.1z"/>
				<path class="st4" d="M334.2,661c1.1,28.7,15.2,64,46.3,64c31.1,0,45.2-40.7,42-77.3c-2.4-27.4-13.4-57.9-43.8-57.9
					C347.2,589.8,333,630.1,334.2,661z"/>
				<g>
					<path class="st5" d="M388.6,596c-0.6,11.7-2.9,48.9-6.1,48.9c-2.7,0-10.7-35.1-13.5-47.8c3.4-1.4,7-2.1,11-2.1
						C383.1,594.9,385.9,595.3,388.6,596z"/>
					<path class="st5" d="M376.7,647.1c-1.7,1-17-15.8-28-28.4c2.7-5.7,6-10.7,10-14.7C365.8,618.5,379,645.8,376.7,647.1z"/>
					<path class="st5" d="M373.8,651.5c-0.8,1.5-17.2-4.4-31.9-10c0.8-4.7,1.9-9.4,3.3-13.9C358.7,637.4,374.7,649.6,373.8,651.5z"
						/>
					<path class="st5" d="M372.2,656.7c0.2,1.8-16.4,4.2-31.5,6.1c0-0.7-0.1-1.4-0.1-2.1c-0.2-3.7-0.1-7.6,0.3-11.6
						C356,651.7,372.1,654.7,372.2,656.7z"/>
					<path class="st5" d="M345.4,687.2c-1.7-5.2-3-10.6-3.8-15.9c14.4-5.3,31.3-10.9,32.6-9.1C375.4,664,358,677.6,345.4,687.2z"/>
					<path class="st5" d="M363.3,713.9c-5.5-3.9-9.9-9.5-13.3-16c9.3-12.4,25.2-33.1,27.6-31.7C380.2,667.5,367.4,703,363.3,713.9z"
						/>
					<path class="st5" d="M395.8,716.3c-4.1,2.3-8.7,3.6-13.8,3.6c-2,0-3.9-0.2-5.7-0.5c0.5-9.8,2.8-50.3,6.2-50.3
						C385.1,669.1,392.9,703,395.8,716.3z"/>
					<path class="st5" d="M413.8,692.6c-2.2,5.8-5,11.1-8.4,15.3c-7.2-14.5-18.8-38.6-16.6-39.9
						C390.3,667.1,403.2,680.9,413.8,692.6z"/>
					<path class="st5" d="M418.8,671.3c-0.5,4.4-1.3,8.6-2.3,12.7c-11.8-8.8-23.9-18.3-23.1-20C394,662.7,406.2,666.7,418.8,671.3z"
						/>
					<path class="st5" d="M419.3,652.4c0.2,3.9,0.2,7.9,0,11.8c-12.5-2.1-24.2-4.4-24.3-6.2C394.9,656.6,406.8,654.4,419.3,652.4z"
						/>
					<path class="st5" d="M418.7,644.9c-12.1,4.5-24.2,8.5-25.3,7c-1.1-1.6,11.5-12.5,22.6-21.6C417.3,635.1,418.1,640,418.7,644.9z
						"/>
					<path class="st5" d="M412.5,619.7C412.5,619.7,412.5,619.7,412.5,619.7c-9,12.2-21.5,28.5-23.8,27.3
						c-2.4-1.3,7.7-31.7,12.1-44.5C405.9,606.9,409.7,612.9,412.5,619.7z"/>
				</g>
			</g>
		</g>
		<g>
			<path class="st5" d="M776.2,656.7c1,37.3,21.9,83.1,54.3,83.1c3.2,0,46.6,0.9,49.4-0.1c26.1-8.8,41.6-57.5,38.7-100.3
				c-2.3-33.4-12.7-70.7-40-75.2c-1.8-0.3-47.5,0-49.5,0C796.4,564.2,775.1,616.6,776.2,656.7z"/>
			<g>
				<path class="st8" d="M819.3,656.7c1.3,37.3,20.2,83.1,62.3,83.1c42.1,0,61.4-52.9,57.1-100.4c-3.2-35.6-17.8-75.2-58.9-75.2
					C837.4,564.2,817.9,616.6,819.3,656.7z"/>
				<path class="st4" d="M836.9,655.6c1.1,28.7,15.2,64,46.3,64c31.1,0,45.2-40.7,42-77.3c-2.4-27.4-13.4-57.9-43.8-57.9
					C849.9,584.4,835.7,624.7,836.9,655.6z"/>
				<g>
					<path class="st5" d="M891.3,590.6c-0.6,11.7-2.9,48.9-6.1,48.9c-2.7,0-10.7-35.1-13.5-47.8c3.4-1.4,7-2.1,11-2.1
						C885.8,589.6,888.6,589.9,891.3,590.6z"/>
					<path class="st5" d="M879.4,641.7c-1.7,1-17-15.8-28-28.4c2.7-5.7,6-10.7,10-14.7C868.5,613.1,881.7,640.4,879.4,641.7z"/>
					<path class="st5" d="M876.5,646.1c-0.8,1.5-17.2-4.4-31.9-10c0.8-4.7,1.9-9.4,3.3-13.9C861.4,632,877.4,644.2,876.5,646.1z"/>
					<path class="st5" d="M874.9,651.3c0.2,1.8-16.4,4.2-31.5,6.1c0-0.7-0.1-1.4-0.1-2.1c-0.2-3.7-0.1-7.6,0.3-11.6
						C858.7,646.3,874.8,649.3,874.9,651.3z"/>
					<path class="st5" d="M848.1,681.8c-1.7-5.2-3-10.6-3.8-15.9c14.4-5.3,31.3-10.9,32.6-9.1C878.1,658.6,860.7,672.2,848.1,681.8z
						"/>
					<path class="st5" d="M866,708.5c-5.5-3.9-9.9-9.5-13.3-16c9.3-12.4,25.2-33.1,27.6-31.7C882.9,662.1,870.1,697.6,866,708.5z"/>
					<path class="st5" d="M898.5,710.9c-4.1,2.3-8.7,3.6-13.8,3.6c-2,0-3.9-0.2-5.7-0.5c0.5-9.8,2.8-50.3,6.2-50.3
						C887.8,663.8,895.6,697.6,898.5,710.9z"/>
					<path class="st5" d="M916.5,687.2c-2.2,5.8-5,11.1-8.4,15.3c-7.2-14.5-18.8-38.6-16.6-39.9C893,661.7,905.9,675.5,916.5,687.2z
						"/>
					<path class="st5" d="M921.4,665.9c-0.5,4.4-1.3,8.6-2.3,12.7c-11.8-8.8-23.9-18.3-23.1-20C896.7,657.3,908.9,661.3,921.4,665.9
						z"/>
					<path class="st5" d="M922,647c0.2,3.9,0.2,7.9,0,11.8c-12.5-2.1-24.2-4.4-24.3-6.2C897.6,651.2,909.5,649,922,647z"/>
					<path class="st5" d="M921.4,639.5c-12.1,4.5-24.2,8.5-25.3,7c-1.1-1.6,11.5-12.5,22.6-21.6C920,629.7,920.8,634.6,921.4,639.5z
						"/>
					<path class="st5" d="M915.2,614.3C915.2,614.3,915.2,614.3,915.2,614.3c-9,12.2-21.5,28.5-23.8,27.3
						c-2.4-1.3,7.7-31.7,12.1-44.5C908.6,601.5,912.4,607.5,915.2,614.3z"/>
				</g>
			</g>
		</g>
		<g>
			<path class="st5" d="M58.6,662.1c1,37.3,21.9,83.1,54.3,83.1c3.2,0,46.6,0.9,49.4-0.1c26.1-8.8,41.6-57.5,38.7-100.3
				c-2.3-33.4-12.7-70.7-40-75.2c-1.8-0.3-47.5,0-49.5,0C78.9,569.6,57.5,622,58.6,662.1z"/>
			<g>
				<path class="st8" d="M101.8,662.1c1.3,37.3,20.2,83.1,62.3,83.1c42.1,0,61.4-52.9,57.1-100.4c-3.2-35.6-17.8-75.2-58.9-75.2
					C119.8,569.6,100.4,622,101.8,662.1z"/>
				<path class="st4" d="M119.3,661c1.1,28.7,15.2,64,46.3,64c31.1,0,45.2-40.7,42-77.3c-2.4-27.4-13.4-57.9-43.8-57.9
					C132.4,589.8,118.2,630.1,119.3,661z"/>
				<g>
					<path class="st5" d="M173.7,596c-0.6,11.7-2.9,48.9-6.1,48.9c-2.7,0-10.7-35.1-13.5-47.8c3.4-1.4,7-2.1,11-2.1
						C168.2,594.9,171.1,595.3,173.7,596z"/>
					<path class="st5" d="M161.8,647.1c-1.7,1-17-15.8-28-28.4c2.7-5.7,6-10.7,10-14.7C150.9,618.5,164.1,645.8,161.8,647.1z"/>
					<path class="st5" d="M158.9,651.5c-0.8,1.5-17.2-4.4-31.9-10c0.8-4.7,1.9-9.4,3.3-13.9C143.8,637.4,159.9,649.6,158.9,651.5z"
						/>
					<path class="st5" d="M157.4,656.7c0.2,1.8-16.4,4.2-31.5,6.1c0-0.7-0.1-1.4-0.1-2.1c-0.2-3.7-0.1-7.6,0.3-11.6
						C141.1,651.7,157.2,654.7,157.4,656.7z"/>
					<path class="st5" d="M130.6,687.2c-1.7-5.2-3-10.6-3.8-15.9c14.4-5.3,31.3-10.9,32.6-9.1C160.5,664,143.2,677.6,130.6,687.2z"
						/>
					<path class="st5" d="M148.5,713.9c-5.5-3.9-9.9-9.5-13.3-16c9.3-12.4,25.2-33.1,27.6-31.7C165.3,667.5,152.5,703,148.5,713.9z"
						/>
					<path class="st5" d="M181,716.3c-4.1,2.3-8.7,3.6-13.8,3.6c-2,0-3.9-0.2-5.7-0.5c0.5-9.8,2.8-50.3,6.2-50.3
						C170.3,669.1,178,703,181,716.3z"/>
					<path class="st5" d="M198.9,692.6c-2.2,5.8-5,11.1-8.4,15.3c-7.2-14.5-18.8-38.6-16.6-39.9
						C175.5,667.1,188.4,680.9,198.9,692.6z"/>
					<path class="st5" d="M203.9,671.3c-0.5,4.4-1.3,8.6-2.3,12.7c-11.8-8.8-23.9-18.3-23.1-20C179.2,662.7,191.3,666.7,203.9,671.3
						z"/>
					<path class="st5" d="M204.5,652.4c0.2,3.9,0.2,7.9,0,11.8c-12.5-2.1-24.2-4.4-24.3-6.2C180,656.6,191.9,654.4,204.5,652.4z"/>
					<path class="st5" d="M203.8,644.9c-12.1,4.5-24.2,8.5-25.3,7c-1.1-1.6,11.5-12.5,22.6-21.6C202.4,635.1,203.3,640,203.8,644.9z
						"/>
					<path class="st5" d="M197.7,619.7C197.7,619.7,197.7,619.7,197.7,619.7c-9,12.2-21.5,28.5-23.8,27.3
						c-2.4-1.3,7.7-31.7,12.1-44.5C191,606.9,194.9,612.9,197.7,619.7z"/>
				</g>
			</g>
		</g>
		<g>
			<path class="st5" d="M556.9,662.1c1,37.3,21.9,83.1,54.3,83.1c3.2,0,46.6,0.9,49.4-0.1c26.1-8.8,41.6-57.5,38.7-100.3
				c-2.3-33.4-12.7-70.7-40-75.2c-1.8-0.3-47.5,0-49.5,0C577.2,569.6,555.9,622,556.9,662.1z"/>
			<g>
				<path class="st8" d="M600.1,662.1c1.3,37.3,20.2,83.1,62.3,83.1c42.1,0,61.4-52.9,57.1-100.4c-3.2-35.6-17.8-75.2-58.9-75.2
					C618.1,569.6,598.7,622,600.1,662.1z"/>
				<path class="st4" d="M617.6,661c1.1,28.7,15.2,64,46.3,64c31.1,0,45.2-40.7,42-77.3c-2.4-27.4-13.4-57.9-43.8-57.9
					C630.7,589.8,616.5,630.1,617.6,661z"/>
				<g>
					<path class="st5" d="M672,596c-0.6,11.7-2.9,48.9-6.1,48.9c-2.7,0-10.7-35.1-13.5-47.8c3.4-1.4,7-2.1,11-2.1
						C666.5,594.9,669.4,595.3,672,596z"/>
					<path class="st5" d="M660.1,647.1c-1.7,1-17-15.8-28-28.4c2.7-5.7,6-10.7,10-14.7C649.2,618.5,662.4,645.8,660.1,647.1z"/>
					<path class="st5" d="M657.2,651.5c-0.8,1.5-17.2-4.4-31.9-10c0.8-4.7,1.9-9.4,3.3-13.9C642.1,637.4,658.2,649.6,657.2,651.5z"
						/>
					<path class="st5" d="M655.7,656.7c0.2,1.8-16.4,4.2-31.5,6.1c0-0.7-0.1-1.4-0.1-2.1c-0.2-3.7-0.1-7.6,0.3-11.6
						C639.4,651.7,655.5,654.7,655.7,656.7z"/>
					<path class="st5" d="M628.9,687.2c-1.7-5.2-3-10.6-3.8-15.9c14.4-5.3,31.3-10.9,32.6-9.1C658.8,664,641.5,677.6,628.9,687.2z"
						/>
					<path class="st5" d="M646.8,713.9c-5.5-3.9-9.9-9.5-13.3-16c9.3-12.4,25.2-33.1,27.6-31.7C663.6,667.5,650.8,703,646.8,713.9z"
						/>
					<path class="st5" d="M679.3,716.3c-4.1,2.3-8.7,3.6-13.8,3.6c-2,0-3.9-0.2-5.7-0.5c0.5-9.8,2.8-50.3,6.2-50.3
						C668.6,669.1,676.3,703,679.3,716.3z"/>
					<path class="st5" d="M697.2,692.6c-2.2,5.8-5,11.1-8.4,15.3c-7.2-14.5-18.8-38.6-16.6-39.9
						C673.8,667.1,686.7,680.9,697.2,692.6z"/>
					<path class="st5" d="M702.2,671.3c-0.5,4.4-1.3,8.6-2.3,12.7c-11.8-8.8-23.9-18.3-23.1-20C677.5,662.7,689.6,666.7,702.2,671.3
						z"/>
					<path class="st5" d="M702.8,652.4c0.2,3.9,0.2,7.9,0,11.8c-12.5-2.1-24.2-4.4-24.3-6.2C678.4,656.6,690.2,654.4,702.8,652.4z"
						/>
					<path class="st5" d="M702.1,644.9c-12.1,4.5-24.2,8.5-25.3,7c-1.1-1.6,11.5-12.5,22.6-21.6C700.7,635.1,701.6,640,702.1,644.9z
						"/>
					<path class="st5" d="M696,619.7C696,619.7,696,619.7,696,619.7c-9,12.2-21.5,28.5-23.8,27.3c-2.4-1.3,7.7-31.7,12.1-44.5
						C689.3,606.9,693.2,612.9,696,619.7z"/>
				</g>
			</g>
		</g>
		<g>
			<path class="st6" d="M1037.8,568.9c0-10.8-13-36.3-13-36.3s-11.2-54.4-17.9-61.1c-7.9-7.9-72-32.4-72-32.4s-74.5-70.5-113.1-79.7
				c-67.9-16.1-253.4-12.8-318.4-9.3c-11.5,0.6-27.3,1.7-34.8,5.1c-9.4,4.4-233.6,110.7-235.2,110.7c-1.6,0-137.5,33.4-157.3,45.2
				C57.8,522,27.6,576,25.3,577.5c-2.2,1.5-7.5,1.7-8.4,11.2c-0.9,9.5,0.2,19.1,2.1,21.1c1.9,2,7.9,4.1,8.5,4.9
				c0.6,0.8,1.4,23.3,1.1,24.2c-0.3,0.8-2.7,1.5-3,3.5c-0.3,2-0.8,8.3,0.4,10.5c0,0,20,20.5,26.2,22.4c6.2,1.9,235.4,7.7,238.8,6.4
				c3.4-1.3,2.8-123.1,76.4-123.1c87.6,0,71,128,73.5,127.9c2.4-0.1,352.7-3.6,354.6-5.5c1.9-2-12.6-126.7,82.9-123.3
				c68.9,2.4,65.3,108.3,68.9,108.4c3.6,0.1,69.4-9.3,75.3-11c5.9-1.8,14.5-20.9,15.1-22.5c0.6-1.6-1.3-6-1.3-6
				S1037.8,581.8,1037.8,568.9z M386.3,467.1c-2.6,1.1-96.7-3.3-124-4c-1,0,204.9-98.8,204.9-98.8l84.4-0.8
				C482.9,396.2,389.3,465.8,386.3,467.1z M879.8,451.4c-1.9,6.6-92,12.7-193.3,16.8c-18,0.8-36.3,1.4-54.6,2
				c-115.1,3.9-207.9,5-209.3,1.4c-2.1-5.4,130.2-107.4,160.6-111.6c30.4-4.1,91.9-3.3,145.5-1.8c53.2,1.5,69.3,3.2,91.4,14.7
				C839.6,383.1,883.3,439.4,879.8,451.4z"/>
			<path class="st13" d="M1037.8,568.9c0-10.8-13-36.3-13-36.3s-11.2-54.4-17.9-61.1c-7.9-7.9-72-32.4-72-32.4
				s-74.5-70.5-113.1-79.7c-67.9-16.1-253.4-12.8-318.4-9.3c-11.5,0.6-27.3,1.7-34.8,5.1c-9.4,4.4-233.6,110.7-235.2,110.7
				c-1.6,0-137.5,33.4-157.3,45.2C57.8,522,27.6,576,25.3,577.5c-2.2,1.5-7.5,1.7-8.4,11.2c-0.9,9.5,0.2,19.1,2.1,21.1
				c1.9,2,7.9,4.1,8.5,4.9c0.6,0.8,1.4,23.3,1.1,24.2c-0.3,0.8-2.7,1.5-3,3.5c-0.3,2-0.8,8.3,0.4,10.5c0,0,20,20.5,26.2,22.4
				c6.2,1.9,235.4,7.7,238.8,6.4c3.4-1.3,2.8-123.1,76.4-123.1c87.6,0,71,128,73.5,127.9c2.4-0.1,352.7-3.6,354.6-5.5
				c1.9-2-12.6-126.7,82.9-123.3c68.9,2.4,65.3,108.3,68.9,108.4c3.6,0.1,69.4-9.3,75.3-11c5.9-1.8,14.5-20.9,15.1-22.5
				c0.6-1.6-1.3-6-1.3-6S1037.8,581.8,1037.8,568.9z M386.3,467.1c-2.6,1.1-96.7-3.3-124-4c-1,0,204.9-98.8,204.9-98.8l84.4-0.8
				C482.9,396.2,389.3,465.8,386.3,467.1z M879.8,451.4c-1.9,6.6-92,12.7-193.3,16.8c-18,0.8-36.3,1.4-54.6,2
				c-115.1,3.9-207.9,5-209.3,1.4c-2.1-5.4,130.2-107.4,160.6-111.6c30.4-4.1,91.9-3.3,145.5-1.8c53.2,1.5,69.3,3.2,91.4,14.7
				C839.6,383.1,883.3,439.4,879.8,451.4z"/>
			<path class="st8" d="M28.6,638.8c0,0,183.2,8.1,267.8,8.2c-3.5,19.3-4.2,34.1-5.3,34.5c-3.4,1.3-232.6-4.5-238.8-6.4
				c-6.2-1.9-26.2-22.4-26.2-22.4c-1.1-2-1-6.1-0.4-10.5c0.3-2,2.9-3.3,2.9-3.3L28.6,638.8z"/>
			<path class="st8" d="M797.1,642.8c-2.3,20.8-0.9,37.4-1.6,38.1c-1.9,2-352.1,5.4-354.6,5.5c-0.9,0,0.8-17.5-1.1-39.5
				c100.8-0.3,227.5-1,328.7-3.1C777.4,643.6,787,643.3,797.1,642.8z"/>
			<path class="st8" d="M1037.7,632.5c-0.6,1.7-9.2,20.8-15.1,22.5c-5.9,1.8-71.7,11.2-75.3,11c-1.4,0-1.7-15.7-5.5-35
				c53.4-5.5,94.6-10.7,94.6-10.7S1038.3,630.8,1037.7,632.5z"/>
			<path class="st5" d="M27.4,614.6c0,0,202.7,4.4,248.9,4.8c-0.5,1.9-1,3.7-1.5,5.5c-50.9-0.2-247-5.1-247-5.1s0,0,0,0
				C27.7,619.7,25.2,617.4,27.4,614.6z"/>
			<path class="st5" d="M435.3,618.8c125.3-0.8,305-2.3,367.2-3.8c-0.6,1.9-1.1,3.8-1.6,5.8c-68,1.8-241.7,2.9-364.4,3.6
				C436.1,622.4,435.7,620.6,435.3,618.8z"/>
			<path class="st5" d="M1013.6,604.3c-2.1,0.2-34.6,3.8-76.5,7.5c-0.6-2-1.3-3.9-2-5.9c42.3-3.8,76.8-7.5,78.5-7.9
				C1016.8,597.1,1017.5,603.9,1013.6,604.3z"/>
		</g>
		<g>
			<g class="st10">
				<path class="st7" d="M559.9,382c-1.3,0.5-2.5,1.1-3.9,1.7C557.4,383.1,558.7,382.5,559.9,382z"/>
			</g>
		</g>
		<path class="st14" d="M429.4,600.9c1.6,4,3.7,9.6,5.2,15.3c72.3-2.5,366.7-12.4,366.1-15.9C800,596.6,487.1,600,429.4,600.9z"/>
		<g>
			<path class="st7" d="M1010.3,477.8c5.6,1.7,16.4,18.6,16.9,21.9c0.5,3.3,1.3,24.9-1,27.8c-2.3,2.8-10,9.5-15.9,8.8
				c-5.9-0.7-42.8-20.3-45-23.3c-2.2-3-2-19.2,1.7-23.8C970.7,484.7,1003.2,475.6,1010.3,477.8z"/>
			<path class="st2" d="M965.3,513.1c2.2,3,39.2,22.6,45,23.3c4.5,0.5,10-3.3,13.4-6.4c-4.7,2.3-8.8,3-11.9,2.2
				c-3.1-0.8-38.5-17.8-41.5-21.9c-3-4.1-1.4-17.3-0.6-19.6c0.7-2.3,30.2-12.5,30.2-12.5c-13.3,1.3-30.5,8-33,11.1
				C963.3,493.9,963.1,510,965.3,513.1z"/>
		</g>
		<g>
			<g>
				<path class="st7" d="M295.8,559.7c-8.7,13.1-20.1,25.1-34.9,27.7c-17.4,3-70.8-0.3-73.9-2.2c-3-2,9.9-31.4,21.1-41.2
					c11.2-9.8,62.6-10.1,71-10.4C289.9,533.3,298.9,555.2,295.8,559.7z"/>
			</g>
			<path class="st7" d="M29.1,569.1c6.8,11.9,8.1,11,20,12.8c6.4,0.9,18.5,1.2,21-0.6s-1.9-38-6.4-43.1c-1.3-1.5-10.4-5.8-14.2-5.4
				C41,533.6,26.8,564.9,29.1,569.1z"/>
			<g>
				<path class="st5" d="M84.7,582.8c5.7,1.8,79.6,1.3,81.5,1.2c1.9-0.1,15.3-39.9,12.9-39.8c-2.4,0.1-100.4-1.5-101.8-0.6
					S83.1,582.3,84.7,582.8z"/>
				<path class="st13" d="M177.6,552.7c-0.3,1.2-0.7,2.4-1.1,3.7l-97.9-0.6c-0.2-1.3-0.4-2.5-0.6-3.7L177.6,552.7z M79.8,562.5
					c0.2,1.2,0.5,2.5,0.7,3.7l92.6,0.6c0.4-1.2,0.9-2.5,1.3-3.7L79.8,562.5z M81.9,573c0.3,1.3,0.6,2.6,0.9,3.7l86.5,0.6
					c0.5-1.1,0.9-2.4,1.4-3.7L81.9,573z"/>
			</g>
		</g>
		<g class="st10">
			<path d="M293.3,668.2c-1.4,9.8-1.4,13.1-2.2,13.4c-3.4,1.3-232.6-4.5-238.8-6.4c-6.2-1.9-26.2-22.4-26.2-22.4
				c0-0.1,38.4,11.9,66.1,13.1C96.2,666.1,278.1,668.4,293.3,668.2z"/>
			<path d="M796.3,651.5c-1.2,16.6-0.2,28.8-0.8,29.4c-1.9,2-352.1,5.5-354.6,5.5c-0.7,0,0.1-10.1-0.3-24
				C568.2,659.5,664.3,655.2,796.3,651.5z"/>
			<path d="M1037.7,632.5c-0.6,1.7-9.2,20.8-15.1,22.5c-5.9,1.8-71.7,11.2-75.3,11c-0.9,0-1-5.3-2.6-16.7c35-1.1,55.5-8.9,57.7-9.4
				c16.6-4.2,34.1-13.4,34.1-13.4S1038.3,630.8,1037.7,632.5z"/>
		</g>
		<g class="st13">
			<path d="M462.5,663.2c-0.9-38.9-1.5-79.2-1-118c-1-12.7-5.6-50.3-7-63.4c3,21.4,6.6,42.7,8.4,64.2
				C462.8,582.1,463.2,627.1,462.5,663.2L462.5,663.2z"/>
			<path d="M696.9,469.7c4,15,8,30,11,45.3c0.8,3.3,0.4,8.4,0.4,11.8c-0.5,31.1-1.5,74.4-2.5,105.6l-0.9,23.4l0.1-23.5
				c0.3-33.6,1.2-77.9,2.1-111.4c-0.2-9.6-3.2-19.1-5-28.5C702,492.5,696.9,469.7,696.9,469.7L696.9,469.7z"/>
			<path d="M872.4,453.9c4.1,16.3,8.9,32.5,11.4,49.2c-0.3,7.8-2.7,15.2-4.7,22.6c0,0-0.2,0.5-0.2,0.5l-0.5,0
				c-13.9,0.2-28,3.9-40.8,10.1c-42,19.7-58.9,67-59.4,115.4c-0.2-31.4,6.1-64.5,24.7-89c18.4-24.5,47.2-37.5,75.6-38
				c0,0-0.7,0.5-0.7,0.5c2-7.2,4.5-14.5,4.9-22.1C880.4,486.5,875.9,470.3,872.4,453.9L872.4,453.9z"/>
			<path d="M947.3,590.9c7.2-7.6,18.1-17.9,24.4-26.2c6.9-9.9,13.7-20.2,20.8-30.1c-6.3,10.6-12.6,21-19.5,31.2
				C965.5,575.5,956.4,583.4,947.3,590.9L947.3,590.9z"/>
			<path d="M639.9,511.6c1.2,3.2,2.7,6.4,5,8.7c0.8,0.8,1.6,0.8,2.7,0.8c8.4,0,16.9-0.3,25.2-1.1c1-0.1,2-0.2,2.9-0.6
				c2.3-2.2,3.6-5.7,5-8.7c-1,3.4-1.9,7.1-4.4,9.6c-0.5,0.3-1.2,0.5-1.7,0.7c-4.7,1.1-9.5,1.3-14.3,1.6c-4.8,0.1-9.6,0.5-14.4-0.4
				C642.2,520.4,640.9,515.5,639.9,511.6L639.9,511.6z"/>
			<path d="M639.5,505.5c0.4-3.6,1-7.7,3.7-10.1c1.2-0.6,2.2-0.7,3.3-1c6.5-1.1,13-1.3,19.5-0.9c2.2,0.2,4.3,0.3,6.5,1.2
				c2.2,1,3.8,2.7,5.3,4.5c1.4,1.9,2.8,3.8,3.5,6.1c-1-2.1-2.5-3.9-4-5.5c-3.1-3.7-7-4.6-11.3-4.6c-6.4-0.3-12.9-0.1-19.2,0.5
				c-1,0.1-2.2,0.3-3,0.6C641.3,498.4,640.3,502.3,639.5,505.5L639.5,505.5z"/>
			<path d="M640.8,505.1c-6.5,1.7-6.2,5.9,0.5,6.6c10.3,0.6,20.8-0.3,31.1-0.8c3-0.3,6.1,0,8.8-1.5c2-1.2,1.8-2.4-0.3-3.3
				c-4.8-1.6-10.2-1.2-15.2-1.6C657.4,504.4,649.1,503.9,640.8,505.1L640.8,505.1z M640.8,505.1c8.2-1.2,16.6-1.1,24.9-1.4
				c4.2,0,8.3-0.1,12.5,0.2c1.6,0.2,3.4,0.5,4.8,1.7c3.4,3.2-1.6,6.3-4.3,6.7c-8.5,0.8-16.6,0.6-25.1,0.5
				c-5.2-0.3-10.5,0.2-15.5-1.6C633.3,508.9,637.7,505.7,640.8,505.1L640.8,505.1z"/>
			<path d="M833.3,498.2c1.3,3.1,2.9,6.3,5.3,8.5c0.8,0.7,1.6,0.7,2.7,0.7c8.3-0.4,16.9-1.1,25.2-2.2c1-0.2,2-0.3,2.8-0.7
				c2.2-2.3,3.4-5.8,4.7-8.9c-0.9,3.5-1.7,7.1-4.1,9.8c-0.5,0.3-1.1,0.6-1.7,0.8c-4.7,1.3-9.5,1.8-14.2,2.2
				c-4.8,0.3-9.6,0.9-14.4,0.2C835.9,506.8,834.4,502.1,833.3,498.2L833.3,498.2z"/>
			<path d="M832.7,492.1c0.3-3.6,0.7-7.7,3.3-10.3c1.2-0.6,2.2-0.8,3.3-1.1c6.4-1.4,12.9-1.8,19.4-1.7c2.2,0.1,4.3,0.1,6.6,0.9
				c2.2,0.9,3.9,2.6,5.4,4.3c1.5,1.8,2.9,3.7,3.7,6c-1.1-2.1-2.6-3.8-4.2-5.3c-3.2-3.6-7.1-4.3-11.5-4.1c-6.4,0-12.8,0.4-19.2,1.4
				c-1,0.2-2.2,0.4-3,0.7C834.2,484.9,833.4,488.9,832.7,492.1L832.7,492.1z"/>
			<path d="M834,491.7c-6.4,2-6,6.2,0.7,6.6c10.3,0.2,20.8-1.3,31.1-2.1c3-0.4,6.1-0.2,8.8-1.9c2-1.3,1.7-2.5-0.4-3.3
				c-4.9-1.4-10.2-0.7-15.3-0.9C850.6,490.2,842.2,490.1,834,491.7L834,491.7z M834,491.7c8.2-1.6,16.6-1.9,24.9-2.5
				c4.2-0.2,8.3-0.5,12.5-0.4c1.6,0.1,3.4,0.4,4.8,1.5c3.5,3.1-1.4,6.3-4,6.9c-8.5,1.2-16.6,1.3-25.1,1.6
				c-5.2-0.1-10.5,0.6-15.6-0.9C826.6,495.8,830.9,492.4,834,491.7L834,491.7z"/>
		</g>
		<g>
			<g class="st12">
				<path class="st15" d="M865.5,442.5c-1.1,4.8-49.2,9-144.2,14.1c0.3-17.8,1.8-86.4,2.5-89.1c0.3-1.1,1.2-1.9,1.8-2.4
					c46.9,0.5,74.2,7.5,88.1,14.3C826.5,385.8,866.8,436.8,865.5,442.5z"/>
			</g>
			<g class="st16">
				<path class="st7" d="M747.1,365.9l69.4,84.6c19.4-1.6,33-3.2,40.9-4.8l-59.1-71.9h0C786.2,370.2,769.5,367.2,747.1,365.9z"/>
				<path class="st7" d="M685.3,365.3c0.7,0,1.4,0,2.1,0C686.7,365.3,686,365.3,685.3,365.3L685.3,365.3z"/>
				<path class="st7" d="M779.8,453.1c-1,0.1-2,0.1-3,0.2c-1.5,0.1-3.1,0.2-4.7,0.3c-3.5,0.2-7.1,0.5-10.8,0.7
					c-0.9,0.1-1.9,0.1-2.8,0.2l-36.1-44l-25.4-31c1.1-7.4,1.8-12.3,1.7-12.5c0-0.6-0.6-1.2-1.2-1.7c3.5,0,6.9-0.1,10.1-0.1L723,384
					L779.8,453.1z"/>
			</g>
			<g>
				<path class="st5" d="M820.2,373c-22.1-11.5-38.3-13.2-91.5-14.7c-53.6-1.5-115.1-2.3-145.5,1.8
					c-30.4,4.1-162.6,106.1-160.5,111.6c1.4,3.6,94.2,2.5,209.3-1.4c18.3-0.6,36.6-1.3,54.6-2c101.3-4.1,191.4-10.2,193.3-16.8
					C883.3,439.4,839.6,383.1,820.2,373z M696.9,379.4c-3.1,21.4-9.4,64-11.8,79c-2,0.1-4,0.2-6,0.3c-5.2,0.3-10.5,0.5-15.9,0.8
					c-8.8,0.4-17.3,0.8-25.5,1.2c-1.1,0.1-2.3,0.1-3.4,0.2c-0.9,0-1.8,0.1-2.8,0.1c-27.4,1.2-51.3,2.1-72,2.8c-1,0-1.9,0.1-2.9,0.1
					c-1.9,0.1-3.8,0.1-5.6,0.2c-0.9,0-1.8,0.1-2.8,0.1c-3.7,0.1-7.2,0.2-10.6,0.3c-4.5,0.1,10.5,0.2,6.4,0.3c-2.1,0-4.2,0.1-6.3,0.1
					c-14.5,0.3-26.2,0.5-35,0.5c-5.1,0-9.3,0-12.5,0c-0.5,0-1.1,0-1.6,0c-0.7,0-1.4,0-2-0.1c-1.1,0-2.1-0.1-2.8-0.1
					c-0.4,0-0.8,0-1-0.1c-0.5,0-0.7-0.1-0.8-0.1c-0.2-0.1-0.3-0.9-0.3-2.3c0-0.2,0-0.5,0-0.7c0-0.1,0-0.2,0-0.3
					c0-0.4,0.1-0.8,0.1-1.2c0-0.2,0-0.3,0-0.5c0-0.4,0.1-0.7,0.1-1.1c0.1-0.8,0.2-1.6,0.3-2.5c0-0.4,0.1-0.9,0.2-1.3
					c0.3-1.8,0.6-3.7,0.9-5.7c0.2-1,0.4-2,0.5-3c0.2-1,0.4-2,0.6-3c1.4-7,3-13.5,3.9-14.9c0.5-0.7,76.4-57.9,92.8-60.1
					c12-1.6,62.6-2.7,103.9-3.1c0.7,0,1.4,0,2.1,0c2.2,0,4.4,0,6.6-0.1c1.2,0,2.3,0,3.5,0c0,0,0,0,0,0c0.5,0.5,1.1,1.1,1.2,1.7
					C698.6,367.2,697.9,372.1,696.9,379.4z M865.5,442.5c-0.6,2.5-13.5,4.7-38.7,7.1c-0.2,0-0.4,0-0.5,0.1c-1.4,0.1-2.9,0.3-4.5,0.4
					c-1.1,0.1-2.3,0.2-3.5,0.3c-11,0.9-23.8,1.9-38.6,2.8c-1,0.1-2,0.1-3,0.2c-1.5,0.1-3.1,0.2-4.7,0.3c-3.5,0.2-7.1,0.5-10.8,0.7
					c-0.9,0.1-1.9,0.1-2.8,0.2c-11.5,0.7-23.8,1.4-37.1,2.1c0.1-8.3,0.5-27.6,1-46.1c0.2-9.5,0.5-18.9,0.7-26.4
					c0.3-9.2,0.6-15.7,0.8-16.5c0.3-1.1,1.2-1.9,1.8-2.4c7.7,0.1,14.8,0.3,21.4,0.7c1,0.1,2,0.1,2.9,0.2c1.1,0.1,2.2,0.2,3.2,0.2
					c2,0.2,4,0.3,5.9,0.5c0.6,0.1,1.2,0.1,1.8,0.2c1.3,0.1,2.5,0.2,3.7,0.4c0.9,0.1,1.8,0.2,2.6,0.3c0.3,0,0.6,0.1,0.9,0.1
					c1.2,0.2,2.3,0.3,3.4,0.5c6.2,0.8,11.8,1.9,16.8,3c0.9,0.2,1.7,0.4,2.5,0.6c1.3,0.3,2.5,0.6,3.7,0.9c0.6,0.2,1.3,0.3,1.9,0.5
					c0.6,0.2,1.2,0.3,1.7,0.5c0,0,0,0,0,0c6.3,1.8,11.4,3.8,15.4,5.7C826.5,385.8,866.8,436.8,865.5,442.5z"/>
			</g>
		</g>
		<path class="st17" d="M880.4,470.8c-167.1,19.1-336.3,26.3-504.2,29.4c-0.9,0-2.8,0.1-3.7,0.2c-0.1,0-4.5,1.3-4.8,1.4
			c-11.2,3.2-40.4,11-52,13.9c-54.3,0.2-121.5-0.2-176.1-0.8c0,0-58.7-0.9-58.7-0.9l58.7-0.9c54.1-0.5,123.3-1,175.8-0.7
			c14.4-3.6,43-10.8,57.2-14.1C541.7,495.1,712.1,489.3,880.4,470.8L880.4,470.8z"/>
		<g>
			<path class="st6" d="M482.3,500.5c2.5-4.3-3.5-36-6.3-38.1c-2.8-2.1-34.8,2.7-33.8,23.1C443.3,505.8,478.3,507.2,482.3,500.5z"/>
			<path class="st18" d="M482.3,500.5c2.5-4.3-3.5-36-6.3-38.1c-2.8-2.1-34.8,2.7-33.8,23.1C443.3,505.8,478.3,507.2,482.3,500.5z"
				/>
		</g>
		<g>
			<path class="st5" d="M276.6,452.7l9.7,0.1c0,0,10.7-5.5,11.7-5.5c1,0,23.7,0.4,26.4,0.4c2.7,0,3.9,5.7,3.9,5.7l22.5,0.1
				c0,0,4.4-5.6,7-5.5c2.6,0,34.1,0.5,37.1,0.6c3,0,4.6,5.7,4.6,5.7l0.5,0.3l-13.1,8.9l-123.6-2.8L276.6,452.7z"/>
			<path class="st5" d="M455.7,364.3c0,0-205.9,98.8-204.9,98.8c27.3,0.7,133,5.2,135.5,4c3-1.3,96.6-70.9,165.3-103.6L455.7,364.3z
				 M384.3,463.1c-2.2,1-94.9-2.9-118.8-3.5c-0.9,0,190.9-92.3,190.9-92.3h77.8C474,395.9,386.9,461.9,384.3,463.1z"/>
			<path class="st15" d="M534.2,367.3c-60.3,28.6-147.3,94.6-149.9,95.8c-2.2,1-94.9-2.9-118.8-3.5c-0.9,0,190.9-92.3,190.9-92.3
				H534.2z"/>
			<g class="st16">
				<path class="st7" d="M369,463.1c-7.5-0.2-17.1-0.5-27.5-0.9l-16.1-31.8c7-3.4,14.3-6.9,21.7-10.5L369,463.1z"/>
				<path class="st7" d="M496.2,387.9c-6.9,4.1-13.8,8.3-20.7,12.7l-16.9-33.3h27.1L496.2,387.9z"/>
				<path class="st7" d="M307.5,461c-10.1-0.4-19.7-0.7-27.6-1l-3.1-6.1c5.6-2.7,13.1-6.3,21.7-10.5L307.5,461z"/>
				<path class="st7" d="M416.7,440c-4,2.8-7.7,5.5-11.1,7.9l-22.9-45.1c4.1-2,8.2-3.9,12.1-5.9L416.7,440z"/>
				<path class="st7" d="M332.7,461.9c-1.3-0.1-2.7-0.1-4-0.1l-13.4-26.5c1.1-0.5,2.1-1,3.2-1.5L332.7,461.9z"/>
				<path class="st7" d="M508.1,381c-1,0.6-2.1,1.2-3.1,1.8l-7.9-15.4h4L508.1,381z"/>
			</g>
		</g>
	</g>
	<g class="st1">
		<path class="st7" d="M783.9,611c7-32.2,28.7-60.9,56.8-72.6c41.4-17.4,89.2-8,116.5,33c6.1,9.3,11.3,19.5,14.6,30.5
			c-7.9-21.1-21.3-39.8-38.5-52.1c-28-20-64.8-20.4-95.1-6.8C812.2,555.2,792.2,581,783.9,611L783.9,611z"/>
		<path class="st7" d="M281.6,612.9c5.9-31.8,25.6-61.7,53.4-73.4c39.3-16.2,80.8-3.8,104,36.1c5.3,9.1,9.8,18.9,12.5,29.4
			c-6.9-20-18.5-38.4-33.9-51.2c-23-19.5-54.9-21.9-81.6-11.1C308.7,553.8,289.3,582,281.6,612.9L281.6,612.9z"/>
		<g>
			<path class="st19" d="M842.3,481.1"/>
		</g>
		<g>
			<path class="st19" d="M483.4,504.5"/>
		</g>
	</g>
	<path class="st6" d="M582.1,349.7"/>
	<g>
		
			<rect x="692.6" y="342.2" transform="matrix(-1 -1.224647e-16 1.224647e-16 -1 1391.0984 693.762)" class="st5" width="6" height="9.3"/>
		
			<rect x="718.1" y="342.2" transform="matrix(-1 -1.224647e-16 1.224647e-16 -1 1442.0717 693.762)" class="st5" width="6" height="9.3"/>
		
			<rect x="551.7" y="342.2" transform="matrix(-1 -1.224647e-16 1.224647e-16 -1 1109.2778 693.762)" class="st5" width="6" height="9.3"/>
		
			<rect x="577.1" y="342.2" transform="matrix(-1 -1.224647e-16 1.224647e-16 -1 1160.2513 693.762)" class="st5" width="6" height="9.3"/>
		<g>
			<polygon class="st6" points="571.2,299.5 710,299.5 744.2,343.5 605.4,343.5 			"/>
			<polygon class="st17" points="571.2,299.5 710,299.5 744.2,343.5 605.4,343.5 			"/>
			<polygon class="st6" points="709.6,299.5 570.8,299.5 536.6,343.5 675.4,343.5 			"/>
			<polygon class="st20" points="709.6,299.5 570.8,299.5 536.6,343.5 675.4,343.5 			"/>
			<polygon class="st6" points="600.7,332.8 557.7,332.8 583.1,299.5 626.2,299.5 			"/>
			<polygon class="st5" points="601.3,320.5 596.2,327.2 573,327.2 590.6,304.3 598.6,304.3 586.2,320.5 			"/>
		</g>
	</g>
</g>
<g>
	<g>
		<g>
			<g>
				<g>
					<g>
						<path class="st21" d="M796.2,743.9c3.7,1.3,107.8-0.2,111.7-3.1c1.5-1.1,2.2-18.1,2.5-38.6c0-0.2,0-0.4,0-0.6
							c0.1-4.2,0.1-8.6,0.1-13c0-0.6,0-1.2,0-1.8l-5.1-60.5l-69.7,0.8l6.9,59.9l0.1,2.4l0.4,12.4l0,1.3c0,0-39.6,20.5-43.7,24.2
							C795.6,730.9,792.6,742.6,796.2,743.9z"/>
						<path class="st2" d="M796.2,743.9c3.7,1.3,107.8-0.2,111.7-3.1c1.5-1.1,2.2-18.1,2.5-38.6c0-0.2,0-0.4,0-0.6
							c0.1-4.2,0.1-8.6,0.1-13c0-0.6,0-1.2,0-1.8l-67.8,0.2l0.1,2.4l0.4,12.4l0,1.3c0,0-39.6,20.5-43.7,24.2
							C795.6,730.9,792.6,742.6,796.2,743.9z"/>
						<g>
							<path class="st22" d="M796.2,743.9c1.9,0.7,30.2,0.6,57.8,0c5.6-0.1,11.1-0.3,16.4-0.4c19.7-0.6,36-1.5,37.5-2.6
								c1.5-1.1,2.2-17.6,2.5-37.8c0-0.3,0-0.6,0-0.9c0-0.2,0-0.4,0-0.7h-0.1l-67.1,0.1l0,1.3c0,0-39.6,20.5-43.6,24.2
								C795.6,730.9,792.6,742.6,796.2,743.9z"/>
							<g>
								<g>
									<path class="st5" d="M797.3,739.4c17.5-0.7,88.4-1.9,105.8-1.1c0.1,0,0.1,0.1,0,0.1c-17.4,1.2-88.2,1.6-105.8,1.3
										C797,739.7,797,739.4,797.3,739.4z"/>
									<path class="st5" d="M835.8,702c6.9-1.5,15.4-0.5,20.7,5c0.2,0.2-0.1,0.5-0.3,0.5c-6.8-2.3-13.2-3.8-20.4-4.4
										C835.3,703,835.3,702.1,835.8,702z"/>
									<path class="st5" d="M830.8,705.5c6.9-1.5,15.4-0.5,20.7,5c0.2,0.2-0.1,0.5-0.3,0.5c-6.8-2.3-13.2-3.8-20.4-4.4
										C830.4,706.4,830.3,705.6,830.8,705.5z"/>
									<path class="st5" d="M825.9,708.9c6.9-1.5,15.4-0.5,20.7,5c0.2,0.2-0.1,0.5-0.3,0.5c-6.8-2.3-13.2-3.8-20.4-4.4
										C825.4,709.8,825.4,709,825.9,708.9z"/>
								</g>
							</g>
							<path class="st5" d="M854,743.9c5.6-0.1,11.1-0.3,16.4-0.4c19.7-0.6,36-1.5,37.5-2.6c1.5-1.1,2.2-17.6,2.5-37.8
								c0-0.3,0-0.6,0-0.9c0-0.2,0-0.4,0-0.7h-0.1C901.2,708.8,868.8,732.9,854,743.9z"/>
						</g>
					</g>
					<g>
						<path class="st5" d="M838.7,702h75c0,0-15.1-196.1-14.5-199.5c0.7-4.4,5.2-24.2,11.1-50.2c1.8-8.1,3.8-16.8,5.9-25.8
							c5.6-24.4,11.8-51,17.1-74.2c8.1-34.7,14.4-61.7,14.4-61.7h-63.6c0,0-7.4,26.3-16.7,60.5c-15.2,55.6-35.5,132.1-37.5,150.7
							C826.5,531.7,838.7,702,838.7,702z"/>
						<g>
							<g>
								<path class="st8" d="M842,687.6c11.5-0.3,8.2-0.4,19.6-0.5c5.6-0.1,42.4-0.4,47.7,0.6c0.1,0,0.1,0.2,0,0.3
									c-5.2,1-42.1,0.6-47.7,0.6c-11.5-0.1-8.2-0.2-19.6-0.5C841.8,688,841.8,687.7,842,687.6z"/>
							</g>
							<path class="st8" d="M885,490.5c2.5-12.1,6.1-24,9.3-35.9c6.5-24.2,13.1-48.4,19.6-72.6c3.3-12.1,6.6-24.2,9.9-36.3
								c1.7-6.1,3.4-12.2,5.1-18.3c1.7-6,3.6-11.9,5.1-17.9c0.6-2.4,0.9-1.1,0.2,2c-1.6,6.3-3.1,12.5-4.8,18.8
								c-3.2,12.4-6.5,24.7-9.8,37.1c-6.5,24.6-13.1,49.2-19.7,73.7c-3.3,12.3-6.6,24.6-9.9,36.9c-1.6,5.9-3.1,11.8-4.1,17.9
								c-1,6.3-1,12.7-0.7,19.1c0.7,12.8,2,25.7,3.1,38.5c1.1,12.8,2.1,25.7,3.2,38.5c2.1,25.6,4.2,51.1,6.3,76.7
								c0.3,3.2,0.5,6.5,0.7,9.7c0.1,1.1-0.6,1.2-0.7,0.2c-2.5-25.3-5.1-50.8-7.3-76.1c-2.1-25.2-4.2-50.4-6.3-75.5
								c-0.5-6.3-1.1-12.7-1.1-19C883.2,502.1,883.9,496.3,885,490.5z"/>
						</g>
					</g>
					<path class="st8" d="M891.3,290.5c4.4,38.2,12.8,109.8,19,161.8c14.3-63,37.4-161.8,37.4-161.8H891.3z"/>
				</g>
				<g>
					<g>
						<path class="st21" d="M875.7,745c3.6,1.3,107.8,0.2,111.7-2.6c1.5-1.1,2.3-18.1,2.6-38.6c0-0.2,0-0.4,0-0.6
							c0.1-4.2,0.1-8.6,0.2-13c0-0.6,0-1.2,0-1.8c0.2-29.7-1.7-60.5-1.7-60.5l-68.1,0.5l1.9,59.9l0.1,2.4l0.4,12.4l0,1.3
							c0,0-39.7,20.4-43.7,24C875.1,732,872,743.7,875.7,745z"/>
						<path class="st2" d="M875.7,745c3.6,1.3,107.8,0.2,111.7-2.6c1.5-1.1,2.3-18.1,2.6-38.6c0-0.2,0-0.4,0-0.6
							c0.1-4.2,0.1-8.6,0.2-13c0-0.6,0-1.2,0-1.8l-67.8-0.1l0.1,2.4l0.4,12.4l0,1.3c0,0-39.7,20.4-43.7,24
							C875.1,732,872,743.7,875.7,745z"/>
						<g>
							<path class="st22" d="M875.7,745c3.6,1.3,107.8,0.2,111.7-2.6c1.5-1.1,2.3-18.1,2.6-38.6c0-0.2,0-0.4,0-0.6l-67.2-0.1l0,1.3
								c0,0-39.7,20.4-43.7,24C875.1,732,872,743.7,875.7,745z"/>
							<g>
								<g>
									<path class="st5" d="M876.8,740.5c17.6-0.7,88.4-1.5,105.8-0.7c0.1,0,0.1,0.1,0,0.1c-17.4,1.1-88.2,1.3-105.8,0.9
										C876.4,740.8,876.4,740.5,876.8,740.5z"/>
									<path class="st5" d="M915.4,703.3c6.9-1.5,15.4-0.4,20.7,5c0.2,0.2-0.1,0.5-0.3,0.5c-6.8-2.3-13.2-3.8-20.4-4.5
										C914.9,704.2,914.9,703.4,915.4,703.3z"/>
									<path class="st5" d="M910.4,706.7c6.9-1.5,15.4-0.4,20.7,5c0.2,0.2-0.1,0.5-0.3,0.5c-6.8-2.3-13.2-3.8-20.4-4.5
										C909.9,707.7,909.9,706.8,910.4,706.7z"/>
									<path class="st5" d="M905.4,710.1c6.9-1.5,15.4-0.4,20.7,5c0.2,0.2-0.1,0.5-0.3,0.5c-6.8-2.3-13.2-3.8-20.4-4.5
										C905,711.1,904.9,710.3,905.4,710.1z"/>
								</g>
							</g>
						</g>
					</g>
					<g>
						<path class="st5" d="M886.1,290.5c0,0,1.5,34,8.4,61c0.6,2.2,1.2,4.4,1.8,6.5c0,0,7.2,2.9,18.3,10.5c0,0,0.7,27.4,1.5,57.9
							c0.8,34.1,1.7,72.2,1.5,80.3C917,537,921,703.2,921,703.2l75,0.3c0,0-13.6-185.6-13.5-196.6c0.1-17.8-3.6-96.4-6.5-153.8
							c-1.8-35.3-7-62.6-7-62.6H886.1z"/>
						<g>
							<path class="st8" d="M923.6,688.3c11.5-0.2,8.2-0.3,19.6-0.4c5.6,0,42.4-0.2,47.7,0.8c0.1,0,0.1,0.2,0,0.3
								c-5.2,0.9-42.1,0.4-47.7,0.3c-11.5-0.2-8.2-0.3-19.6-0.6C923.4,688.6,923.4,688.3,923.6,688.3z"/>
							<path class="st8" d="M966.4,302.7c1.4,46.8,2.8,93.6,4.7,140.4c1.9,47,11.7,215.1,14.3,241.2c0,0.2-0.2,0.2-0.2,0.1
								c-5.5-46.4-8.5-115.2-11.2-161.9c-2.7-46.7-4.5-93.5-5.9-140.3c-0.8-26.5-1.4-53-2.1-79.4
								C965.9,302.3,966.4,302.3,966.4,302.7z"/>
							<path class="st8" d="M893.2,356c7.5,3.3,14.6,7.9,21.4,12.6c0.3,0.2,0.1,0.7-0.2,0.5c-7.2-3.9-14.6-7.7-21.7-12.1
								C892.2,356.6,892.7,355.8,893.2,356z"/>
							<path class="st8" d="M892.8,327.1c0.5,3,1.1,5.9,1.7,8.9c0.5,2.8,0.9,5.6,1.6,8.4c0.6,2.7,1.7,5.1,3.5,7c1,1,2,1.9,3.1,2.8
								c0.6,0.5,1.2,1,1.7,1.5c-0.1-0.4-0.1-0.8-0.2-1.2c-0.2-1.1-0.3-2.3-0.5-3.4c-0.4-2.5-0.7-5-1.1-7.5c-0.7-4.9-1.3-10-2.2-14.9
								c0-0.2,0.2-0.3,0.3-0.1c1.1,4.9,2.3,9.7,3.3,14.6c0.5,2.4,2.1,14.3,2.2,15.1c0.1,0.9,0.1,1.7,0.2,2.6c0,0.9,0.2,1.8,0,2.7
								c0,0.2-0.3,0.2-0.4,0c0,0,0,0,0,0c-0.4-0.8-0.5-1.7-0.7-2.6c-0.2-0.8-0.4-1.7-0.5-2.6c0-0.3-0.1-0.6-0.1-0.9
								c-1-0.7-2-1.6-3-2.4c-1.1-0.9-2.1-1.7-3.1-2.6c-1.9-1.8-3.1-4-3.8-6.7c-0.7-2.8-1-5.7-1.2-8.5c-0.3-3.4-0.6-6.8-1-10.1
								C892.5,327,892.8,326.9,892.8,327.1z"/>
						</g>
					</g>
				</g>
			</g>
		</g>
	</g>
	<g>
		<g>
			<path class="st21" d="M906.6,209.3c-5.3,16.6-28.5,69.2-37.9,72.6c-9.8,3.6-47.4,7.5-55.5,0c-4-3.7-4.7-42.1,0.8-41.1
				c5.5,1.1,38.5,3.2,42.5,1.8c3.9-1.5,31.1-43.6,41.9-53.8C917,171.5,909.4,200.4,906.6,209.3z"/>
			<g>
				<path class="st6" d="M822.3,240.4l-0.4,47.8c0,0,38.4,1,48.8-4.7c10.4-5.8,33.1-60.5,38.9-81.6c5.8-21-2.8-24.5-16.8-9.3
					c-14.1,15.2-35.4,47.2-37.9,47.8C852.4,241.1,822.3,240.4,822.3,240.4z"/>
				<path class="st5" d="M833,264.3c0-3.8,0.1-18.9-0.1-22.7c0-0.1-0.1-0.1-0.1,0c-0.4,3.6-0.9,18.6-0.9,22.4
					c-0.1,7.6-0.3,15.2,0.3,22.7c0,0.1,0.2,0.2,0.2,0C833.1,279.3,832.9,271.8,833,264.3z"/>
				<path class="st10" d="M909.6,202c-5.8,21-28.5,75.8-38.9,81.6c-5,2.8-16.4,4-26.9,4.5l62.4-104.7
					C911.3,182.8,913.2,189.1,909.6,202z"/>
			</g>
		</g>
		<g>
			<g>
				<path class="st6" d="M874.3,322l100.8,0c0,0-17.1-98.2-51-134.3c-4.2-4.5-15.3-8.1-24.2,2.7C887.9,204.9,874.1,321.6,874.3,322z
					"/>
			</g>
		</g>
		<g>
			<polygon class="st5" points="908.8,209.9 903.5,203.9 899.2,211 901.6,216.5 907,216.1 			"/>
			<polygon class="st5" points="907,216.1 914.3,287.3 902.2,312.9 892.5,288.4 901.6,216.5 			"/>
		</g>
		<g>
			<g>
				<g>
					<path class="st11" d="M891.9,211c0,0,3-9-2.7-10.7c-5.6-1.8-7.3,7.6-7.3,7.6L891.9,211z"/>
					<g>
						<path class="st11" d="M865.9,272.2L865.9,272.2l1.7,9.2l0.6,3l1.9-2.2l5.7-6.8l0,0l0,0l16.2-64.7l-9.9-3.1L865.9,272.2
							C865.9,272.2,865.9,272.2,865.9,272.2z"/>
						<polygon class="st8" points="867.6,281.4 868.1,284.4 870.1,282.2 						"/>
					</g>
					<polygon class="st8" points="880.7,209.5 892.3,213.1 892.9,210.5 881.3,206.9 					"/>
					<polygon class="st8" points="880,212.3 891.6,215.9 892.2,213.4 880.6,209.7 					"/>
					<polygon class="st8" points="891.6,215.9 887.8,214.8 884,238.8 885.4,239.2 					"/>
				</g>
				<g>
					<path class="st21" d="M936.1,195.5c25.7,30,55,80.9,43.3,92.4c-10.7,10.5-40.8,4-66.3-6.3c-4.8-1.9,1.3-48.9,6.3-46.3
						c8.7,4.7,19.4,7.4,20,7.5c1.4,0.4-8.4-12.7-17.5-37.3C912.7,180.6,921.4,178.4,936.1,195.5z"/>
					<g>
						<path class="st21" d="M860.8,236.8c0.4,5.4,12.1,3.2,12.1,3.2s-2.7,2.2-3.2,5.7c-0.6,4,4.8,6.9,4.8,6.9s-2.3,2.8-2.5,6.6
							c-0.2,3.9,4.8,7.6,4.8,7.6s-0.8,4,1.1,7.4c3.2,5.8,12.7,5.1,18.6,6c6.3,0.9,16.1,1.2,20,2.7l6.7-45.7c0,0-26.2-15.5-33.2-14.5
							C884,223.5,860.3,228.6,860.8,236.8z"/>
						<g>
							<path class="st5" d="M873,239.8c6.1-2.6,12.8-3.6,19.2-4.4c0.1,0,0.2,0.2,0,0.2c-6.4,0.8-12.8,3.5-19.1,4.5
								C872.9,240.2,872.8,239.9,873,239.8z"/>
							<path class="st5" d="M874.6,252c1.4-0.5,2.9-0.6,4.4-0.7c1.6-0.1,3.2-0.2,4.7-0.3c3.2-0.1,6.3-0.2,9.5-0.1
								c0.1,0,0.2,0.2,0,0.2c-3.1,0.1-6.3,0.3-9.4,0.6c-1.6,0.1-3.1,0.3-4.7,0.5c-1.5,0.2-3,0.5-4.5,0.2
								C874.4,252.5,874.4,252.1,874.6,252z"/>
							<path class="st5" d="M876.9,266.8c1.2-0.5,2.7-0.4,4-0.4c1.4,0,2.9-0.1,4.3-0.1c2.9-0.1,5.8-0.2,8.6-0.4c0.1,0,0.2,0.2,0,0.2
								c-2.9,0.2-5.8,0.5-8.8,0.7c-1.4,0.1-2.9,0.2-4.3,0.2c-1.2,0.1-2.7,0.3-3.9-0.2C876.9,267,876.9,266.9,876.9,266.8z"/>
						</g>
					</g>
				</g>
				<g>
					<path class="st6" d="M925.4,233.4l-8.2,53.6c0,0,60,15.5,65.8-1.5c5.8-17.1-30.9-78.6-51.5-95.9
						c-20.6-17.2-12.4,10.7-11.7,12.9c3,9.9,16.3,35.6,16.3,35.6L925.4,233.4z"/>
					<g>
						<g>
							<g>
								<path class="st5" d="M926.4,233.4c6.9,2.5,25.1,11.9,29.1,15.9c0.1,0.1,0,0.3-0.1,0.2c-4-2.9-26.4-14.4-29.9-15.8
									c0,0-0.6,3.9-0.7,4c-0.1,0.2-0.2,0.1-0.2-0.1c0-0.1,0.4-4.8,0.4-4.9C925.1,232.9,925.6,233.2,926.4,233.4z"/>
							</g>
						</g>
						<path class="st5" d="M932.2,263.1c0.6-3.7,2.7-18.7,2.9-22.5c0-0.1-0.1-0.1-0.1,0c-0.9,3.5-3.4,18.2-3.9,22
							c-1.1,7.5-2.4,14.9-2.7,22.5c0,0.1,0.2,0.2,0.2,0.1C930.3,277.9,931.2,270.4,932.2,263.1z"/>
						<path class="st5" d="M936.5,238.4c-2-4.5-4.4-8.7-6.5-13.1c-2.2-4.4-4.4-8.7-6.4-13.1c0-0.1-0.1,0-0.1,0c1.2,3,2.5,6,3.8,9
							c-0.4-0.5-0.8-0.9-1.1-1.4c-0.7-0.9-1.3-1.8-1.9-2.8c0-0.1-0.1,0-0.1,0.1c0.5,1.1,1.1,2,1.7,3c0.5,0.7,1.1,1.3,1.6,1.9
							c0.5,1.2,1.1,2.4,1.7,3.6c2.1,4.4,3.8,8.8,6.6,12.8C935.9,238.6,936.6,238.6,936.5,238.4z"/>
						<path class="st5" d="M974,292c-16,2.4-50.1-3.7-56.7-5c0.1-0.8,0.2-2.5,0.3-3.6c0-0.1-0.2-0.2-0.2-0.1c-0.2,1-0.9,4.6-0.7,4.7
							c3.2,1.3,40.6,8.3,57.3,4.2C974.2,292.3,974.2,292,974,292z"/>
					</g>
				</g>
			</g>
		</g>
		<g>
			<g>
				<g>
					<polygon class="st6" points="885.4,289.3 830.3,301.9 815.6,221.6 870.7,209 					"/>
					<polygon class="st16" points="885.4,289.3 830.3,301.9 815.6,221.6 870.7,209 					"/>
					<polygon class="st6" points="883,289.8 827.9,302.5 813.2,222.2 868.3,209.5 					"/>
					<polygon class="st1" points="883,289.8 827.9,302.5 813.2,222.2 868.3,209.5 					"/>
				</g>
				<g>
					<polygon class="st4" points="854.9,217.6 828.8,223.5 827.2,214.6 853.3,208.7 					"/>
					<polygon class="st4" points="847.4,210.1 844.2,210.8 843.4,206.7 835.6,208.5 836.4,212.6 833.1,213.3 831.8,205.9 
						846.1,202.6 					"/>
				</g>
			</g>
			<g>
				<g>
					<path class="st21" d="M812.3,233.7c-2.1,6.6-8.1,15.1-8.2,20.3c-0.1,4.7,3.5,5.9,3.5,5.9s-4.3,3.1-3.7,7.8c0.3,2.4,4.1,4,4.1,4
						s-3.4,2.6-2.6,6.8c0.6,3.3,4.3,4.4,4.3,4.4s-2.2,4.2-0.6,7.4c3.3,6.4,29.1,3.5,32.2-7.7c1.4-5.2-4.9-4.1-4.9-4.1s8.7-4,8.3-10
						c-0.4-6-8.5-4-8.5-4s8.4-4,7.4-10.1c-1-6.4-8.8-2.9-8.8-2.9s5.4-5,3.6-9.5c-2.8-7.5-12.8,3.5-18.7,2.6l-4.1-10.1L812.3,233.7z"
						/>
					<path class="st21" d="M807.9,243.4c1.5-6.4-6.1-13.3-5.4-19.7c0.9-8.6,10.1-1.3,13.1,10.7l0.9,9.8L807.9,243.4z"/>
					<g>
						<path class="st5" d="M810.2,283.2c-0.1,0-0.1,0.1,0,0.2c8.7,1.4,18.7-0.2,26.5-4.8c0.3-0.2,0.1-0.7-0.2-0.6
							C827.6,281,819.5,283,810.2,283.2z"/>
						<path class="st5" d="M807.8,271.8c-0.1,0-0.1,0.2,0,0.2c9,1.3,20.2-0.7,28.6-7.3c0.3-0.2,0.3-0.8,0-0.5
							C830.5,268.1,816.3,271.7,807.8,271.8z"/>
						<path class="st5" d="M835.2,250.8c-8.3,5.9-17.5,8.3-27.2,9.2c-0.1,0-0.1,0.2,0,0.2c4.9,1,11-0.3,15.7-1.8
							c4.5-1.4,8.3-3.7,11.7-7.4C835.5,251,835.4,250.7,835.2,250.8z"/>
					</g>
				</g>
			</g>
		</g>
		<g>
			<g>
				<g>
					<path class="st21" d="M900.9,203.6c5.5,2.3,14.5-7.2,17.4-15.3c0.2-0.6-2.6-21.2-3-25.4c-0.1-0.9-22.8,9.4-22.8,9.4
						s3.2,8.5,3.9,15.8c0.1,0.6,0.1,1.2,0,1.7c0,0.1,0,0.2,0,0.3C896.2,193.4,898.1,202.4,900.9,203.6z"/>
				</g>
				<path class="st5" d="M896.4,190.1c0.8,0,1.6,0,2.4-0.2c12.3-1.9,15-19.3,15.6-26.9c-4.2,1.3-21.9,9.3-21.9,9.3s3.2,8.5,3.9,15.8
					c0.1,0.6,0.1,1.2,0,1.7C896.4,189.9,896.4,190,896.4,190.1z"/>
			</g>
			<g>
				<g>
					<path class="st21" d="M914,130c4.1,8.7,4.2,36.2-0.7,43.4c-7.1,10.4-20.8,14.1-29.3,4.1c-8.2-9.7-7.7-45.6-2.1-52.4
						C890.3,115.1,908.1,117.2,914,130z"/>
				</g>
				<g>
					<g>
						<path class="st5" d="M894.3,150.8c0-0.1,0.1,0.1,0.1,0.2c0,1.9,0.2,4,1.7,4.6c0,0,0,0.1,0,0.1
							C894.3,155.4,894,152.5,894.3,150.8z"/>
						<path class="st5" d="M895.8,148.8c2.7-0.3,2.9,5.7,0.5,6C893.8,155,893.5,149.1,895.8,148.8z"/>
					</g>
					<g>
						<path class="st5" d="M884.8,151.5c0-0.1-0.1,0.1-0.1,0.2c0.1,1.8,0,4-1.5,4.7c0,0,0,0.1,0,0.1
							C885,156.1,885.2,153.2,884.8,151.5z"/>
						<path class="st5" d="M883.2,149.7c-2.7-0.1-2.6,5.9-0.1,6C885.5,155.7,885.5,149.7,883.2,149.7z"/>
					</g>
					<path class="st5" d="M897.1,145.2c-0.8,0-1.4-0.1-2.2-0.2c-0.8-0.1-1.5,0-2.2-0.7c-0.4-0.3-0.4-1.1-0.2-1.5
						c0.6-1,1.6-1.2,2.7-1.1c1.1,0.1,1.9,0.4,2.8,1.2C898.8,143.7,898.1,145.2,897.1,145.2z"/>
					<path class="st5" d="M881.2,148.4c0.8,0,1.4-0.2,2.2-0.3c0.8-0.1,1.5-0.2,2.2-0.8c0.3-0.4,0.4-1.1,0.1-1.5
						c-0.6-1-1.7-1.1-2.7-1c-1.1,0.1-1.9,0.5-2.7,1.4C879.5,147,880.2,148.5,881.2,148.4z"/>
					<path class="st5" d="M897.2,167.9c-0.4,0.5-0.7,1.1-1.3,1.2c-0.6,0.1-1.3-0.2-1.8-0.4c-0.1,0-0.1,0-0.1,0.1
						c0.5,0.7,1.4,1.1,2.1,0.9c0.7-0.2,1.1-0.9,1.2-1.7C897.4,167.8,897.3,167.8,897.2,167.9z"/>
					<g>
						<g>
							<path class="st5" d="M895.2,162.4c-0.9,1.7-2.2,2.6-3.6,3c-0.7,0.2-1.3,0.2-2,0.2c-0.1,0-0.3,0-0.4,0c-0.1,0-0.2,0-0.4,0
								c-0.2,0-0.3-0.2-0.3-0.4l0,0c0-0.1,0-0.1,0-0.2c0,0,0,0,0,0l0-0.2c-0.1-1.4-0.1-3.6-0.1-3.6c-0.5,0.3-2.8,1.6-2.8,0.9
								c0.1-6.2,0.1-13.1,1.4-19.2c0-0.2,0.3-0.2,0.3,0c0.1,5.9-0.6,11.9-0.6,17.9c0.7-0.4,2-1,2.6-1c0.2,0-0.1,4.2,0,4.8
								c0,0,0,0,0,0.1c2.2,0.2,3.7-0.6,5.7-2.3C895.2,162.2,895.3,162.3,895.2,162.4z"/>
						</g>
					</g>
				</g>
				<path class="st23" d="M916.9,156c-0.3,7.5-1.5,14.3-3.6,17.4c-7,10.4-20.8,14.1-29.3,4.1c-2.8-3.4-4.6-9.8-5.5-17.1
					c3.3,5.9,8.3,0.3,8.3,0.3l2.9-0.4c3.8,4.7,12.1,2,15.9-2c2.8-2.9,3.8-11.7,3.8-11.7L916.9,156z"/>
				<path class="st5" d="M917.4,152.4c-3.4,1.6-6.8-2.6-8-5c-1.2-2.3-1.3-16.3-3.5-19.8c-2.2-3.4-6.1-4.9-8.9-3.5
					c-2.8,1.4-6,6.3-8.2,6.4c-2.2,0.1-3.3-5-4.8-4.8c-3.3,0.5-5.7,10.1-5.8,14.3c0,0-2.2-17.3,13.4-21.3
					c15.2-3.9,21.6,7.2,23.6,12.2C918.9,140.4,917.4,152.4,917.4,152.4z"/>
				<g>
					<path class="st6" d="M880.6,124.3c2.4-0.3,15.7,1.9,21.3,5.5c5.6,3.7,15.2,14.6,15.7,15.2s5.8-23.5-11.4-30.3
						C887.4,107.3,880.6,124.3,880.6,124.3z"/>
					<g>
						<path class="st6" d="M916.7,143.9c0,0-9.9-18.8-16-23.7c-6.1-4.8-20.4-9-29.9-5.7c-7.4,2.5,8.7,14.9,8.7,14.9s0.8-2.7,3.1-3.4
							c4.6-1.4,12.8,1.2,17.3,3.7C905.7,132.7,916.7,143.9,916.7,143.9z"/>
						<path class="st13" d="M916.7,143.9c0,0-9.9-18.8-16-23.7c-6.1-4.8-20.4-9-29.9-5.7c-7.4,2.5,8.7,14.9,8.7,14.9
							s0.8-2.7,3.1-3.4c4.6-1.4,12.8,1.2,17.3,3.7C905.7,132.7,916.7,143.9,916.7,143.9z"/>
					</g>
				</g>
				<g>
					<path class="st21" d="M910.6,152.1c0,0,3.9-9.7,7.8-8.3c3.8,1.4,1.9,14.7-1.9,17.3c-3.8,2.6-6-1.3-6-1.3L910.6,152.1z"/>
					<path class="st5" d="M917.8,147.6c0.1,0,0.1,0.1,0,0.1c-2.7,1.9-3.7,5.2-4.2,8.5c0.7-1.4,1.7-2.3,3.3-1.4c0.1,0,0,0.2,0,0.2
						c-1.2,0-2,0.4-2.7,1.6c-0.4,0.9-0.7,1.9-0.9,2.8c-0.1,0.3-0.6,0.3-0.5-0.1c0,0,0-0.1,0-0.1C912,155.2,913.9,148.8,917.8,147.6z
						"/>
				</g>
			</g>
			<g>
				<path class="st6" d="M895.9,186l7.6,14.5l13.8-23.2l5.2,6.1c0,0-11,32.4-11.3,31.1l-7.7-11.1l-6.4,10.4l-3.2-21.6L895.9,186z"/>
				<path class="st5" d="M895,203.2c-0.4-3.6-0.9-7.2-1.2-10.8c0-0.1,0.2-0.2,0.2-0.1c1.3,3.3,2.8,17,3.4,20.3c0,0,0,0,0,0
					c0.3-0.4,6-9.2,6.1-9.1c1.5,1.7,7.2,9.7,7.6,10.5c1.7-5.1,9.3-25.6,11.6-30.6c0.1-0.1,0.3-0.1,0.2,0.1
					c-1.4,5.3-11.1,32.2-11.3,32.2c-0.1,0.1-7.1-9.8-8.1-11.7c-0.9,1.8-6.5,11.5-6.6,11C896.1,211.4,895.4,206.8,895,203.2z"/>
			</g>
		</g>
	</g>
</g>
<g>
	<g>
		<polygon class="st6" points="514.5,723.4 432.2,723.4 467,553.5 479.7,553.5 		"/>
		<rect x="408.5" y="723.4" class="st6" width="129.8" height="22.2"/>
		<polygon class="st2" points="507.7,690 439,690 445.2,659.9 501.5,659.9 		"/>
		<polygon class="st2" points="491.2,609.5 455.5,609.5 461.7,579.3 485,579.3 		"/>
		<polygon class="st10" points="432.2,723.4 433.5,717.1 511.5,708.7 514.5,723.4 		"/>
	</g>
	<g>
		<polygon class="st6" points="124.7,723.4 42.4,723.4 77.2,553.5 90,553.5 		"/>
		<rect x="18.7" y="723.4" class="st6" width="129.8" height="22.2"/>
		<polygon class="st2" points="117.9,690 49.3,690 55.4,659.9 111.7,659.9 		"/>
		<polygon class="st2" points="101.4,609.5 65.8,609.5 71.9,579.3 95.3,579.3 		"/>
		<polygon class="st10" points="42.4,723.4 43.7,717.1 121.7,708.7 124.7,723.4 		"/>
	</g>
</g>
<g>
	<g>
		<path class="st7" d="M1018.2,88.7c-2.4,25.5-22.8,44.1-45.6,41.4c-9.2-1.1-17.4-5.5-23.8-12l-20.8,3.4l10.4-20.1
			c-2.5-6.9-3.6-14.5-2.8-22.4c2.4-25.5,22.8-44.1,45.6-41.4C1004,40.3,1020.6,63.2,1018.2,88.7z"/>
		<path class="st5" d="M1018.2,88.7c-0.9,8.5-3.6,16.8-8.4,23.6c-1.1,1.8-2.5,3.3-3.8,4.9c-1.4,1.4-2.8,3-4.4,4.2
			c-3,2.6-6.5,4.7-10,6.2c-3.6,1.7-7.4,2.5-11.2,3c-1.9,0.1-3.8,0.3-5.8,0.1c-1.9,0-3.8-0.3-5.7-0.7c-7.6-1.5-14.8-5.5-20.6-11.4
			l0.5,0.2l-20.8,3.6l-1.5,0.3l0.8-1.5l10.3-20.1l0,0.8c-5-13.3-3.9-29.1,2.6-41.4c3.2-6.2,7.7-11.5,13-15.5
			c5.3-4,11.4-6.5,17.7-7.4c6.3-0.9,12.8-0.3,18.8,1.9c6,2.3,11.5,6.1,16,11C1014.9,60.1,1019.5,74.7,1018.2,88.7z M1018.2,88.7
			c1.3-14-3.4-28.6-12.6-38.2c-4.6-4.8-10.1-8.5-16-10.6c-6-2.1-12.3-2.6-18.5-1.6c-6.1,1.1-12.1,3.6-17.2,7.6
			c-5.1,4-9.3,9.2-12.4,15.2c-3.1,6-4.8,12.8-5.3,19.7c-0.4,6.9,0.6,13.9,2.9,20.3l0.1,0.4l-0.2,0.4l-10.5,20.1l-0.7-1.2l20.8-3.3
			l0.3,0l0.2,0.2c5.5,5.8,12.5,9.8,19.9,11.5c1.9,0.4,3.7,0.7,5.6,0.8c1.9,0.2,3.8,0.1,5.7,0c3.8-0.4,7.6-1.1,11.1-2.7
			c3.6-1.5,7-3.4,10-6c1.6-1.2,2.9-2.7,4.4-4.1c1.3-1.6,2.7-3,3.8-4.8C1014.4,105.5,1017.3,97.2,1018.2,88.7z"/>
	</g>
	<polygon class="st6" points="972,110.4 954.3,90.3 960.2,83.7 970.6,95.4 992.1,57.7 999.2,62.7 	"/>
</g>
</svg>
