<?xml version="1.0" encoding="utf-8"?>
<!-- Generator: Adobe Illustrator 23.0.0, SVG Export Plug-In . SVG Version: 6.00 Build 0)  -->
<svg version="1.1" id="ff89978a-9cc6-4db0-9bd2-e66489869078"
	 xmlns="http://www.w3.org/2000/svg" xmlns:xlink="http://www.w3.org/1999/xlink" x="0px" y="0px" viewBox="0 0 1048.7 812.5"
	 style="enable-background:new 0 0 1048.7 812.5;" xml:space="preserve">
<style type="text/css">
	.st0{fill:#ECECEC;}
	.st1{fill:#DCDCDC;}
	.st2{fill:#A8A8A8;}
	.st3{fill:#C8C8C8;}
	.st4{fill:#FFFFFF;}
	.st5{fill:#FFC800;}
	.st6{fill:#1A2E35;}
	.st7{opacity:0.2;}
	.st8{opacity:0.1;}
	.st9{opacity:0.2;fill:#FFFFFF;}
	.st10{opacity:0.5;fill:#DCDCDC;}
	.st11{opacity:0.4;}
	.st12{opacity:0.3;}
	.st13{fill:#2B454E;}
	.st14{fill:#375A64;}
	.st15{fill:#C36358;}
	.st16{opacity:0.2;fill:#1A2E35;}
	.st17{fill:#FF9ABD;}
	.st18{opacity:0.6;}
	.st19{opacity:0.7;}
	.st20{opacity:0.7;fill:#FFC800;}
	.st21{opacity:0.7;fill:#C8C8C8;}
</style>
<g>
	<path class="st0" d="M508.5,166.4c11.5,0,205.3,1.3,217.5,0.9c0.9,0,1.3-1.3,0.5-1.7c-7.7-3.8-16.4-3-24.4-5.7
		c-4.7-1.6-7.6-4.7-10.8-8.2c-2.8-3-6.1-5.4-10.1-6.6c-3.5-1.1-7.4-1.2-11-0.3c-3.9,0.9-7.3,3.2-11.1,4.6c-9.3,3.5-18.4,0.2-25-6.7
		c-5.5-5.7-10.9-11-18.3-14.1c-6.2-2.6-13.2-3.1-19.4-0.3c-7.1,3.2-12,9.7-18.7,13.6c-7.9,4.6-17.4,3.5-26.1,4.9
		c-8.8,1.4-15.5,8.8-23.1,13c-2.6,1.5-5.3,2.7-8.4,2.6c-1.7,0-3.4-0.5-5.1-0.7c-2.6-0.3-5.1-0.3-6.9,2
		C507.7,164.1,507.8,166.4,508.5,166.4z"/>
	<path class="st0" d="M183.7,149.9c8.4,0,149.9,0.9,158.8,0.6c0.6,0,1-1,0.3-1.3c-5.6-2.8-12-2.2-17.8-4.2c-3.4-1.2-5.5-3.4-7.9-6
		c-2.1-2.2-4.4-3.9-7.4-4.8c-2.6-0.8-5.4-0.9-8-0.3c-2.9,0.7-5.4,2.3-8.1,3.4c-6.8,2.6-13.4,0.1-18.3-4.9c-4-4.1-7.9-8.1-13.4-10.3
		c-4.6-1.9-9.6-2.3-14.2-0.2c-5.2,2.4-8.8,7.1-13.6,9.9c-5.8,3.4-12.7,2.6-19.1,3.6c-6.4,1-11.3,6.4-16.9,9.5
		c-1.9,1.1-3.9,1.9-6.1,1.9c-1.3,0-2.5-0.4-3.7-0.5c-1.9-0.2-3.8-0.2-5.1,1.4C183.1,148.2,183.1,149.9,183.7,149.9z"/>
	<path class="st0" d="M122.1,311.6c8.4,0,149.9,0.9,158.8,0.6c0.6,0,1-1,0.3-1.3c-5.6-2.8-12-2.2-17.8-4.2c-3.4-1.2-5.5-3.4-7.9-6
		c-2.1-2.2-4.4-3.9-7.4-4.8c-2.6-0.8-5.4-0.9-8-0.3c-2.9,0.7-5.4,2.3-8.1,3.4c-6.8,2.6-13.4,0.1-18.3-4.9c-4-4.1-7.9-8.1-13.4-10.3
		c-4.6-1.9-9.6-2.3-14.2-0.2c-5.2,2.4-8.8,7.1-13.6,9.9c-5.8,3.4-12.7,2.6-19.1,3.6c-6.4,1-11.3,6.4-16.9,9.5
		c-1.9,1.1-3.9,1.9-6.1,1.9c-1.3,0-2.5-0.4-3.7-0.5c-1.9-0.2-3.8-0.2-5.1,1.4C121.5,309.9,121.5,311.6,122.1,311.6z"/>
	<path class="st0" d="M679.5,351.3c8.4,0,297.5,71.8,306.4,71.5c0.6,0,1-1,0.3-1.3c-5.6-2.8-12-2.2-17.8-4.2c-3.4-1.2-5.5-3.4-7.9-6
		c-2.1-2.2-152-74.8-154.9-75.7c-2.6-0.8-5.4-0.9-8-0.3c-2.9,0.7-5.4,2.3-8.1,3.4c-6.8,2.6-13.4,0.1-18.3-4.9
		c-4-4.1-7.9-8.1-13.4-10.3c-4.6-1.9-9.6-2.3-14.2-0.2c-5.2,2.4-8.8,7.1-13.6,9.9c-5.8,3.4-12.7,2.6-19.1,3.6
		c-6.4,1-11.3,6.4-16.9,9.5c-1.9,1.1-3.9,1.9-6.1,1.9c-1.3,0-2.5-0.4-3.7-0.5c-1.9-0.2-3.8-0.2-5.1,1.4
		C678.9,349.6,679,351.3,679.5,351.3z"/>
	<path class="st0" d="M626.1,241.5c8.4,0,149.9,0.9,158.8,0.6c0.6,0,1-1,0.3-1.3c-5.6-2.8-12-2.2-17.8-4.2c-3.4-1.2-5.5-3.4-7.9-6
		c-2.1-2.2-4.4-3.9-7.4-4.8c-2.6-0.8-5.4-0.9-8-0.3c-2.9,0.7-5.4,2.3-8.1,3.4c-6.8,2.6-13.4,0.1-18.3-4.9c-4-4.1-7.9-8.1-13.4-10.3
		c-4.6-1.9-9.6-2.3-14.2-0.2c-5.2,2.4-8.8,7.1-13.6,9.9c-5.8,3.4-12.7,2.6-19.1,3.6c-6.4,1-11.3,6.4-16.9,9.5
		c-1.9,1.1-3.9,1.9-6.1,1.9c-1.3,0-2.5-0.4-3.7-0.5c-1.9-0.2-3.8-0.2-5.1,1.4C625.5,239.9,625.6,241.5,626.1,241.5z"/>
	<path class="st0" d="M229.5,216.4c0.2,0.5,223,0,220.2,0c-1.3,0,1.9-1.9,0.7-2.5c-7.3-3.6-15.2-3.7-23.1-4.4
		c-4.6-0.4-9.3-1.1-13.5-3.3c-4.2-2.2-6.8-6-9.8-9.5c-9.2-10.9-23.9-16.6-38.1-14.4c-15.8,2.5-28.3,14.6-44.2,16.8
		c-9.5,1.3-18.6-2.4-27.9-3.7c-7.7-1.1-14.1,0.4-20.9,3.8c-5,2.5-9.7,4.6-15.4,5c-4.4,0.3-8.7-0.2-13.1-0.2c-7-0.1-13.9,3-19.3,7.7
		C224.5,212.2,222.2,216.4,229.5,216.4z"/>
</g>
<g>
	<g>
		<g>
			<polygon class="st1" points="992.8,218.9 790,148 790,437.5 992.8,508.4 			"/>
			<g>
				<rect x="798.6" y="157.4" class="st0" width="10.7" height="11.1"/>
				<rect x="790.7" y="211.4" class="st0" width="8.6" height="8.9"/>
				<rect x="798.6" y="176.2" class="st0" width="10.7" height="11.1"/>
				<rect x="790.7" y="226.5" class="st0" width="8.6" height="8.9"/>
				<rect x="798.6" y="195" class="st0" width="10.7" height="11.1"/>
				<rect x="790.7" y="241.5" class="st0" width="8.6" height="8.9"/>
				<rect x="798.6" y="213.7" class="st0" width="10.7" height="11.1"/>
				<rect x="790.7" y="256.5" class="st0" width="8.6" height="8.9"/>
				<rect x="798.6" y="232.5" class="st0" width="10.7" height="11.1"/>
				<rect x="790.7" y="271.6" class="st0" width="8.6" height="8.9"/>
				<rect x="798.6" y="251.3" class="st0" width="10.7" height="11.1"/>
				<rect x="790.7" y="286.6" class="st0" width="8.6" height="8.9"/>
				<rect x="798.6" y="270" class="st0" width="10.7" height="11.1"/>
				<rect x="790.7" y="301.7" class="st0" width="8.6" height="8.9"/>
				<rect x="798.6" y="288.8" class="st0" width="10.7" height="11.1"/>
				<rect x="790.7" y="316.7" class="st0" width="8.6" height="8.9"/>
				<rect x="798.6" y="307.6" class="st0" width="10.7" height="11.1"/>
				<rect x="790.7" y="331.8" class="st0" width="8.6" height="8.9"/>
				<rect x="798.6" y="326.3" class="st0" width="10.7" height="11.1"/>
				<rect x="790.7" y="346.8" class="st0" width="8.6" height="8.9"/>
				<rect x="798.6" y="345.1" class="st0" width="10.7" height="11.1"/>
				<rect x="790.7" y="361.9" class="st0" width="8.6" height="8.9"/>
				<rect x="798.6" y="363.9" class="st0" width="10.7" height="11.1"/>
				<rect x="790.7" y="376.9" class="st0" width="8.6" height="8.9"/>
				<rect x="798.6" y="382.6" class="st0" width="10.7" height="11.1"/>
				<rect x="790.7" y="391.9" class="st0" width="8.6" height="8.9"/>
				<rect x="798.6" y="401.4" class="st0" width="10.7" height="11.1"/>
				
					<rect x="801.7" y="407" transform="matrix(-1 -1.224647e-16 1.224647e-16 -1 1611.912 822.8397)" class="st0" width="8.6" height="8.9"/>
				
					<rect x="801.7" y="391.9" transform="matrix(-1 -1.224647e-16 1.224647e-16 -1 1611.912 792.7512)" class="st0" width="8.6" height="8.9"/>
				
					<rect x="801.7" y="376.9" transform="matrix(-1 -1.224647e-16 1.224647e-16 -1 1611.912 762.6626)" class="st0" width="8.6" height="8.9"/>
				
					<rect x="801.7" y="361.9" transform="matrix(-1 -1.224647e-16 1.224647e-16 -1 1611.912 732.5744)" class="st0" width="8.6" height="8.9"/>
				
					<rect x="801.7" y="346.8" transform="matrix(-1 -1.224647e-16 1.224647e-16 -1 1611.912 702.4858)" class="st0" width="8.6" height="8.9"/>
				
					<rect x="801.7" y="331.8" transform="matrix(-1 -1.224647e-16 1.224647e-16 -1 1611.912 672.3972)" class="st0" width="8.6" height="8.9"/>
				
					<rect x="801.7" y="316.7" transform="matrix(-1 -1.224647e-16 1.224647e-16 -1 1611.912 642.3086)" class="st0" width="8.6" height="8.9"/>
				
					<rect x="801.7" y="301.7" transform="matrix(-1 -1.224647e-16 1.224647e-16 -1 1611.912 612.2203)" class="st0" width="8.6" height="8.9"/>
				
					<rect x="801.7" y="286.6" transform="matrix(-1 -1.224647e-16 1.224647e-16 -1 1611.912 582.1319)" class="st0" width="8.6" height="8.9"/>
				
					<rect x="801.7" y="271.6" transform="matrix(-1 -1.224647e-16 1.224647e-16 -1 1611.912 552.0433)" class="st0" width="8.6" height="8.9"/>
				
					<rect x="801.7" y="256.5" transform="matrix(-1 -1.224647e-16 1.224647e-16 -1 1611.912 521.9548)" class="st0" width="8.6" height="8.9"/>
				
					<rect x="801.7" y="241.5" transform="matrix(-1 -1.224647e-16 1.224647e-16 -1 1611.912 491.8664)" class="st0" width="8.6" height="8.9"/>
				
					<rect x="801.7" y="226.5" transform="matrix(-1 -1.224647e-16 1.224647e-16 -1 1611.912 461.7779)" class="st0" width="8.6" height="8.9"/>
				
					<rect x="801.7" y="211.4" transform="matrix(-1 -1.224647e-16 1.224647e-16 -1 1611.912 431.6893)" class="st0" width="8.6" height="8.9"/>
				<rect x="790.7" y="407" class="st0" width="8.6" height="8.9"/>
			</g>
		</g>
		<g>
			<rect x="817.1" y="203.9" class="st2" width="34.9" height="232.1"/>
			<g>
				
					<rect x="841.3" y="407" transform="matrix(-1 -1.224647e-16 1.224647e-16 -1 1689.7679 822.8397)" class="st3" width="7.1" height="8.9"/>
				
					<rect x="832.2" y="407" transform="matrix(-1 -1.224647e-16 1.224647e-16 -1 1671.5853 822.8397)" class="st3" width="7.1" height="8.9"/>
				
					<rect x="841.3" y="391.9" transform="matrix(-1 -1.224647e-16 1.224647e-16 -1 1689.7679 792.7512)" class="st3" width="7.1" height="8.9"/>
				
					<rect x="832.2" y="391.9" transform="matrix(-1 -1.224647e-16 1.224647e-16 -1 1671.5853 792.7512)" class="st3" width="7.1" height="8.9"/>
				
					<rect x="841.3" y="376.9" transform="matrix(-1 -1.224647e-16 1.224647e-16 -1 1689.7679 762.6626)" class="st3" width="7.1" height="8.9"/>
				
					<rect x="832.2" y="376.9" transform="matrix(-1 -1.224647e-16 1.224647e-16 -1 1671.5853 762.6626)" class="st3" width="7.1" height="8.9"/>
				
					<rect x="841.3" y="361.9" transform="matrix(-1 -1.224647e-16 1.224647e-16 -1 1689.7679 732.5744)" class="st3" width="7.1" height="8.9"/>
				
					<rect x="832.2" y="361.9" transform="matrix(-1 -1.224647e-16 1.224647e-16 -1 1671.5853 732.5744)" class="st3" width="7.1" height="8.9"/>
				
					<rect x="841.3" y="346.8" transform="matrix(-1 -1.224647e-16 1.224647e-16 -1 1689.7679 702.4858)" class="st3" width="7.1" height="8.9"/>
				
					<rect x="832.2" y="346.8" transform="matrix(-1 -1.224647e-16 1.224647e-16 -1 1671.5853 702.4858)" class="st3" width="7.1" height="8.9"/>
				
					<rect x="841.3" y="331.8" transform="matrix(-1 -1.224647e-16 1.224647e-16 -1 1689.7679 672.3972)" class="st3" width="7.1" height="8.9"/>
				
					<rect x="832.2" y="331.8" transform="matrix(-1 -1.224647e-16 1.224647e-16 -1 1671.5853 672.3972)" class="st3" width="7.1" height="8.9"/>
				
					<rect x="841.3" y="316.7" transform="matrix(-1 -1.224647e-16 1.224647e-16 -1 1689.7679 642.3086)" class="st3" width="7.1" height="8.9"/>
				
					<rect x="832.2" y="316.7" transform="matrix(-1 -1.224647e-16 1.224647e-16 -1 1671.5853 642.3086)" class="st3" width="7.1" height="8.9"/>
				
					<rect x="841.3" y="301.7" transform="matrix(-1 -1.224647e-16 1.224647e-16 -1 1689.7679 612.2203)" class="st3" width="7.1" height="8.9"/>
				
					<rect x="832.2" y="301.7" transform="matrix(-1 -1.224647e-16 1.224647e-16 -1 1671.5853 612.2203)" class="st3" width="7.1" height="8.9"/>
				
					<rect x="841.3" y="286.6" transform="matrix(-1 -1.224647e-16 1.224647e-16 -1 1689.7679 582.1319)" class="st3" width="7.1" height="8.9"/>
				
					<rect x="832.2" y="286.6" transform="matrix(-1 -1.224647e-16 1.224647e-16 -1 1671.5853 582.1319)" class="st3" width="7.1" height="8.9"/>
				
					<rect x="841.3" y="271.6" transform="matrix(-1 -1.224647e-16 1.224647e-16 -1 1689.7679 552.0433)" class="st3" width="7.1" height="8.9"/>
				
					<rect x="832.2" y="271.6" transform="matrix(-1 -1.224647e-16 1.224647e-16 -1 1671.5853 552.0433)" class="st3" width="7.1" height="8.9"/>
				
					<rect x="841.3" y="256.5" transform="matrix(-1 -1.224647e-16 1.224647e-16 -1 1689.7679 521.9548)" class="st3" width="7.1" height="8.9"/>
				
					<rect x="832.2" y="256.5" transform="matrix(-1 -1.224647e-16 1.224647e-16 -1 1671.5853 521.9548)" class="st3" width="7.1" height="8.9"/>
				
					<rect x="841.3" y="241.5" transform="matrix(-1 -1.224647e-16 1.224647e-16 -1 1689.7679 491.8664)" class="st3" width="7.1" height="8.9"/>
				
					<rect x="832.2" y="241.5" transform="matrix(-1 -1.224647e-16 1.224647e-16 -1 1671.5853 491.8664)" class="st3" width="7.1" height="8.9"/>
				
					<rect x="841.3" y="226.5" transform="matrix(-1 -1.224647e-16 1.224647e-16 -1 1689.7679 461.7779)" class="st3" width="7.1" height="8.9"/>
				
					<rect x="832.2" y="226.5" transform="matrix(-1 -1.224647e-16 1.224647e-16 -1 1671.5853 461.7779)" class="st3" width="7.1" height="8.9"/>
				
					<rect x="841.3" y="211.4" transform="matrix(-1 -1.224647e-16 1.224647e-16 -1 1689.7679 431.6893)" class="st3" width="7.1" height="8.9"/>
				<rect x="823.2" y="211.4" class="st3" width="7.1" height="8.9"/>
				<rect x="823.2" y="226.5" class="st3" width="7.1" height="8.9"/>
				<rect x="823.2" y="241.5" class="st3" width="7.1" height="8.9"/>
				<rect x="823.2" y="256.5" class="st3" width="7.1" height="8.9"/>
				<rect x="823.2" y="271.6" class="st3" width="7.1" height="8.9"/>
				<rect x="823.2" y="286.6" class="st3" width="7.1" height="8.9"/>
				<rect x="823.2" y="301.7" class="st3" width="7.1" height="8.9"/>
				<rect x="823.2" y="316.7" class="st3" width="7.1" height="8.9"/>
				<rect x="823.2" y="331.8" class="st3" width="7.1" height="8.9"/>
				<rect x="823.2" y="346.8" class="st3" width="7.1" height="8.9"/>
				<rect x="823.2" y="361.9" class="st3" width="7.1" height="8.9"/>
				<rect x="823.2" y="376.9" class="st3" width="7.1" height="8.9"/>
				<rect x="823.2" y="391.9" class="st3" width="7.1" height="8.9"/>
				<rect x="823.2" y="407" class="st3" width="7.1" height="8.9"/>
				
					<rect x="832.2" y="211.4" transform="matrix(-1 -1.224647e-16 1.224647e-16 -1 1671.5853 431.6893)" class="st3" width="7.1" height="8.9"/>
			</g>
		</g>
	</g>
	<g>
		<g>
			<g>
				<rect x="73.5" y="148.4" class="st0" width="66.5" height="289.2"/>
				<rect x="71.9" y="142.6" class="st3" width="68.1" height="5.8"/>
				<g>
					<rect x="79.5" y="156.8" class="st4" width="6.7" height="280.7"/>
					<rect x="91.4" y="156.8" class="st4" width="6.7" height="280.7"/>
					<rect x="103.3" y="156.8" class="st4" width="6.7" height="280.7"/>
					<rect x="115.3" y="156.8" class="st4" width="6.7" height="280.7"/>
					<rect x="127.2" y="156.8" class="st4" width="6.7" height="280.7"/>
					<g>
						<rect x="79.5" y="164.1" class="st0" width="6.7" height="11.4"/>
						<rect x="91.4" y="164.1" class="st0" width="6.7" height="11.4"/>
						<rect x="103.3" y="164.1" class="st0" width="6.7" height="11.4"/>
						<rect x="115.3" y="164.1" class="st0" width="6.7" height="11.4"/>
						<rect x="127.2" y="164.1" class="st0" width="6.7" height="11.4"/>
					</g>
					<g>
						<rect x="79.5" y="182.6" class="st0" width="6.7" height="11.4"/>
						<rect x="91.4" y="182.6" class="st0" width="6.7" height="11.4"/>
						<rect x="103.3" y="182.6" class="st0" width="6.7" height="11.4"/>
						<rect x="115.3" y="182.6" class="st0" width="6.7" height="11.4"/>
						<rect x="127.2" y="182.6" class="st0" width="6.7" height="11.4"/>
					</g>
					<g>
						<rect x="79.5" y="201.1" class="st0" width="6.7" height="11.4"/>
						<rect x="91.4" y="201.1" class="st0" width="6.7" height="11.4"/>
						<rect x="103.3" y="201.1" class="st0" width="6.7" height="11.4"/>
						<rect x="115.3" y="201.1" class="st0" width="6.7" height="11.4"/>
						<rect x="127.2" y="201.1" class="st0" width="6.7" height="11.4"/>
					</g>
					<g>
						<rect x="79.5" y="219.5" class="st0" width="6.7" height="11.4"/>
						<rect x="91.4" y="219.5" class="st0" width="6.7" height="11.4"/>
						<rect x="103.3" y="219.5" class="st0" width="6.7" height="11.4"/>
						<rect x="115.3" y="219.5" class="st0" width="6.7" height="11.4"/>
						<rect x="127.2" y="219.5" class="st0" width="6.7" height="11.4"/>
					</g>
					<g>
						<rect x="79.5" y="238" class="st0" width="6.7" height="11.4"/>
						<rect x="91.4" y="238" class="st0" width="6.7" height="11.4"/>
						<rect x="103.3" y="238" class="st0" width="6.7" height="11.4"/>
						<rect x="115.3" y="238" class="st0" width="6.7" height="11.4"/>
						<rect x="127.2" y="238" class="st0" width="6.7" height="11.4"/>
					</g>
					<g>
						<rect x="79.5" y="256.5" class="st0" width="6.7" height="11.4"/>
						<rect x="91.4" y="256.5" class="st0" width="6.7" height="11.4"/>
						<rect x="103.3" y="256.5" class="st0" width="6.7" height="11.4"/>
						<rect x="115.3" y="256.5" class="st0" width="6.7" height="11.4"/>
						<rect x="127.2" y="256.5" class="st0" width="6.7" height="11.4"/>
					</g>
					<g>
						<rect x="79.5" y="275" class="st0" width="6.7" height="11.4"/>
						<rect x="91.4" y="275" class="st0" width="6.7" height="11.4"/>
						<rect x="103.3" y="275" class="st0" width="6.7" height="11.4"/>
						<rect x="115.3" y="275" class="st0" width="6.7" height="11.4"/>
						<rect x="127.2" y="275" class="st0" width="6.7" height="11.4"/>
					</g>
					<g>
						<rect x="79.5" y="293.4" class="st0" width="6.7" height="11.4"/>
						<rect x="91.4" y="293.4" class="st0" width="6.7" height="11.4"/>
						<rect x="103.3" y="293.4" class="st0" width="6.7" height="11.4"/>
						<rect x="115.3" y="293.4" class="st0" width="6.7" height="11.4"/>
						<rect x="127.2" y="293.4" class="st0" width="6.7" height="11.4"/>
					</g>
					<g>
						<rect x="79.5" y="311.9" class="st0" width="6.7" height="11.4"/>
						<rect x="91.4" y="311.9" class="st0" width="6.7" height="11.4"/>
						<rect x="103.3" y="311.9" class="st0" width="6.7" height="11.4"/>
						<rect x="115.3" y="311.9" class="st0" width="6.7" height="11.4"/>
						<rect x="127.2" y="311.9" class="st0" width="6.7" height="11.4"/>
					</g>
					<g>
						<rect x="79.5" y="330.4" class="st0" width="6.7" height="11.4"/>
						<rect x="91.4" y="330.4" class="st0" width="6.7" height="11.4"/>
						<rect x="103.3" y="330.4" class="st0" width="6.7" height="11.4"/>
						<rect x="115.3" y="330.4" class="st0" width="6.7" height="11.4"/>
						<rect x="127.2" y="330.4" class="st0" width="6.7" height="11.4"/>
					</g>
					<g>
						<rect x="79.5" y="348.8" class="st0" width="6.7" height="11.4"/>
						<rect x="91.4" y="348.8" class="st0" width="6.7" height="11.4"/>
						<rect x="103.3" y="348.8" class="st0" width="6.7" height="11.4"/>
						<rect x="115.3" y="348.8" class="st0" width="6.7" height="11.4"/>
						<rect x="127.2" y="348.8" class="st0" width="6.7" height="11.4"/>
					</g>
					<g>
						<rect x="79.5" y="367.3" class="st0" width="6.7" height="11.4"/>
						<rect x="91.4" y="367.3" class="st0" width="6.7" height="11.4"/>
						<rect x="103.3" y="367.3" class="st0" width="6.7" height="11.4"/>
						<rect x="115.3" y="367.3" class="st0" width="6.7" height="11.4"/>
						<rect x="127.2" y="367.3" class="st0" width="6.7" height="11.4"/>
					</g>
					<g>
						<rect x="79.5" y="385.8" class="st0" width="6.7" height="11.4"/>
						<rect x="91.4" y="385.8" class="st0" width="6.7" height="11.4"/>
						<rect x="103.3" y="385.8" class="st0" width="6.7" height="11.4"/>
						<rect x="115.3" y="385.8" class="st0" width="6.7" height="11.4"/>
						<rect x="127.2" y="385.8" class="st0" width="6.7" height="11.4"/>
					</g>
					<g>
						<rect x="79.5" y="404.3" class="st0" width="6.7" height="33.2"/>
						<rect x="91.4" y="404.3" class="st0" width="6.7" height="33.2"/>
						<rect x="103.3" y="404.3" class="st0" width="6.7" height="33.2"/>
						<rect x="115.3" y="404.3" class="st0" width="6.7" height="33.2"/>
						<rect x="127.2" y="404.3" class="st0" width="6.7" height="33.2"/>
					</g>
				</g>
			</g>
		</g>
		<g>
			<g>
				<rect x="139.9" y="148.4" class="st1" width="42.7" height="289.2"/>
				<rect x="139.9" y="142.6" class="st3" width="44.5" height="5.8"/>
				<g>
					<rect x="145.9" y="156.8" class="st3" width="6.7" height="280.7"/>
					<rect x="157.9" y="156.8" class="st3" width="6.7" height="280.7"/>
					<rect x="169.8" y="156.8" class="st3" width="6.7" height="280.7"/>
					<g>
						<rect x="145.9" y="164.1" class="st1" width="6.7" height="11.4"/>
						<rect x="157.9" y="164.1" class="st1" width="6.7" height="11.4"/>
						<rect x="169.8" y="164.1" class="st1" width="6.7" height="11.4"/>
					</g>
					<g>
						<rect x="145.9" y="182.6" class="st1" width="6.7" height="11.4"/>
						<rect x="157.9" y="182.6" class="st1" width="6.7" height="11.4"/>
						<rect x="169.8" y="182.6" class="st1" width="6.7" height="11.4"/>
					</g>
					<g>
						<rect x="145.9" y="201.1" class="st1" width="6.7" height="11.4"/>
						<rect x="157.9" y="201.1" class="st1" width="6.7" height="11.4"/>
						<rect x="169.8" y="201.1" class="st1" width="6.7" height="11.4"/>
					</g>
					<g>
						<rect x="145.9" y="219.5" class="st1" width="6.7" height="11.4"/>
						<rect x="157.9" y="219.5" class="st1" width="6.7" height="11.4"/>
						<rect x="169.8" y="219.5" class="st1" width="6.7" height="11.4"/>
					</g>
					<g>
						<rect x="145.9" y="238" class="st1" width="6.7" height="11.4"/>
						<rect x="157.9" y="238" class="st1" width="6.7" height="11.4"/>
						<rect x="169.8" y="238" class="st1" width="6.7" height="11.4"/>
					</g>
					<g>
						<rect x="145.9" y="256.5" class="st1" width="6.7" height="11.4"/>
						<rect x="157.9" y="256.5" class="st1" width="6.7" height="11.4"/>
						<rect x="169.8" y="256.5" class="st1" width="6.7" height="11.4"/>
					</g>
					<g>
						<rect x="145.9" y="275" class="st1" width="6.7" height="11.4"/>
						<rect x="157.9" y="275" class="st1" width="6.7" height="11.4"/>
						<rect x="169.8" y="275" class="st1" width="6.7" height="11.4"/>
					</g>
					<g>
						<rect x="145.9" y="293.4" class="st1" width="6.7" height="11.4"/>
						<rect x="157.9" y="293.4" class="st1" width="6.7" height="11.4"/>
						<rect x="169.8" y="293.4" class="st1" width="6.7" height="11.4"/>
					</g>
					<g>
						<rect x="145.9" y="311.9" class="st1" width="6.7" height="11.4"/>
						<rect x="157.9" y="311.9" class="st1" width="6.7" height="11.4"/>
						<rect x="169.8" y="311.9" class="st1" width="6.7" height="11.4"/>
					</g>
					<g>
						<rect x="145.9" y="330.4" class="st1" width="6.7" height="11.4"/>
						<rect x="157.9" y="330.4" class="st1" width="6.7" height="11.4"/>
						<rect x="169.8" y="330.4" class="st1" width="6.7" height="11.4"/>
					</g>
					<g>
						<rect x="145.9" y="348.8" class="st1" width="6.7" height="11.4"/>
						<rect x="157.9" y="348.8" class="st1" width="6.7" height="11.4"/>
						<rect x="169.8" y="348.8" class="st1" width="6.7" height="11.4"/>
					</g>
					<g>
						<rect x="145.9" y="367.3" class="st1" width="6.7" height="11.4"/>
						<rect x="157.9" y="367.3" class="st1" width="6.7" height="11.4"/>
						<rect x="169.8" y="367.3" class="st1" width="6.7" height="11.4"/>
					</g>
					<g>
						<rect x="145.9" y="385.8" class="st1" width="6.7" height="11.4"/>
						<rect x="157.9" y="385.8" class="st1" width="6.7" height="11.4"/>
						<rect x="169.8" y="385.8" class="st1" width="6.7" height="11.4"/>
					</g>
					<g>
						<rect x="145.9" y="404.3" class="st1" width="6.7" height="33.2"/>
						<rect x="157.9" y="404.3" class="st1" width="6.7" height="33.2"/>
						<rect x="169.8" y="404.3" class="st1" width="6.7" height="33.2"/>
					</g>
				</g>
			</g>
		</g>
	</g>
	<g>
		<g>
			<rect x="668.7" y="230.3" class="st0" width="54.6" height="207.2"/>
			<rect x="676.4" y="216.6" class="st3" width="46.9" height="13.7"/>
			<g>
				<rect x="674.6" y="237.5" class="st1" width="42.7" height="154.9"/>
				<g>
					<rect x="674.6" y="252.3" class="st4" width="42.7" height="3.7"/>
					<rect x="674.6" y="267.4" class="st4" width="42.7" height="3.7"/>
					<rect x="674.6" y="282.6" class="st4" width="42.7" height="3.7"/>
					<rect x="674.6" y="297.8" class="st4" width="42.7" height="3.7"/>
					<rect x="674.6" y="312.9" class="st4" width="42.7" height="3.7"/>
					<rect x="674.6" y="328.1" class="st4" width="42.7" height="3.7"/>
					<rect x="674.6" y="343.2" class="st4" width="42.7" height="3.7"/>
					<rect x="674.6" y="358.4" class="st4" width="42.7" height="3.7"/>
					<rect x="674.6" y="373.6" class="st4" width="42.7" height="3.7"/>
					<rect x="674.6" y="388.7" class="st4" width="42.7" height="3.7"/>
				</g>
			</g>
		</g>
		<g>
			<rect x="723.3" y="230.3" class="st1" width="34.2" height="207.2"/>
			<rect x="723.3" y="216.6" class="st2" width="29.1" height="13.7"/>
			<g>
				<rect x="728" y="237.5" class="st3" width="26.3" height="154.9"/>
				<g>
					<rect x="728" y="252.3" class="st4" width="26.3" height="3.7"/>
					<rect x="728" y="267.4" class="st4" width="26.3" height="3.7"/>
					<rect x="728" y="282.6" class="st4" width="26.3" height="3.7"/>
					<rect x="728" y="297.8" class="st4" width="26.3" height="3.7"/>
					<rect x="728" y="312.9" class="st4" width="26.3" height="3.7"/>
					<rect x="728" y="328.1" class="st4" width="26.3" height="3.7"/>
					<rect x="728" y="343.2" class="st4" width="26.3" height="3.7"/>
					<rect x="728" y="358.4" class="st4" width="26.3" height="3.7"/>
					<rect x="728" y="373.6" class="st4" width="26.3" height="3.7"/>
					<rect x="728" y="388.7" class="st4" width="26.3" height="3.7"/>
				</g>
			</g>
		</g>
	</g>
	<g>
		<rect x="756.9" y="233.8" class="st1" width="29.2" height="34.5"/>
		<rect x="786.1" y="233.8" class="st3" width="18.5" height="35.7"/>
		<rect x="787.5" y="249" class="st1" width="18.4" height="20.5"/>
		<polygon class="st3" points="964.8,340.4 805.8,269.5 805.8,249 964.8,319.9 		"/>
		<g>
			<rect x="745.7" y="266" class="st0" width="47.2" height="171.5"/>
			<g>
				<rect x="751.1" y="273.4" class="st4" width="14.8" height="6.1"/>
				<rect x="770.1" y="273.4" class="st4" width="14.8" height="6.1"/>
				<rect x="751.1" y="283.7" class="st4" width="14.8" height="6.1"/>
				<rect x="770.1" y="283.7" class="st4" width="14.8" height="6.1"/>
				<rect x="751.1" y="294" class="st4" width="14.8" height="6.1"/>
				<rect x="770.1" y="294" class="st4" width="14.8" height="6.1"/>
				<rect x="751.1" y="304.3" class="st4" width="14.8" height="6.1"/>
				<rect x="770.1" y="304.3" class="st4" width="14.8" height="6.1"/>
				<rect x="751.1" y="314.6" class="st4" width="14.8" height="6.1"/>
				<rect x="770.1" y="314.6" class="st4" width="14.8" height="6.1"/>
				<rect x="751.1" y="324.9" class="st4" width="14.8" height="6.1"/>
				<rect x="770.1" y="324.9" class="st4" width="14.8" height="6.1"/>
				<rect x="751.1" y="335.2" class="st4" width="14.8" height="6.1"/>
				<rect x="770.1" y="335.2" class="st4" width="14.8" height="6.1"/>
				<rect x="751.1" y="345.5" class="st4" width="14.8" height="6.1"/>
				<rect x="770.1" y="345.5" class="st4" width="14.8" height="6.1"/>
				<rect x="751.1" y="355.7" class="st4" width="14.8" height="6.1"/>
				<rect x="770.1" y="355.7" class="st4" width="14.8" height="6.1"/>
				<rect x="751.1" y="366" class="st4" width="14.8" height="6.1"/>
				<rect x="770.1" y="366" class="st4" width="14.8" height="6.1"/>
				<rect x="751.1" y="376.3" class="st4" width="14.8" height="6.1"/>
				<rect x="770.1" y="376.3" class="st4" width="14.8" height="6.1"/>
				<rect x="751.1" y="386.6" class="st4" width="14.8" height="6.1"/>
				<rect x="770.1" y="386.6" class="st4" width="14.8" height="6.1"/>
				<rect x="751.1" y="396.9" class="st4" width="14.8" height="6.1"/>
				<rect x="770.1" y="396.9" class="st4" width="14.8" height="6.1"/>
				<rect x="751.1" y="407.2" class="st4" width="14.8" height="6.1"/>
				<rect x="770.1" y="407.2" class="st4" width="14.8" height="6.1"/>
			</g>
		</g>
		<g>
			<polygon class="st3" points="978.7,336.9 792.9,266 792.9,437.5 978.7,508.4 			"/>
			<g>
				
					<rect x="793" y="411.7" transform="matrix(-1 -1.224647e-16 1.224647e-16 -1 1595.7283 828.1645)" class="st0" width="9.8" height="4.9"/>
				<polygon class="st0" points="799.5,407.2 959.3,478.1 959.3,484.2 799.5,413.3 				"/>
				
					<rect x="793" y="403.4" transform="matrix(-1 -1.224647e-16 1.224647e-16 -1 1595.7283 811.6612)" class="st0" width="9.8" height="4.9"/>
				<polygon class="st0" points="799.5,396.9 959.3,467.8 959.3,473.9 799.5,403 				"/>
				
					<rect x="793" y="395.1" transform="matrix(-1 -1.224647e-16 1.224647e-16 -1 1595.7283 795.158)" class="st0" width="9.8" height="4.9"/>
				<polygon class="st0" points="799.5,386.6 959.3,457.5 959.3,463.6 799.5,392.7 				"/>
				
					<rect x="793" y="386.9" transform="matrix(-1 -1.224647e-16 1.224647e-16 -1 1595.7283 778.6548)" class="st0" width="9.8" height="4.9"/>
				<polygon class="st0" points="799.5,376.3 959.3,447.2 959.3,453.3 799.5,382.4 				"/>
				
					<rect x="793" y="378.6" transform="matrix(-1 -1.224647e-16 1.224647e-16 -1 1595.7283 762.1518)" class="st0" width="9.8" height="4.9"/>
				<polygon class="st0" points="799.5,366 959.3,436.9 959.3,443 799.5,372.1 				"/>
				
					<rect x="793" y="370.4" transform="matrix(-1 -1.224647e-16 1.224647e-16 -1 1595.7283 745.6485)" class="st0" width="9.8" height="4.9"/>
				<polygon class="st0" points="799.5,355.7 959.3,426.6 959.3,432.7 799.5,361.8 				"/>
				
					<rect x="793" y="362.1" transform="matrix(-1 -1.224647e-16 1.224647e-16 -1 1595.7283 729.1452)" class="st0" width="9.8" height="4.9"/>
				<polygon class="st0" points="799.5,345.5 959.3,416.4 959.3,422.4 799.5,351.5 				"/>
				
					<rect x="793" y="353.9" transform="matrix(-1 -1.224647e-16 1.224647e-16 -1 1595.7283 712.6421)" class="st0" width="9.8" height="4.9"/>
				<polygon class="st0" points="799.5,335.2 959.3,406.1 959.3,412.1 799.5,341.2 				"/>
				
					<rect x="793" y="345.6" transform="matrix(-1 -1.224647e-16 1.224647e-16 -1 1595.7283 696.139)" class="st0" width="9.8" height="4.9"/>
				<polygon class="st0" points="799.5,324.9 959.3,395.8 959.3,401.8 799.5,330.9 				"/>
				
					<rect x="793" y="337.4" transform="matrix(-1 -1.224647e-16 1.224647e-16 -1 1595.7283 679.6357)" class="st0" width="9.8" height="4.9"/>
				<polygon class="st0" points="799.5,314.6 959.3,385.5 959.3,391.5 799.5,320.6 				"/>
				
					<rect x="793" y="329.1" transform="matrix(-1 -1.224647e-16 1.224647e-16 -1 1595.7283 663.1324)" class="st0" width="9.8" height="4.9"/>
				<polygon class="st0" points="799.5,304.3 959.3,375.2 959.3,381.2 799.5,310.3 				"/>
				
					<rect x="793" y="320.9" transform="matrix(-1 -1.224647e-16 1.224647e-16 -1 1595.7283 646.6292)" class="st0" width="9.8" height="4.9"/>
				<polygon class="st0" points="799.5,294 959.3,364.9 959.3,371 799.5,300.1 				"/>
				
					<rect x="793" y="312.6" transform="matrix(-1 -1.224647e-16 1.224647e-16 -1 1595.7283 630.1262)" class="st0" width="9.8" height="4.9"/>
				<polygon class="st0" points="799.5,283.7 959.3,354.6 959.3,360.7 799.5,289.8 				"/>
				
					<rect x="793" y="304.4" transform="matrix(-1 -1.224647e-16 1.224647e-16 -1 1595.7283 613.623)" class="st0" width="9.8" height="4.9"/>
				<polygon class="st0" points="799.5,273.4 959.3,344.3 959.3,350.4 799.5,279.5 				"/>
			</g>
		</g>
	</g>
	<g>
		<g>
			<rect x="144" y="274" class="st3" width="54.2" height="163.5"/>
			<g>
				<rect x="152.5" y="288.1" class="st1" width="9.6" height="10"/>
				<rect x="152.5" y="309.5" class="st1" width="9.6" height="10"/>
				<rect x="152.5" y="330.9" class="st1" width="9.6" height="10"/>
				<rect x="152.5" y="352.3" class="st1" width="9.6" height="10"/>
				<rect x="152.5" y="373.7" class="st1" width="9.6" height="10"/>
				<rect x="152.5" y="395.1" class="st1" width="9.6" height="10"/>
				<rect x="152.5" y="416.5" class="st1" width="9.6" height="10"/>
				<rect x="166.3" y="288.1" class="st1" width="9.6" height="10"/>
				<rect x="166.3" y="309.5" class="st1" width="9.6" height="10"/>
				<rect x="166.3" y="330.9" class="st1" width="9.6" height="10"/>
				<rect x="166.3" y="352.3" class="st1" width="9.6" height="10"/>
				<rect x="166.3" y="373.7" class="st1" width="9.6" height="10"/>
				<rect x="166.3" y="395.1" class="st1" width="9.6" height="10"/>
				<rect x="166.3" y="416.5" class="st1" width="9.6" height="10"/>
				<rect x="180.1" y="288.1" class="st1" width="9.6" height="10"/>
				<rect x="180.1" y="309.5" class="st1" width="9.6" height="10"/>
				<rect x="180.1" y="330.9" class="st1" width="9.6" height="10"/>
				<rect x="180.1" y="352.3" class="st1" width="9.6" height="10"/>
				<rect x="180.1" y="373.7" class="st1" width="9.6" height="10"/>
				<rect x="180.1" y="395.1" class="st1" width="9.6" height="10"/>
				<rect x="180.1" y="416.5" class="st1" width="9.6" height="10"/>
			</g>
			<rect x="162.1" y="256.9" class="st1" width="36.1" height="17"/>
			<rect x="175.3" y="246.4" class="st0" width="22.9" height="10.5"/>
		</g>
		<g>
			<rect x="198.2" y="274" class="st2" width="45.1" height="163.5"/>
			<g>
				
					<rect x="229.4" y="414.9" transform="matrix(-1 -1.224647e-16 1.224647e-16 -1 468.132 839.8948)" class="st3" width="9.3" height="10"/>
				
					<rect x="229.4" y="393.5" transform="matrix(-1 -1.224647e-16 1.224647e-16 -1 468.132 797.0955)" class="st3" width="9.3" height="10"/>
				
					<rect x="229.4" y="372.1" transform="matrix(-1 -1.224647e-16 1.224647e-16 -1 468.132 754.2961)" class="st3" width="9.3" height="10"/>
				
					<rect x="229.4" y="350.7" transform="matrix(-1 -1.224647e-16 1.224647e-16 -1 468.132 711.4968)" class="st3" width="9.3" height="10"/>
				
					<rect x="229.4" y="329.3" transform="matrix(-1 -1.224647e-16 1.224647e-16 -1 468.132 668.6973)" class="st3" width="9.3" height="10"/>
				
					<rect x="229.4" y="307.9" transform="matrix(-1 -1.224647e-16 1.224647e-16 -1 468.132 625.8983)" class="st3" width="9.3" height="10"/>
				
					<rect x="229.4" y="286.5" transform="matrix(-1 -1.224647e-16 1.224647e-16 -1 468.132 583.0988)" class="st3" width="9.3" height="10"/>
				
					<rect x="216.1" y="414.9" transform="matrix(-1 -1.224647e-16 1.224647e-16 -1 441.489 839.8948)" class="st3" width="9.3" height="10"/>
				
					<rect x="216.1" y="393.5" transform="matrix(-1 -1.224647e-16 1.224647e-16 -1 441.489 797.0955)" class="st3" width="9.3" height="10"/>
				
					<rect x="216.1" y="372.1" transform="matrix(-1 -1.224647e-16 1.224647e-16 -1 441.489 754.2961)" class="st3" width="9.3" height="10"/>
				
					<rect x="216.1" y="350.7" transform="matrix(-1 -1.224647e-16 1.224647e-16 -1 441.489 711.4968)" class="st3" width="9.3" height="10"/>
				
					<rect x="216.1" y="329.3" transform="matrix(-1 -1.224647e-16 1.224647e-16 -1 441.489 668.6973)" class="st3" width="9.3" height="10"/>
				
					<rect x="216.1" y="307.9" transform="matrix(-1 -1.224647e-16 1.224647e-16 -1 441.489 625.8983)" class="st3" width="9.3" height="10"/>
				
					<rect x="216.1" y="286.5" transform="matrix(-1 -1.224647e-16 1.224647e-16 -1 441.489 583.0988)" class="st3" width="9.3" height="10"/>
				
					<rect x="202.8" y="414.9" transform="matrix(-1 -1.224647e-16 1.224647e-16 -1 414.9118 839.8948)" class="st3" width="9.3" height="10"/>
				
					<rect x="202.8" y="393.5" transform="matrix(-1 -1.224647e-16 1.224647e-16 -1 414.9118 797.0955)" class="st3" width="9.3" height="10"/>
				
					<rect x="202.8" y="372.1" transform="matrix(-1 -1.224647e-16 1.224647e-16 -1 414.9118 754.2961)" class="st3" width="9.3" height="10"/>
				
					<rect x="202.8" y="350.7" transform="matrix(-1 -1.224647e-16 1.224647e-16 -1 414.9118 711.4968)" class="st3" width="9.3" height="10"/>
				
					<rect x="202.8" y="329.3" transform="matrix(-1 -1.224647e-16 1.224647e-16 -1 414.9118 668.6973)" class="st3" width="9.3" height="10"/>
				
					<rect x="202.8" y="307.9" transform="matrix(-1 -1.224647e-16 1.224647e-16 -1 414.9118 625.8983)" class="st3" width="9.3" height="10"/>
				
					<rect x="202.8" y="286.5" transform="matrix(-1 -1.224647e-16 1.224647e-16 -1 414.9118 583.0988)" class="st3" width="9.3" height="10"/>
			</g>
			<rect x="198.2" y="256.9" class="st3" width="38.3" height="17"/>
			<rect x="198.2" y="246.4" class="st1" width="20.7" height="10.5"/>
		</g>
	</g>
</g>
<g>
	<polygon class="st3" points="948.1,531.3 948.1,679.4 12.6,679.4 12.6,531.3 141.1,437.6 807,437.6 	"/>
	<g>
		<g>
			<polygon class="st5" points="948.1,545.6 948.1,553.4 784.2,437.6 791.8,437.6 			"/>
		</g>
		<g>
			<polygon class="st5" points="164,437.6 12.6,553.4 12.6,545.6 156.4,437.6 			"/>
		</g>
	</g>
	<g>
		<polygon class="st4" points="497.9,679.4 462.7,679.4 472.1,437.6 488.5,437.6 		"/>
	</g>
</g>
<path class="st6" d="M59.5,437.6c269.6-1.6,719.6,69.3,989.1,70.9C779.1,510.2,329.1,439.3,59.5,437.6L59.5,437.6z"/>
<g class="st7">
	<g>
		<path d="M244.7,437.6c-24.6,0-60.4,0-84.9,0c-47.1,63.7,105,124.3,57.4,173.4c24.6,0,67.1,0,91.7,0
			C340,549.6,184.5,495.5,244.7,437.6z"/>
	</g>
	<g>
		<path d="M714.9,437.6c-24.6,0-60.4,0-84.9,0c-47.1,63.7,105,124.3,57.4,173.4c24.6,0,67.1,0,91.7,0
			C810.2,549.6,654.7,495.5,714.9,437.6z"/>
	</g>
</g>
<g>
	<g>
		<g>
			<path class="st5" d="M735,271.1c0,0,12.9-6.6,14.7-9.9c1.8-3.3,9.4-17.1,12.4-17.9c11.3-2.8,38-1.1,48.9,3.7
				c6,2.6,1.8,21.1-3.1,26.9c-4.8,5.8-37.9,11.6-44.1,10.9c-6.2-0.8-11.1-6.6-11.1-6.6l-14.6,5.3L735,271.1z"/>
		</g>
		<g>
			<path class="st5" d="M729.5,258.1c0,0,9.5,0.6,11.9,2.4c2.4,1.8,10.8,17,10.7,22.5c0,5.5-5.4,11.5-5.4,11.5L729.5,258.1z"/>
			<path class="st8" d="M729.5,258.1c0,0,9.5,0.6,11.9,2.4c2.4,1.8,10.8,17,10.7,22.5c0,5.5-5.4,11.5-5.4,11.5L729.5,258.1z"/>
		</g>
	</g>
	<g>
		<g>
			<path class="st5" d="M266.9,307.3c0,0-13.8-4.5-16-7.5c-2.2-3-11.9-15.5-15-15.8c-11.6-1-37.7,4.7-47.8,11.2
				c-5.5,3.5,1.5,21.2,7.2,26.1c5.7,4.9,39.2,5.6,45.2,4c6-1.7,10-8.3,10-8.3l15.3,3L266.9,307.3z"/>
		</g>
		<g>
			<path class="st5" d="M270.4,293.6c0,0-9.3,2.1-11.4,4.2c-2.1,2.1-8,18.5-7.1,23.9c0.9,5.4,7.1,10.6,7.1,10.6L270.4,293.6z"/>
			<path class="st8" d="M270.4,293.6c0,0-9.3,2.1-11.4,4.2c-2.1,2.1-8,18.5-7.1,23.9c0.9,5.4,7.1,10.6,7.1,10.6L270.4,293.6z"/>
		</g>
	</g>
	<path class="st6" d="M764.6,570.5l48.7-3.8c11.1-0.9,19.4-10.5,18.5-21.6l-11.2-145.2c-0.9-11.1-10.5-19.4-21.6-18.5l-48.7,3.8
		c-11.1,0.9-19.4,10.5-18.5,21.6L742.9,552C743.8,563.1,753.5,571.4,764.6,570.5z"/>
	<path class="st6" d="M283.8,607.7l-48.7,3.8c-11.1,0.9-20.8-7.4-21.6-18.5l-11.2-145.2c-0.9-11.1,7.4-20.8,18.5-21.6l48.7-3.8
		c11.1-0.9,20.8,7.4,21.6,18.5L302.3,586C303.2,597.1,294.9,606.8,283.8,607.7z"/>
	<path class="st5" d="M805.1,332.1c-9.4-17.3-55.7-38.3-56.5-40c-22.4-43.9-65.3-110.3-70-117c-9.6-13.8-19-18.9-35.8-21.1
		c-6-0.8-36.7-4.7-152,4.2c-115.2,8.9-145,17.5-150.8,19.2c-16.2,4.8-24.7,11.2-32.1,26.3c-3.6,7.4-35.8,79.6-51.2,126.4
		c-0.6,1.8-43.1,29.7-49.7,48.2c-16.2,45.6,14.6,189.6,31,202.8c12.8,10.3,109.6-1.2,114.1-1.5s17.8-9.3,20.4-10.1
		c2.6-0.8,86.2-3.6,149.6-8.5c63.4-4.9,146.4-15,149.1-14.6c2.7,0.4,17.2,7.2,21.7,6.8c4.4-0.3,101.8-3.9,112.9-16
		C819.9,521.7,828.2,374.6,805.1,332.1z M502.4,307.2c-118.4,9.2-223.1,12.5-223.1,12.5c17.1-57.1,39-107,41.1-110.3
		c7.2-11.4,15.7-15.7,23-18.1c18.2-5.7,65.3-12.6,148.6-19.1c83.3-6.4,131-6.9,149.8-4c7.6,1.2,16.6,4.2,25.5,14.3
		c2.6,3,31.9,48.9,57.6,102.7C724.8,285.3,620.8,298.1,502.4,307.2z"/>
	<path class="st9" d="M801.6,371.8c0.1,20.3-34.1,70.3-43.1,72.8c-9,2.6-205.9,21.1-243.7,24c-37.8,2.9-235.2,14.9-244.5,13.8
		c-9.3-1.2-50.7-45.3-53.8-65.3c-3.1-20.1-0.5-35.7,2.8-41.6c3.3-5.9,37.4-30,50.3-32.1c12.9-2.1,82.2,81.2,96.6,86.9
		c14.4,5.7,112.6-2.6,145.2-5.2c32.6-2.5,131-9.4,144.3-17.2c13.3-7.8,69-100.9,82.1-100.7c13.1,0.1,50.5,18.7,54.6,24
		C796.6,336.4,801.6,351.5,801.6,371.8z"/>
	<g>
		<g>
			
				<ellipse transform="matrix(0.6446 -0.7645 0.7645 0.6446 -213.4935 344.2004)" class="st4" cx="263.5" cy="401.7" rx="43.9" ry="43.9"/>
			<path class="st1" d="M307.3,398.4c3.3,37.6-41.4,61.8-71.2,37.9c-19.7-15-22.1-46.6-5-64.4C256.8,343.6,304.8,360.7,307.3,398.4
				L307.3,398.4z M307.3,398.4c-2.5-35.5-48.7-49.3-70.1-21.3c-12.6,15.6-10.8,39.6,4.1,53.1C266.7,454.6,310.2,433.9,307.3,398.4
				L307.3,398.4z"/>
			<path class="st1" d="M282.6,400.3c1.4,16.4-18.1,27-31.1,16.6c-8.6-6.6-9.7-20.4-2.2-28.1C260.6,376.3,281.5,383.8,282.6,400.3
				L282.6,400.3z M282.6,400.3c-1.1-15.5-21.3-21.5-30.6-9.3c-5.5,6.8-4.7,17.3,1.8,23.2C264.9,424.8,283.9,415.8,282.6,400.3
				L282.6,400.3z"/>
			<path class="st1" d="M300.5,415.2c0.7,7.8-8.6,12.8-14.8,7.9c-4.1-3.1-4.6-9.7-1-13.3C290.1,403.8,300,407.4,300.5,415.2
				L300.5,415.2z M300.5,415.2c-0.5-7.4-10.1-10.2-14.5-4.4c-2.6,3.2-2.2,8.2,0.8,11C292.1,426.8,301.2,422.5,300.5,415.2
				L300.5,415.2z"/>
		</g>
	</g>
	<g>
		<g>
			
				<ellipse transform="matrix(0.8651 -0.5017 0.5017 0.8651 -80.9525 426.8156)" class="st4" cx="752.9" cy="363.9" rx="43.9" ry="43.9"/>
			<path class="st1" d="M709.2,367.3c-3.3-37.6,41.4-61.9,71.2-37.9c19.7,14.9,22.1,46.6,5,64.4C759.6,422,711.7,405,709.2,367.3
				L709.2,367.3z M709.2,367.3c2.5,35.5,48.7,49.3,70.1,21.3c12.6-15.6,10.7-39.6-4.1-53C749.7,311.1,706.2,331.8,709.2,367.3
				L709.2,367.3z"/>
			<path class="st1" d="M733.8,365.4c-1.5-16.4,18.1-27,31.1-16.6c8.6,6.5,9.7,20.3,2.2,28.1C755.8,389.3,734.9,381.8,733.8,365.4
				L733.8,365.4z M733.8,365.4c1.1,15.5,21.3,21.5,30.6,9.3c5.5-6.8,4.7-17.3-1.8-23.2C751.5,340.8,732.5,349.9,733.8,365.4
				L733.8,365.4z"/>
			<path class="st1" d="M718.4,382.9c-0.7-7.8,8.6-12.8,14.8-7.9c4.1,3.1,4.6,9.6,1,13.3C728.8,394.2,718.9,390.7,718.4,382.9
				L718.4,382.9z M718.4,382.9c0.5,7.4,10.1,10.2,14.5,4.4c2.6-3.2,2.2-8.2-0.9-11C726.8,371.2,717.8,375.5,718.4,382.9L718.4,382.9
				z"/>
		</g>
	</g>
	<path class="st7" d="M746.7,292.2l-9.2,0.9c-1.5,0.2-3.1,0.3-4.6,0.4c-4.3,1.4-7.1,5.6-10,9c-16.7,22.1-29.2,47-43.4,70.7
		c-4.8,7.9-9.6,15.9-15.2,23.3c-3.3,4.4-7.3,9.1-12.9,10.6c0,0-2.3,0.7-2.3,0.7c-21.2,4.4-42.9,5.1-64.4,7.2
		c-53.6,4.3-130.7,10.6-184.1,13.8c-6.2,0.3-12.3,0.6-18.5,0.7c-6.2-0.2-13.3,0.3-18.8-3.1c-10.2-7.3-17.8-17.4-25.9-26.8
		c-15.7-19-30.4-38.7-47.3-56.7c-4.3-4.4-8.5-8.9-13.7-12.2c-1.3-0.8-2.7-1.5-4.1-1.6c-1.5,0-3.1,0.2-4.6,0.3l-9.2,0.6l9.2-0.9
		c1.5-0.1,3.1-0.3,4.6-0.4c1.6,0,3.1,0.8,4.4,1.5c5.3,3.3,9.7,7.7,14.1,12c21.7,21.9,39.7,47,60.6,69.6c4.1,4.3,8.4,8.9,13.4,12.1
		c5,3,11.5,2.3,17.2,2.4c60.8-2.6,141.3-10.6,202.4-14.7c18.4-1.5,36.8-2.8,55-5.2c5.6-1,12.2-1.3,16.6-5.1c4.4-3.9,8-9.1,11.4-14
		c10.4-15.3,19.3-31.4,28.9-47.1c6.4-10.5,13-20.9,20.2-30.9c3.7-4.9,7.4-10,12.1-14c1.2-1,2.5-1.9,4.1-2.2c1.6-0.1,3.1-0.2,4.6-0.3
		L746.7,292.2L746.7,292.2z"/>
	<g>
		<path class="st10" d="M724.8,285.3c0,0-104,12.8-222.4,22c-118.4,9.2-223.1,12.5-223.1,12.5c17.1-57.1,39-107,41.1-110.3
			c7.2-11.4,15.7-15.7,23-18.1c18.2-5.7,65.3-12.6,148.6-19.1c83.3-6.4,131-6.9,149.8-4c7.6,1.2,16.6,4.1,25.5,14.3
			C669.8,185.5,699.1,231.5,724.8,285.3z"/>
		<g>
			<g>
				<path class="st5" d="M456.6,260.2l-130.9,10.1c-4.2,0.3-7.5,3.7-7.8,8L316,303c-0.4,5.4,3.9,9.9,9.1,9.5l138.4-10.7
					c5.2-0.4,8.8-5.5,7.6-10.8l-5.6-24.1C464.5,262.7,460.7,259.9,456.6,260.2z"/>
				<path class="st5" d="M432.2,271.6l-80.8,6.2c-2.1,0.2-4-1.4-4.1-3.5l-2.3-30c-0.2-2.1,1.4-4,3.5-4.1l80.8-6.2
					c2.1-0.2,4,1.4,4.1,3.5l2.3,30C435.9,269.6,434.3,271.4,432.2,271.6z"/>
			</g>
			<g class="st11">
				<path d="M456.6,260.2l-130.9,10.1c-4.2,0.3-7.5,3.7-7.8,8L316,303c-0.4,5.4,3.9,9.9,9.1,9.5l138.4-10.7
					c5.2-0.4,8.8-5.5,7.6-10.8l-5.6-24.1C464.5,262.7,460.7,259.9,456.6,260.2z"/>
				<path d="M432.2,271.6l-80.8,6.2c-2.1,0.2-4-1.4-4.1-3.5l-2.3-30c-0.2-2.1,1.4-4,3.5-4.1l80.8-6.2c2.1-0.2,4,1.4,4.1,3.5l2.3,30
					C435.9,269.6,434.3,271.4,432.2,271.6z"/>
			</g>
		</g>
		<g>
			<g>
				<path class="st5" d="M671.3,243.6l-130.9,10.1c-4.2,0.3-7.5,3.7-7.8,8l-1.8,24.6c-0.4,5.4,3.9,9.9,9.1,9.5l138.4-10.7
					c5.2-0.4,8.8-5.5,7.6-10.8l-5.6-24.1C679.3,246.1,675.5,243.3,671.3,243.6z"/>
				<path class="st5" d="M647,255l-80.8,6.2c-2.1,0.2-4-1.4-4.1-3.5l-2.3-30c-0.2-2.1,1.4-4,3.5-4.1l80.8-6.2c2.1-0.2,4,1.4,4.1,3.5
					l2.3,30C650.7,252.9,649.1,254.8,647,255z"/>
			</g>
			<g class="st11">
				<path d="M671.3,243.6l-130.9,10.1c-4.2,0.3-7.5,3.7-7.8,8l-1.8,24.6c-0.4,5.4,3.9,9.9,9.1,9.5l138.4-10.7
					c5.2-0.4,8.8-5.5,7.6-10.8l-5.6-24.1C679.3,246.1,675.5,243.3,671.3,243.6z"/>
				<path d="M647,255l-80.8,6.2c-2.1,0.2-4-1.4-4.1-3.5l-2.3-30c-0.2-2.1,1.4-4,3.5-4.1l80.8-6.2c2.1-0.2,4,1.4,4.1,3.5l2.3,30
					C650.7,252.9,649.1,254.8,647,255z"/>
			</g>
		</g>
		<g class="st12">
			<path class="st4" d="M435.8,177.2l-116.6,141c-25,1.1-40,1.6-40,1.6c0.2-0.6,0.4-1.2,0.5-1.8L392,182.2
				C404.4,180.6,418.9,178.9,435.8,177.2z"/>
			<path class="st4" d="M705.3,246.9l-37.1,44.9c-12.8,1.4-27.4,2.9-43.4,4.5l64.5-78C694.2,226.7,699.7,236.4,705.3,246.9z"/>
			<path class="st4" d="M377.8,184.3l-90.2,109.1c1.4-4.3,2.9-8.5,4.3-12.6l78.9-95.4C373,185,375.3,184.6,377.8,184.3z"/>
			<path class="st4" d="M582.9,167L464.6,310c-2.2,0.2-4.3,0.3-6.5,0.5l118.4-143.2C578.8,167.1,580.9,167.1,582.9,167z"/>
			<path class="st4" d="M636.4,167.6l-114.1,138c-4.8,0.4-9.7,0.8-14.6,1.2l115.7-140C628.5,167,632.8,167.3,636.4,167.6z"/>
		</g>
		<path class="st6" d="M724.8,285.3c0,0-104,12.8-222.4,22c-118.4,9.2-223.2,12.5-223.2,12.5c1.6-5.4,3.3-10.6,5-15.8
			c24.1-0.9,115.5-4.4,217-12.3c101.4-7.8,192.3-18.4,216.3-21.2C719.9,275.3,722.4,280.2,724.8,285.3z"/>
	</g>
	<path class="st8" d="M819.4,419.4c1.1,52.7-5.3,108.6-13.7,117.9c-11.1,12.2-108.5,15.7-112.9,16c-4.4,0.3-19-6.4-21.7-6.8
		c-2.7-0.4-85.7,9.7-149.1,14.6c-63.4,4.9-147,7.7-149.6,8.5c-2.6,0.8-15.9,9.7-20.4,10.1c-4.4,0.3-101.2,11.8-114.1,1.5
		c-9.8-7.8-24.6-62.1-31.6-114.3c9.5,46,34.3,92.1,44,94.4c9.7,2.3,83.5,2.6,90.6,3.8c7.1,1.2,31.7-13.3,31.7-13.3
		c17.2,1.5,147.9-8.9,147.9-8.9s130.8-9.8,147.5-13.9c0,0,26.6,10.5,33.4,8.2c6.8-2.3,79.7-13.9,88.9-17.7
		C799.7,515.7,817.1,466.3,819.4,419.4z"/>
	<g>
		<g>
			<path class="st6" d="M519.9,534.3l-3.9-49.9c0,0-128.8,9-156.1,11.1c-27.3,2.1-96.9,3.6-102.2,4.6c-5.3,1-9.4,6.1-8.3,12.7
				c1.1,6.6,10.1,27.5,31.3,33.1C308.9,553.3,471.1,538.1,519.9,534.3z"/>
			<path class="st4" d="M263.7,510.9c-1.1,3.5,10.1,24,20.5,27.5c6.5,2.2,38.5,0.9,38.8,0.4s-10.3-32.5-10.3-32.5
				c-21,0.8-36.9,0.6-44.7,1.6C266,508.1,264.5,508.5,263.7,510.9z"/>
			<g>
				<path class="st13" d="M517.4,501.6l0.4,5.6c-51.7,4-100.3,7.2-142,9.6c-1.9,0.1-3.9,0.2-5.8,0.3c-17.5,1-33.7,1.9-48.4,2.6
					c-2,0.1-3.9,0.2-5.9,0.3c-28.4,1.3-50.2,2-62.9,2.1c-0.2-0.4-0.3-0.7-0.5-1c-0.1-0.3-0.3-0.6-0.4-0.9c-0.6-1.3-1.1-2.6-1.5-3.7
					c11.9,0,33.9-0.7,63.4-2.1c1.9-0.1,3.9-0.2,5.9-0.3c14.6-0.7,30.9-1.6,48.6-2.6c1.9-0.1,3.8-0.2,5.8-0.3
					C416,508.9,465.1,505.6,517.4,501.6z"/>
				<path class="st13" d="M518.6,517.4l0.4,5.6c-50.3,3.9-97.6,7-138.4,9.4c-1.9,0.1-3.9,0.2-5.8,0.3c-17.3,1-33.3,1.9-47.8,2.6
					c-2,0.1-3.9,0.2-5.9,0.3c-23.2,1.1-42.2,1.8-55.8,2.2c-0.3-0.3-0.7-0.6-1-0.9c-0.4-0.3-0.7-0.6-1-0.9c-1.3-1.2-2.5-2.4-3.5-3.7
					c13.4-0.2,33.8-1,59.6-2.2c1.9-0.1,3.9-0.2,5.9-0.3c14.5-0.7,30.6-1.6,48-2.6c1.9-0.1,3.8-0.2,5.8-0.3
					C420,524.6,467.8,521.4,518.6,517.4z"/>
				<path class="st13" d="M331.1,547.5c-2,0.1-4,0.1-5.9,0.2l-4.1-12l-1.9-5.5l-3.4-10.1l-1.9-5.6l-5.6-16.5c2-0.1,3.9-0.1,5.9-0.2
					l5.6,16.5l1.9,5.6l3.4,10.1l1.9,5.5L331.1,547.5z"/>
				<path class="st13" d="M384.4,544.8c-1.9,0.1-3.9,0.2-5.8,0.4l-3.7-12.3l-1.7-5.5l-3.1-10.1l-1.7-5.5l-5-16.4
					c1.7-0.1,3.6-0.3,5.8-0.4l5,16.5l1.7,5.5l3.1,10.1l1.7,5.5L384.4,544.8z"/>
			</g>
		</g>
		<g>
			<path class="st6" d="M519.9,534.3l-3.9-49.9c0,0,128.6-10.9,156-13.1s96.3-11.3,101.7-11.1c5.4,0.2,10.2,4.6,10.1,11.3
				c-0.1,6.7-5.7,28.8-25.8,37.5C731.3,520.6,568.7,530.5,519.9,534.3z"/>
			<path class="st4" d="M769.5,471.8c1.7,3.2-6.3,25.3-16,30.3c-6.1,3.2-37.9,6.8-38.3,6.3c-0.4-0.5,5.2-33.6,5.2-33.6
				c20.9-2.4,36.5-5,44.4-5.3C766.8,469.4,768.4,469.5,769.5,471.8z"/>
			<g>
				<path class="st13" d="M517.4,501.6l0.4,5.6c51.7-4,100.3-8.3,141.8-12.3c1.9-0.2,3.9-0.4,5.8-0.6c17.5-1.7,33.6-3.3,48.2-4.9
					c2-0.2,3.9-0.4,5.8-0.6c28.3-3.1,49.9-5.7,62.5-7.6c0.1-0.4,0.2-0.8,0.3-1.1c0.1-0.3,0.2-0.6,0.3-0.9c0.4-1.4,0.7-2.7,0.9-3.9
					c-11.7,1.8-33.6,4.5-63,7.7c-1.9,0.2-3.9,0.4-5.8,0.6c-14.6,1.6-30.8,3.2-48.4,4.9c-1.9,0.2-3.8,0.4-5.8,0.6
					C618.7,493.2,569.7,497.5,517.4,501.6z"/>
				<path class="st13" d="M518.6,517.4l0.4,5.6c50.3-3.9,97.5-8,138.2-12c1.9-0.2,3.9-0.4,5.8-0.5c17.2-1.7,33.2-3.3,47.7-4.8
					c2-0.2,3.9-0.4,5.8-0.6c23.1-2.5,42-4.7,55.5-6.5c0.3-0.3,0.6-0.7,0.9-1c0.3-0.4,0.6-0.7,0.9-1.1c1.1-1.4,2-2.8,2.9-4.2
					c-13.3,1.8-33.6,4.3-59.2,7c-1.9,0.2-3.9,0.4-5.8,0.6c-14.5,1.5-30.5,3.2-47.8,4.8c-1.9,0.2-3.8,0.4-5.8,0.5
					C617.2,509.3,569.5,513.5,518.6,517.4z"/>
				<path class="st13" d="M708.6,518.3c2-0.3,3.9-0.5,5.9-0.7l2.2-12.5l1-5.8l1.8-10.5l1-5.8l3-17.2c-2,0.2-3.9,0.5-5.9,0.7l-3,17.1
					l-1,5.8l-1.8,10.5l-1,5.8L708.6,518.3z"/>
				<path class="st13" d="M655.5,523.9c1.9-0.2,3.9-0.4,5.8-0.5l1.8-12.8l0.8-5.7l1.5-10.5l0.8-5.7l2.4-17c-1.7,0.1-3.6,0.3-5.8,0.5
					l-2.4,17.1l-0.8,5.7l-1.5,10.5l-0.8,5.7L655.5,523.9z"/>
			</g>
		</g>
	</g>
	
		<rect x="448.9" y="506.1" transform="matrix(0.997 -7.708778e-02 7.708778e-02 0.997 -39.203 41.6189)" class="st4" width="141.1" height="45"/>
	<path class="st9" d="M700.9,323.9c-1.2,2.2-40.6,71.6-54.7,75.7c-14.3,4.1-100.5,9.8-135.7,12.5c-35.3,2.7-121.3,10.4-136.1,8.5
		c-14.5-1.8-64.1-64.4-65.7-66.4c1.8,1.7,58.2,57.4,67.3,58.1c9.3,0.6,133.7-8.6,133.7-8.6s124.4-10,133.5-12.1
		C652.3,389.6,699.4,325.9,700.9,323.9z"/>
</g>
<g>
	<g>
		<g>
			<g>
				<path class="st14" d="M584.3,239.2L584.3,239.2c0,1-0.1,2.2-0.4,3.6c-0.1,0.3-0.1,0.6-0.2,0.9c-0.2,0.7-0.3,1.5-0.6,2.4l0,0
					c-0.1,0.5-0.3,1-0.4,1.5c-0.2,0.9-0.5,1.7-0.8,2.7c-0.1,0.3-0.2,0.6-0.3,1c-0.2,0.5-0.3,1-0.5,1.6c-0.2,0.5-0.4,1.1-0.6,1.6
					c0,0.1,0,0.2-0.1,0.2c-0.5,1.5-1.1,3-1.6,4.5c-0.5,1.4-1,2.8-1.5,4.3c-0.3,0.8-0.6,1.6-0.9,2.4c-0.1,0.3-0.2,0.5-0.3,0.8
					c-0.6,1.6-1.2,3.2-1.8,4.7c0,0.1-0.1,0.3-0.1,0.4c-0.4,1-0.8,2.1-1.2,3.1c-0.3,0.8-0.6,1.5-0.9,2.3c-0.1,0.3-0.3,0.7-0.4,1
					c0,0.1-0.1,0.2-0.1,0.3c-0.3,0.9-0.7,1.8-1,2.6c0,0,0,0.1,0,0.1c0,0,0,0,0,0c-0.1,0.4-0.3,0.7-0.4,1.1c-0.1,0.1-0.1,0.2-0.1,0.3
					c0,0.1-0.1,0.2-0.1,0.3c-0.1,0.2-0.2,0.4-0.3,0.6c-0.3,0.8-0.7,1.7-1,2.5l0,0c-1.5,0.2-3.1,0.3-4.6,0.4l-0.3,0
					c-0.6,0.1-1.2,0.1-1.7,0.2c-0.2,0-0.5,0-0.7,0.1l-0.7,0.1c-1.8,0.2-3.6,0.3-5.5,0.5c-3.5,0.3-7,0.6-10.6,0.9
					c-0.5,0.1-1.1,0.1-1.6,0.1c-1.2,0.1-2.3,0.2-3.5,0.3l0,0c-2.3,0.2-4.5,0.4-6.8,0.6l-0.1,0c0,0,0-0.1,0.1-0.1l0,0
					c1.3-2.2,2.7-4.4,4.2-6.7l0,0c0.2-0.3,0.4-0.6,0.6-0.9l0,0c1.8-2.8,3.7-5.6,5.7-8.4c0.1-0.2,0.2-0.4,0.4-0.5
					c1.9-2.7,3.8-5.3,5.7-7.9c0.4-0.6,0.9-1.2,1.3-1.8c1.7-2.2,3.3-4.2,5-6.3c6.2-7.5,12.3-14.1,17.7-18.3c1.7-1.4,3.4-2.5,4.9-3.2
					l0,0c1.2-0.6,2.3-0.9,3.2-0.8l0,0c0.3,0,0.6,0.1,0.9,0.2c0.2,0.1,0.4,0.2,0.6,0.3c0,0,0.1,0.1,0.1,0.1l0,0c0,0,0,0,0,0
					c0.1,0.1,0.1,0.1,0.2,0.2c0.1,0.1,0.1,0.1,0.2,0.2C584,236.1,584.4,237.3,584.3,239.2z"/>
				<path class="st8" d="M584.2,239.3c0,1-0.1,2.1-0.3,3.4c0,0,0,0,0,0c-0.1,0.4-0.1,0.7-0.2,1.1c-0.1,0.7-0.3,1.5-0.5,2.3
					c-0.1,0.5-0.3,1.1-0.4,1.6c-0.2,0.8-0.5,1.7-0.8,2.7c-0.1,0.3-0.2,0.6-0.3,1c-0.2,0.5-0.3,1-0.5,1.6c-0.2,0.5-0.4,1.1-0.6,1.6
					c0,0.1,0,0.2-0.1,0.2c-0.5,1.5-1.1,3-1.6,4.5c-0.5,1.4-1,2.8-1.5,4.3c-0.3,0.8-0.6,1.6-0.9,2.4c-0.1,0.3-0.2,0.5-0.3,0.8
					c-0.6,1.6-1.2,3.2-1.8,4.7c0,0.1-0.1,0.3-0.1,0.4c-0.4,1-0.8,2.1-1.2,3.1c-0.3,0.8-0.6,1.5-0.9,2.3c-0.1,0.3-0.3,0.7-0.4,1
					c0,0.1-0.1,0.2-0.1,0.3c-0.3,0.9-0.7,1.8-1,2.6c0,0,0,0.1,0,0.1c0,0,0,0,0,0c-0.1,0.4-0.3,0.7-0.4,1.1c0,0,0,0,0,0
					c0,0.1-0.1,0.2-0.1,0.3c0,0.1-0.1,0.2-0.1,0.3c-0.1,0.2-0.2,0.4-0.3,0.6c-0.3,0.8-0.7,1.7-1,2.5l0,0c-1.5,0.2-3.1,0.3-4.6,0.4
					l-0.3,0c-0.6,0.1-1.2,0.1-1.7,0.2c-0.2,0-0.5,0-0.7,0.1l-0.7,0.1c-1.8,0.2-3.6,0.3-5.5,0.5c-3.5,0.3-7,0.6-10.6,0.9
					c-0.5,0.1-1.1,0.1-1.6,0.1c-1.2,0.1-2.3,0.2-3.5,0.3l0.3-0.4l1.4-1.7l0.5-0.6l3-3.8l0.1-0.1l0.1-0.1l3.1-3.8l0.7-0.8l2.2-2.7
					l0.2-0.3l4-4.9l0.7-0.9l6.6-8.2l1.2-1.5l2.7-3.4c0,0,0,0,0,0l0.7-0.9l1.3-1.6l3-3.7l8.7-10.7l0,0l1.9-2.4l0.9-1.1l0.2-0.2l0,0
					c0.1,0,0.1,0.1,0.1,0.1l0,0c0,0,0,0,0,0c0.1,0.1,0.1,0.1,0.2,0.2c0.1,0.1,0.1,0.1,0.2,0.2C584,236.1,584.3,237.5,584.2,239.3z"
					/>
			</g>
		</g>
		<g>
			<g>
				<path class="st14" d="M637.6,279.3c-2.7,0.3-5.5,0.6-8.3,0.9c-6.7,0.7-13.7,1.4-20.9,2.1c-6.9,0.7-14,1.4-21.2,2
					c-1,0.1-2,0.2-3,0.3c-0.3,0-0.7,0.1-1,0.1c-4.7,0.4-9.5,0.9-14.3,1.3l0,0c-1.5,0.2-3.1,0.3-4.6,0.4l-0.3,0
					c-0.6,0.1-1.2,0.1-1.7,0.2c-0.2,0-0.5,0-0.7,0.1l-0.7,0.1c0-0.1,0-0.2,0.1-0.3c0.1-0.5,0.2-1,0.3-1.5c0.7-3.4,1.5-6.7,2.3-10
					c0.1-0.5,0.2-1,0.4-1.5c0.3-1.3,0.6-2.5,1-3.7c0,0,0,0,0,0c0.2-0.7,0.3-1.3,0.5-1.9c0.6-2.2,1.2-4.4,1.9-6.5
					c0.3-1,0.6-1.9,0.9-2.9c0.2-0.7,0.4-1.3,0.6-2c0.3-0.9,0.6-1.7,0.9-2.5c0.6-1.7,1.2-3.2,1.8-4.7c1.2-2.9,2.5-5.4,3.8-7.6
					c0.2-0.3,0.4-0.6,0.6-0.9c0.1-0.2,0.3-0.4,0.4-0.6c0.1-0.2,0.2-0.3,0.4-0.5c0.3-0.4,0.6-0.8,0.9-1.2c0.3-0.4,0.7-0.8,1.1-1.2
					c0.2-0.2,0.4-0.4,0.6-0.6l0,0c0.2-0.2,0.4-0.4,0.7-0.6c0.2-0.1,0.3-0.2,0.5-0.3c0.7-0.5,1.4-1,2.1-1.4c0.1-0.1,0.3-0.2,0.4-0.2
					c1.5-0.8,3.1-1.4,4.7-2c1.1-0.3,2.3-0.6,3.4-0.9c2.3-0.4,4.5-0.6,6.6-0.6c0.4,0,0.8,0,1.2,0l0,0c0.1,0,0.1,0,0.2,0
					c0.1,0,0.2,0,0.4,0c2.1,0.2,3.9,0.6,5.3,1.2c0.1,0,0.2,0.1,0.3,0.1c0.2,0.1,0.4,0.2,0.6,0.3c0,0,0,0,0.1,0
					c0.3,0.2,0.6,0.4,0.8,0.5c0.3,0.3,0.7,0.5,1,0.8c0.1,0.1,0.2,0.2,0.3,0.3c0.1,0,0.1,0.1,0.2,0.1c0.1,0.1,0.1,0.1,0.2,0.2
					c0.3,0.2,0.5,0.5,0.8,0.7c1,0.9,2,1.9,3,2.9c0.4,0.4,0.9,0.9,1.3,1.3l0,0c0.7,0.7,1.3,1.5,2,2.2l0,0c1.3,1.5,2.5,3,3.7,4.6l0,0
					c0.6,0.8,1.1,1.5,1.7,2.3c0.1,0.1,0.2,0.2,0.2,0.3c1.9,2.6,3.7,5.4,5.4,8.3c0.6,1,1.3,2.1,1.9,3.1c0.6,1,1.1,2,1.7,3
					c0.9,1.6,1.8,3.3,2.7,5c0.2,0.5,0.5,1,0.7,1.4c0.2,0.3,0.3,0.6,0.5,0.9C634.9,273.4,636.2,276.3,637.6,279.3z"/>
			</g>
		</g>
		<g>
			<g>
				<g>
					<path class="st14" d="M709.3,271.4c-6.9,0.8-16.1,1.9-27.2,3.1c-0.3,0-0.6,0.1-0.9,0.1c-4.2,0.5-8.6,1-13.3,1.5
						c-1.4,0.2-2.9,0.3-4.4,0.5c-4.9,0.5-10.1,1.1-15.6,1.7c-0.3,0-0.7,0.1-1,0.1c-3.6-2.2-7.5-4.5-11.4-7c-0.9-0.5-1.7-1.1-2.6-1.6
						c-2.2-1.4-4.4-2.8-6.6-4.2c-1-0.7-2.1-1.4-3.1-2c-0.1-0.1-0.2-0.1-0.3-0.2c0,0-0.1,0-0.1-0.1c-0.4-0.2-0.7-0.5-1.1-0.7
						c0,0,0,0,0,0c-0.6-0.4-1.2-0.8-1.8-1.2l0,0c-0.3-0.2-0.7-0.4-1-0.7c-0.1-0.1-0.2-0.1-0.3-0.2c0,0,0,0,0,0
						c-1.7-1.1-3.3-2.2-4.9-3.3c-3.1-2.1-6-4.1-8.4-5.9c-0.4-0.3-0.8-0.6-1.2-0.9c-0.2-0.2-0.5-0.4-0.7-0.6c-0.3-0.3-0.7-0.5-1-0.8
						c-0.4-0.3-0.7-0.6-1-0.8c-0.1-0.1-0.2-0.2-0.4-0.3c-0.2-0.2-0.4-0.4-0.6-0.5c-0.2-0.2-0.4-0.3-0.5-0.5
						c-0.6-0.5-1.2-1.1-1.6-1.6c-0.4-0.4-0.8-0.8-1.1-1.2c-0.4-0.4-0.7-0.9-1-1.3l0,0c-0.1-0.1-0.2-0.3-0.3-0.4
						c-1.3-1.9-2.1-3.6-2.3-5.1c-0.3-2.7,1.1-4.8,4.3-5.9c0.2-0.1,0.4-0.2,0.6-0.2c0,0,0.1,0,0.1,0c0,0,0,0,0,0
						c0.1,0,0.2-0.1,0.4-0.1c1.4-0.4,3-0.6,5-0.7l0,0c0.2,0,0.5,0,0.7,0c0.3,0,0.5,0,0.8,0c0.1,0,0.1,0,0.2,0c0.5,0,0.9,0,1.4,0.1
						c0.1,0,0.3,0,0.4,0c0.2,0,0.5,0,0.7,0c0.6,0,1.3,0.1,1.9,0.1c2.3,0.1,4.7,0.3,7.1,0.6c2.3,0.3,4.6,0.6,7,1c2,0.3,4,0.7,6,1.1
						c0.6,0.1,1.3,0.3,1.9,0.4c0,0,0.1,0,0.2,0c7.6,1.6,15.3,3.8,23,6.4c5,1.7,10,3.6,14.8,5.7c0.8,0.3,1.6,0.7,2.3,1
						c3.1,1.4,6.2,2.8,9.1,4.3c0.3,0.1,0.6,0.3,0.8,0.4c6.8,3.5,13,7.3,18.2,11.2C704.7,265.7,707.5,268.6,709.3,271.4z"/>
				</g>
				<g>
					<path class="st6" d="M647.9,278.2c-0.3,0-0.7,0.1-1,0.1c-0.5,0-1,0.1-1.5,0.2c-3.2-2-6.4-4-9.5-6.2c-0.8-0.6-1.7-1.1-2.5-1.7
						c-2.4-1.7-4.8-3.3-7.2-5c-1-0.7-2-1.4-3-2.1c-0.1-0.1-0.2-0.1-0.2-0.2c0,0-0.1,0-0.1-0.1c-0.3-0.2-0.6-0.4-1-0.7
						c-0.5-0.4-1-0.7-1.6-1.1c0,0,0,0,0,0c-0.4-0.3-0.8-0.6-1.2-0.9c0,0-0.1-0.1-0.1-0.1c-1.7-1.2-3.3-2.3-5-3.5
						c-0.7-0.5-1.4-1-2.1-1.4c0.7,0.4,1.5,0.8,2.2,1.3c1.7,1,3.6,2.1,5.4,3.3c0.3,0.2,0.5,0.3,0.8,0.5c1.5,1,3.1,2,4.7,3
						c0.6,0.4,1.3,0.8,1.9,1.2c1.7,1.1,3.4,2.2,5.2,3.4c0.9,0.6,1.8,1.2,2.8,1.8C639.2,272.7,643.5,275.5,647.9,278.2z"/>
					<path class="st6" d="M623.5,262.8c-2.8-1.4-5.8-2.3-8.9-3C617.3,261.5,620.4,262.4,623.5,262.8L623.5,262.8z"/>
				</g>
			</g>
		</g>
		<g>
			<g>
				<g>
					<g>
						<path class="st15" d="M592.9,253.8c6.3-1.5,11.6-14.8,12-23.6c0-0.6-3.2-5.3-6.8-11.1c-2.2-3.5-4.6-7.6-6.5-11.4
							c-0.4-0.8-21,17.7-21,17.7s6.3,6.8,9.6,13.5c0.3,0.6,0.5,1.1,0.6,1.6c0,0.1,0,0.2,0.1,0.3
							C581.9,244.1,586.9,255.3,592.9,253.8z"/>
					</g>
					<path class="st6" d="M590.2,208.6c2.1,7,5.8,24.5-6.8,31.2c-0.9,0.5-1.7,0.8-2.5,1.1c-0.1-0.1-0.1-0.2-0.1-0.3
						c-0.2-0.5-0.3-1.1-0.6-1.6c-3.3-6.7-9.6-13.5-9.6-13.5S585.5,212.1,590.2,208.6z"/>
				</g>
				<g>
					<g>
						<path class="st15" d="M587.7,180.7c4.9,8.6,6,36.4,0.7,43.8c-7.6,10.8-23,15.1-32.9,5.2c-9.6-9.5-10.3-45.7-4.2-52.8
							C560.3,166.6,580.4,168,587.7,180.7z"/>
					</g>
					<g>
						<path class="st15" d="M587.7,180.7c4.9,8.6,6,36.4,0.7,43.8c-7.6,10.8-23,15.1-32.9,5.2c-9.6-9.5-10.3-45.7-4.2-52.8
							C560.3,166.6,580.4,168,587.7,180.7z"/>
					</g>
					<path class="st16" d="M591.8,201.7c0.4,9.4-0.6,18.9-3.4,22.8c-7.6,10.7-23,15.1-32.9,5.2c-3.3-3.3-5.5-9.7-6.8-17
						c3.3,4.5,8.7,1.2,8.7,1.2l3.3-0.1c7.3,4.9,14.8,3.9,19.1-1c2.9-3.2,4.9-11.2,4.9-11.2L591.8,201.7z"/>
					<g>
						<path class="st8" d="M553.1,211.3c-2.5-0.1-3.2-4.1-1.9-6.2c0,0,0-0.1,0-0.1c0,0.5,0.1,0.9,0.2,1.3c0.1,0.4,0.2,0.8,0.4,1.2
							c0.3,0.8,0.9,1.4,1.5,1.3c0.7-0.1,1.1-0.7,1.3-1.5c0.2-0.8,0.2-1.7,0.3-2.6c0,0,0,0,0,0C556.4,206.8,555.8,211.5,553.1,211.3z
							"/>
						<path class="st8" d="M568.8,210.2c-2.6,0.4-4-3.9-2.8-6.2c0,0,0,0,0,0c0,0,0,0,0-0.1c0.2,0.9,0.4,1.8,0.7,2.5
							c0.3,0.8,0.9,1.3,1.6,1.3c0.7,0,1.1-0.7,1.3-1.5c0.1-0.4,0.2-0.8,0.2-1.2c0-0.4,0-0.9,0-1.3c0,0,0.1,0.1,0.1,0.1
							C571.3,205.6,571.3,209.8,568.8,210.2z"/>
						<path class="st6" d="M550.3,202c0.4-0.5,0.9-0.9,1.4-1.3c0.6-0.5,1-0.9,1.7-1c0.4-0.1,0.9,0.3,1,0.7c0.2,0.9-0.3,1.7-1,2.3
							c-0.7,0.7-1.4,1-2.4,1.1C550.1,203.8,549.7,202.6,550.3,202z"/>
						<path class="st6" d="M569.7,199.1c-0.6-0.1-1.2-0.4-1.9-0.6c-0.7-0.2-1.3-0.3-1.8-0.9c-0.3-0.3-0.2-0.9,0.1-1.2
							c0.7-0.7,1.6-0.6,2.5-0.4c0.9,0.2,1.6,0.7,2.2,1.5C571.4,198.3,570.6,199.3,569.7,199.1z"/>
						<path class="st6" d="M572.7,220.6c-0.3,0.6-0.6,1.3-1.2,1.5c-0.6,0.2-1.5,0.2-2.1,0.1c-0.1,0-0.1,0.1-0.1,0.1
							c0.7,0.6,1.8,0.7,2.6,0.3c0.8-0.4,1-1.2,1-2C572.9,220.5,572.8,220.5,572.7,220.6z"/>
						<g>
							<g>
								<g>
									<path class="st6" d="M568,217.6c-3.4-0.2-5.2,0.5-7.1,1c-0.2,0-0.7-0.1-0.8-0.3l0,0c0-0.1-0.5-4-0.5-4
										c-0.5,0.3-3,1.9-3,1.2c-0.5-6.2-1.1-13.1-0.3-19.4c0-0.2,0.3-0.2,0.3,0c0.7,6,0.4,12,1.1,18c0.8-0.4,2.1-1.2,2.8-1.3
										c0.2,0,0.3,4.2,0.4,4.9c0,0,3.1-1.6,7.2-0.4C569.1,217.5,569.2,217.7,568,217.6z"/>
								</g>
							</g>
						</g>
						<g>
							<path class="st6" d="M565,220.7c-0.9-0.1-3.2-3.1-1.8-3.7c1.4-0.6,5-0.6,6.8,1.3c1.6,1.6-3.1,1.3-3.7,1.8
								C565.9,220.5,565.7,220.8,565,220.7z"/>
							<path class="st17" d="M566.4,220.1c-0.1,0.1-0.2,0.2-0.3,0.2c-0.3-1.1,0.1-2.6,2.1-3.2c0.7,0.3,1.4,0.6,1.9,1.1
								C571.6,219.9,567,219.6,566.4,220.1z"/>
						</g>
						<g>
							<g>
								<path class="st6" d="M565.9,204.6c0-0.1,0.2,0.1,0.2,0.2c0,1.9,0.4,4.1,2.2,4.6c0.1,0,0.1,0.1,0,0.1
									C566.2,209.3,565.7,206.4,565.9,204.6z"/>
							</g>
							<path class="st6" d="M566,206.7c0.1,0.5,0.3,1,0.7,1.4c0.4,0.4,1,0.6,1.6,0.6c0.6,0,1.2-0.4,1.5-0.9c0.3-0.5,0.4-1,0.5-1.5
								c0-0.3,0-0.6,0-0.9c-0.1-0.6-0.2-1.3-0.5-1.8c0.1,0.5,0.1,0.9,0,1.4c0,0.4-0.1,0.8-0.2,1.2c-0.2,0.8-0.6,1.5-1.3,1.5
								c-0.7,0.1-1.2-0.5-1.6-1.3c-0.3-0.8-0.5-1.7-0.7-2.6C565.8,204.8,565.8,205.7,566,206.7z"/>
						</g>
						<g>
							<g>
								<path class="st6" d="M555.1,205.4c0-0.1-0.1,0.1-0.1,0.2c0.3,1.9,0.3,4.1-1.4,5c-0.1,0,0,0.1,0,0.1
									C555.7,210.1,555.7,207.2,555.1,205.4z"/>
							</g>
							<path class="st6" d="M555.4,207.5c0,0.5-0.2,1-0.5,1.5c-0.3,0.5-0.9,0.8-1.5,0.8c-0.6,0.1-1.2-0.2-1.6-0.6
								c-0.4-0.4-0.6-0.9-0.7-1.4c-0.1-0.3-0.1-0.6-0.2-0.9c-0.1-0.6,0-1.3,0.2-1.9c0,0.5,0.1,0.9,0.2,1.4c0.1,0.4,0.2,0.8,0.4,1.2
								c0.3,0.8,0.9,1.4,1.5,1.3c0.7-0.1,1.1-0.7,1.3-1.5c0.2-0.8,0.2-1.7,0.3-2.7C555.3,205.5,555.5,206.5,555.4,207.5z"/>
						</g>
					</g>
					<path class="st6" d="M591.5,206.1c-3.9,1.5-7.6-3-8.9-5.4c-1.3-2.4-0.9-16.6-3.2-20.2c-2.3-3.6-6.7-5.3-10-3.9
						s-7.1,6.1-9.6,6.1c-2.5,0-3.6-5.2-5.3-5.1c-3.8,0.4-6.9,10.4-7.2,14.6c0,0-2.5-19.2,15.8-22.5c17.4-3.1,25.1,6.6,27.1,11.8
						C594.3,191.4,591.5,206.1,591.5,206.1z"/>
					<g>
						<path class="st15" d="M586.5,204.2c0,0,4.3-9.9,8.7-8.5c4.4,1.4,2.4,14.8-1.9,17.5c-4.3,2.7-6.8-1.3-6.8-1.3L586.5,204.2z"/>
						<path class="st6" d="M594.5,199.5c0.1,0,0.1,0.1,0,0.1c-3,2-4.1,5.3-4.6,8.7c0.7-1.4,1.9-2.3,3.7-1.5c0.1,0,0,0.2-0.1,0.2
							c-1.4,0-2.3,0.4-3,1.7c-0.5,0.9-0.7,1.9-1,2.9c-0.1,0.3-0.6,0.3-0.6-0.1c0,0,0-0.1,0-0.1C588.2,207.3,590.2,200.9,594.5,199.5
							z"/>
					</g>
				</g>
			</g>
		</g>
		<g>
			<path class="st5" d="M668.7,184.6c-2.4,3.4-10,14-19.3,26.7c-4,5.4-8.3,11.1-12.6,16.9c0,0,0,0.1-0.1,0.1
				c-1.4,1.8-2.7,3.6-4.1,5.4c-0.1,0.1-0.1,0.2-0.2,0.2c-0.2,0.3-0.5,0.6-0.7,0.9c-0.5,0.7-1,1.3-1.5,1.9c0,0,0,0,0,0
				c0,0,0,0.1-0.1,0.1c0,0,0,0,0,0.1c-0.1,0.1-0.1,0.2-0.2,0.3c-0.1,0.1-0.1,0.2-0.2,0.2c-1.4,1.8-2.8,3.5-4.1,5.3
				c-1.2,1.5-2.4,3-3.5,4.5c-0.5,0.6-1,1.2-1.4,1.8c-0.7,0.8-1.3,1.7-2,2.5c-1.2,1.4-2.3,2.8-3.4,4.1c-0.3,0.4-0.6,0.7-0.9,1
				c-0.1,0.1-0.2,0.2-0.2,0.3c-0.1,0.1-0.1,0.1-0.1,0.2c-0.1,0.1-0.1,0.1-0.2,0.2c-0.2,0.3-0.5,0.6-0.7,0.9c-0.5,0.6-1,1.2-1.5,1.7
				c-0.7,0.8-1.4,1.6-2.1,2.4c-2.5,2.8-4.7,5.1-6.5,6.9c-2.5,2.4-6.3,5.5-10.3,8.7c-2.4,1.9-4.9,3.9-7.1,5.6
				c-0.6,0.4-1.1,0.8-1.6,1.2c-0.3,0-0.7,0.1-1,0.1c-4.7,0.4-9.5,0.9-14.3,1.3l0,0c-1.5,0.2-3.1,0.3-4.6,0.4l-0.3,0
				c-0.6,0.1-1.2,0.1-1.7,0.2c0.3-0.2,0.6-0.5,0.8-0.7c0.3-0.3,0.6-0.6,1-0.8c2.3-2,4.9-4.3,7.7-6.7c0.1-0.1,0.2-0.1,0.3-0.2
				c0.3-0.3,0.6-0.6,0.9-0.8c0.6-0.5,1.1-1,1.7-1.5c2.2-2,4.5-4,6.6-5.9c0.5-0.4,1-0.9,1.4-1.3c3.9-3.4,7.3-6.5,9.5-8.5
				c1.8-1.7,3.9-3.8,6.2-6.3c1.4-1.5,2.8-3.1,4.3-4.8c0.4-0.5,0.8-0.9,1.2-1.4c0.4-0.5,0.9-1.1,1.4-1.6c0.3-0.4,0.6-0.7,0.9-1.1
				c0.9-1,1.7-2.1,2.6-3.1c0.2-0.2,0.4-0.5,0.6-0.7c0.8-1,1.7-2,2.5-3c0.6-0.7,1.2-1.4,1.8-2.1c0.7-0.9,1.4-1.8,2.2-2.7
				c0.6-0.7,1.2-1.5,1.8-2.2c1-1.2,2-2.5,2.9-3.7c0.1-0.1,0.1-0.2,0.2-0.2c0.1-0.1,0.2-0.2,0.3-0.3c0.1-0.2,0.3-0.4,0.4-0.5
				c2.4-3.1,4.8-6.2,7.2-9.2c0,0,0.1-0.1,0.1-0.1c0,0,0,0,0,0c0.2-0.2,0.3-0.4,0.5-0.6c0.4-0.5,0.8-1.1,1.2-1.6
				c0.5-0.7,1-1.3,1.5-1.9c1.5-2,3-4,4.5-5.9c11.1-14.7,20.4-27.6,23.1-31.4c2.6,1.9,5.2,4.2,7.8,7.2
				C667.4,182.9,667.9,183.5,668.7,184.6z"/>
			<path class="st18" d="M668.7,184.6c-2.4,3.4-10,14-19.3,26.7c-4,5.4-8.3,11.1-12.6,16.9c0,0,0,0.1-0.1,0.1
				c-1.4,1.8-2.7,3.6-4.1,5.4c-0.1,0.1-0.1,0.2-0.2,0.2c-0.2,0.3-0.5,0.6-0.7,0.9c-0.5,0.7-1,1.3-1.5,1.9c0,0,0,0,0,0
				c0,0,0,0.1-0.1,0.1c0,0,0,0,0,0.1c-0.1,0.1-0.1,0.2-0.2,0.3c-0.1,0.1-0.1,0.2-0.2,0.2c-1.4,1.8-2.8,3.5-4.1,5.3
				c-1.2,1.5-2.4,3-3.5,4.5c-0.5,0.6-1,1.2-1.4,1.8c-0.7,0.8-1.3,1.7-2,2.5c-1.2,1.4-2.3,2.8-3.4,4.1c-0.3,0.4-0.6,0.7-0.9,1
				c-0.1,0.1-0.2,0.2-0.2,0.3c-0.1,0.1-0.1,0.1-0.1,0.2c-0.1,0.1-0.1,0.1-0.2,0.2c-0.2,0.3-0.5,0.6-0.7,0.9c-0.5,0.6-1,1.2-1.5,1.7
				c-0.7,0.8-1.4,1.6-2.1,2.4c-2.5,2.8-4.7,5.1-6.5,6.9c-2.5,2.4-6.3,5.5-10.3,8.7c-2.4,1.9-4.9,3.9-7.1,5.6
				c-0.6,0.4-1.1,0.8-1.6,1.2c-0.3,0-0.7,0.1-1,0.1c-4.7,0.4-9.5,0.9-14.3,1.3l0,0c-1.5,0.2-3.1,0.3-4.6,0.4l-0.3,0
				c-0.6,0.1-1.2,0.1-1.7,0.2c0.3-0.2,0.6-0.5,0.8-0.7c0.3-0.3,0.6-0.6,1-0.8c2.3-2,4.9-4.3,7.7-6.7c0.1-0.1,0.2-0.1,0.3-0.2
				c0.3-0.3,0.6-0.6,0.9-0.8c0.6-0.5,1.1-1,1.7-1.5c2.2-2,4.5-4,6.6-5.9c0.5-0.4,1-0.9,1.4-1.3c3.9-3.4,7.3-6.5,9.5-8.5
				c1.8-1.7,3.9-3.8,6.2-6.3c1.4-1.5,2.8-3.1,4.3-4.8c0.4-0.5,0.8-0.9,1.2-1.4c0.4-0.5,0.9-1.1,1.4-1.6c0.3-0.4,0.6-0.7,0.9-1.1
				c0.9-1,1.7-2.1,2.6-3.1c0.2-0.2,0.4-0.5,0.6-0.7c0.8-1,1.7-2,2.5-3c0.6-0.7,1.2-1.4,1.8-2.1c0.7-0.9,1.4-1.8,2.2-2.7
				c0.6-0.7,1.2-1.5,1.8-2.2c1-1.2,2-2.5,2.9-3.7c0.1-0.1,0.1-0.2,0.2-0.2c0.1-0.1,0.2-0.2,0.3-0.3c0.1-0.2,0.3-0.4,0.4-0.5
				c2.4-3.1,4.8-6.2,7.2-9.2c0,0,0.1-0.1,0.1-0.1c0,0,0,0,0,0c0.2-0.2,0.3-0.4,0.5-0.6c0.4-0.5,0.8-1.1,1.2-1.6
				c0.5-0.7,1-1.3,1.5-1.9c1.5-2,3-4,4.5-5.9c11.1-14.7,20.4-27.6,23.1-31.4c2.6,1.9,5.2,4.2,7.8,7.2
				C667.4,182.9,667.9,183.5,668.7,184.6z"/>
		</g>
		<g>
			<g class="st19">
				<path class="st4" d="M629.2,264c-1.2-0.1-13.1-1.2-13.1-1.2s-11.9-1.1-13.1-1.3c-1.2-0.1,3.8-39.6,4.2-44
					c0.4-4.4,9.1-15.1,9.3-17.6c0.2-2.5,1.9-20.3,1.9-20.3l11.1,1.1c0,0-1.7,17.8-1.9,20.3c-0.2,2.5,6.3,14.7,5.8,19.1
					C633,224.4,630.5,264.1,629.2,264z"/>
				<path class="st6" d="M629.2,264c-6.4-0.6-17.9-1.7-24.2-2.2l-1.7-0.2l-0.2,0c0,0-0.1,0-0.1,0c-0.3-0.3-0.2-1-0.2-1.4
					c0.1-4.6,0.6-9.2,1.1-13.9l1.5-13.8c0.4-2.5,1.3-15.2,2.3-17.2c2.2-5.4,6.2-9.8,8.6-15c0.1-0.2,0.1-0.6,0.1-0.8
					c0.4-4.4,1.5-15.7,1.9-20.2c0,0,0.3,0,0.3,0l11.1,1.1l0.3,0l0,0.3l-1,10.5l-0.5,5.3c-0.1,1.5-0.5,3.8-0.4,5.2
					c1.4,5.8,5.1,11.6,5.7,17.6c0,0.7-1.7,22.4-1.8,23.8c-0.4,5.3-0.9,10.6-1.5,15.8c-0.2,1.5-0.4,3.1-0.7,4.6
					C629.4,263.6,629.4,263.9,629.2,264L629.2,264z M629.2,264c0.2-0.1,0.2-0.4,0.3-0.6c0.4-1.5,0.5-3,0.7-4.6
					c0.6-5.3,1-10.5,1.4-15.8l1.5-21.1c0.6-3.6-0.7-6.9-2-10.2c0,0-2-4.9-2-4.9c-0.7-2-2-4.2-1.8-6.4c0,0,0.1-1.3,0.1-1.3l0.2-2.6
					c0.3-3.4,1.1-12.3,1.5-15.8l0.2,0.3l-11.1-1l0.3-0.3c-0.4,4.4-1.5,15.6-1.9,19.9c-0.4,2.6-2.4,4.7-3.6,7
					c-2.3,3.9-5.6,7.7-5.9,12.3c-0.8,6.9-2.5,20.7-3.2,27.6c-0.4,5-1.3,10.1-1.1,15.1c0,0.1,0.2,0.1,0.3,0.1l1.7,0.2
					C611.3,262.2,622.9,263.4,629.2,264L629.2,264z"/>
			</g>
			<path class="st20" d="M627.5,261.3c-1.1-0.1-11.2-1.1-11.2-1.1s-10.1-1-11.2-1.1c-1.1-0.1,3.6-37.3,3.9-41.1
				c0.4-3.8,8.8-14.6,9-16.7l8.3-5.9c0,0-0.4,4.5-0.6,6.7c-0.2,2.1,6.1,14.4,5.7,18.1C631.1,224,628.6,261.4,627.5,261.3z"/>
			<g class="st8">
				<path d="M628.9,233.7c-0.4-0.5-1.2-0.5-1.7-0.1c-0.5,0.4-0.5,1.2-0.1,1.7c0.4,0.5,1.2,0.5,1.7,0.1
					C629.3,234.9,629.4,234.1,628.9,233.7z"/>
				<path d="M624.9,206.2c-0.4-0.5-1.2-0.5-1.7-0.1c-0.5,0.4-0.5,1.2-0.1,1.7c0.4,0.5,1.2,0.5,1.7,0.1
					C625.3,207.5,625.3,206.7,624.9,206.2z"/>
				<path d="M629.5,229.6c-0.3-0.3-0.8-0.4-1.2-0.1c-0.3,0.3-0.4,0.8-0.1,1.2c0.3,0.3,0.8,0.4,1.2,0.1
					C629.8,230.4,629.8,229.9,629.5,229.6z"/>
				<path d="M615,255.2c-0.3-0.3-0.8-0.4-1.2-0.1c-0.3,0.3-0.4,0.8-0.1,1.2c0.3,0.3,0.8,0.4,1.2,0.1
					C615.3,256,615.4,255.5,615,255.2z"/>
				<path d="M612.7,220.1c-0.3-0.3-0.8-0.4-1.2-0.1c-0.3,0.3-0.4,0.8-0.1,1.2c0.3,0.3,0.8,0.4,1.2,0.1
					C613,221,613,220.4,612.7,220.1z"/>
				<path d="M625,233.9c-0.2-0.2-0.6-0.3-0.8,0c-0.2,0.2-0.3,0.6,0,0.8c0.2,0.2,0.6,0.3,0.8,0C625.3,234.6,625.3,234.2,625,233.9z"
					/>
				<path d="M612.9,253c-0.2-0.2-0.6-0.3-0.8,0c-0.2,0.2-0.3,0.6,0,0.8c0.2,0.2,0.6,0.3,0.8,0C613.1,253.7,613.1,253.3,612.9,253z"
					/>
			</g>
			<g class="st19">
				
					<rect x="617.6" y="177.3" transform="matrix(0.9955 9.490687e-02 -9.490687e-02 0.9955 19.7772 -58.4272)" class="st4" width="13" height="2.7"/>
				<path class="st6" d="M630.7,178c-3.8-0.2-9.3-0.6-13-0.9l0.3-0.3l-0.2,2.7l-0.3-0.3c4.3,0.4,8.6,0.9,12.9,1.4l-0.1,0.1
					L630.7,178L630.7,178z M630.7,178l-0.2,2.7l0,0.1c-4.4-0.3-8.7-0.6-13.1-1l-0.3,0l0-0.3c0-0.1,0.3-2.9,0.3-3
					C621.4,176.8,626.8,177.5,630.7,178L630.7,178z"/>
			</g>
			<g class="st19">
				
					<rect x="617.9" y="174.2" transform="matrix(0.9955 9.491728e-02 -9.491728e-02 0.9955 19.483 -58.4761)" class="st4" width="13" height="2.7"/>
				<path class="st6" d="M631,174.8c-3.8-0.2-9.3-0.6-13-0.9l0.3-0.3l-0.2,2.7l-0.3-0.3c4.3,0.4,8.6,0.9,12.9,1.4l-0.1,0.1
					L631,174.8L631,174.8z M631,174.8l-0.2,2.7l0,0.1c-4.4-0.3-8.7-0.6-13.1-1l-0.3,0c0-0.1,0.3-2.8,0.3-3l0-0.3l0.3,0
					C621.9,173.7,627.2,174.3,631,174.8L631,174.8z"/>
			</g>
			
				<ellipse transform="matrix(9.491018e-02 -0.9955 0.9955 9.491018e-02 321.6399 828.9492)" class="st4" cx="616.7" cy="237.6" rx="13" ry="8.2"/>
			
				<rect x="616.8" y="194.7" transform="matrix(0.9955 9.490968e-02 -9.490968e-02 0.9955 21.5388 -58.1764)" class="st14" width="11.1" height="5.2"/>
			
				<rect x="604.9" y="233.6" transform="matrix(0.9955 9.491334e-02 -9.491334e-02 0.9955 25.3592 -57.63)" class="st14" width="27.1" height="8.4"/>
		</g>
		<g>
			<g>
				<path class="st15" d="M711.4,271.2c-0.7,0.1-1.4,0.2-2.2,0.3c-6.9,0.8-16.1,1.9-27.2,3.1c-0.3,0-0.6,0.1-0.9,0.1
					c-4.2,0.5-8.6,1-13.3,1.5c-1.4,0.2-2.9,0.3-4.4,0.5c-2-1-4-2-6.1-3.1c0,0,0,0,0,0c-1-0.5-2-1-3.1-1.6c0,0,0,0-0.1,0
					c0,0,0,0-0.1,0c-0.7-0.3-1.3-0.7-2-1c-0.3-0.1-0.5-0.4-0.7-0.7c0,0,0,0,0,0c-2.2-3.8,0.4-19.5,4-30c2.1-6.1,4.5-10.5,6.5-9.6
					c1.9,0.9,5.3,2.4,9.2,4.2c0.6,0.3,1.2,0.6,1.8,0.8l0,0c3,1.4,6.2,2.9,9.3,4.3c0.1,0,0.2,0.1,0.3,0.1c7.9,3.7,15,7.1,15.9,7.7
					C706.3,253,710.3,262.6,711.4,271.2z"/>
				<g>
					<path class="st15" d="M675.8,240.6c0,0-7.2-13.8-13.2-19.9c-8.1-8.2-18.4-11.9-22.8-13.2c-9.2-2.7-33.4-2.9-34.7,4.1
						c-1.1,6.3,23.6,5.2,23.6,5.2s-25.4-3-25.4,4.8c0,7.8,28.7,4.9,28.7,4.9s-26.2-2.5-24.9,5.5c1,6.1,27.1,4.9,27.1,4.9
						s-22.5-2-21.8,4.3c0.8,7,25,7.4,25,7.4c4.6,15.8,13.2,21.4,19.9,24.7C658.8,274.2,675.8,240.6,675.8,240.6z"/>
					<g>
						<path class="st6" d="M637.5,217.4c-3-0.5-6-1-9-1.2c-3-0.2-6-0.3-9-0.2c-7.4,0.2-12,1.5-11.7,1.4c6.9-1.1,17.7-0.6,20.7-0.4
							c3,0.2,6,0.2,9,0.4C637.6,217.5,637.6,217.4,637.5,217.4z"/>
						<path class="st6" d="M637,228.2c-3.8-0.4-7.6-1-11.4-1.3c-3.8-0.3-7.5-0.2-11.3-0.2c-0.3,0-0.2,0.2,0.1,0.2
							c3.8,0.1,7.4,0.6,11.2,0.8C629.3,227.9,633.2,228,637,228.2C637,228.3,637,228.2,637,228.2z"/>
						<path class="st6" d="M638.2,237.6c-5.8-1-11.8-0.8-17.6-0.6c-0.3,0-0.1,0.2,0.2,0.2c5.9,0.1,10.5,0.1,17.5,0.6
							C638.3,237.8,638.3,237.6,638.2,237.6z"/>
					</g>
				</g>
			</g>
			<g>
				<path class="st14" d="M712.4,271c-0.3,0-0.6,0.1-1,0.1c-0.7,0.1-1.4,0.2-2.2,0.3c-6.9,0.8-16.1,1.9-27.2,3.1
					c-0.3,0-0.6,0.1-0.9,0.1c-4.2,0.5-8.6,1-13.3,1.5l1.9-23.7l0.5-6.5l0.9-11.1l0.2-2l0.4-5.2l26.7,18.9
					C706.9,252.9,711.3,262.5,712.4,271z"/>
				<g>
					<path class="st6" d="M682.6,238.8c0,0.4,0,0.8,0,1.2c0.1,3,0,6,0,9c0,0.8,0,1.7,0,2.5c-0.1,5.2-0.2,10.4-0.3,15.6
						c-0.1,2.4-0.1,4.9-0.2,7.3c-0.3,0-0.6,0.1-0.9,0.1c0.1-5.9,0.2-11.9,0.4-17.8c0.1-1.9,0.1-3.8,0.2-5.7
						c0.1-3.7,0.3-7.5,0.6-11.2c0-0.4,0.1-0.8,0.1-1.2C682.5,238.7,682.6,238.7,682.6,238.8z"/>
				</g>
			</g>
		</g>
		<g>
			<g>
				<path class="st6" d="M637.8,279.2c-0.4-2.4-1.1-4.7-1.9-6.9c0-0.1-0.1-0.2-0.1-0.3c-0.1-0.2-0.2-0.5-0.3-0.7l-0.3-0.6
					c-0.1-0.2-0.2-0.4-0.3-0.6c-0.3-0.7-0.7-1.4-1-2.1c-1-1.9-2.1-3.7-3.3-5.4c-0.2-0.3-0.4-0.6-0.6-0.9c0,0-0.1-0.1-0.1-0.2
					c-0.6-0.8-1.2-1.5-1.8-2.2c-0.6-0.7-1.3-1.4-2-2.1c-2.2-2.2-4.7-4.1-7.4-5.8c-0.5-0.3-1.1-0.7-1.7-1c-0.1-0.1-0.2-0.1-0.3-0.2
					c-0.6-0.3-1.2-0.7-1.8-1c-0.9-0.4-1.7-0.8-2.6-1.1c-0.4-0.2-0.8-0.3-1.2-0.5l0,0c-1.7-0.6-3.3-1.1-5.1-1.5
					c-0.3-0.1-0.5-0.1-0.8-0.2c-0.4-0.1-0.8-0.2-1.2-0.2c-1-0.2-2.1-0.3-3.1-0.4c-0.1,0-0.3,0-0.4-0.1c0,0-0.1,0-0.1,0
					c-0.4,0-0.8-0.1-1.3-0.1c-0.2,0-0.4,0-0.6,0c-1.6-0.1-3.2,0-4.8,0.1c-3.4,0.3-6.6,0.9-9.7,1.9c0,0-0.1,0-0.1,0
					c-0.1,0-0.3,0.1-0.5,0.1c0,0,0,0-0.1,0c-0.2,0.1-0.4,0.1-0.5,0.2c0,0,0,0,0,0c-3.7,1.3-7.1,3.1-10.2,5.4c-1.4,1-2.8,2.1-4,3.3
					c-0.3,0.3-0.7,0.6-1,1c-0.6,0.5-1.1,1.1-1.6,1.7c0,0,0,0,0,0c-0.9,1.1-1.8,2.2-2.7,3.3c-0.4,0.6-0.8,1.2-1.2,1.8
					c-1.3,2-2.4,4.1-3.4,6.3c-0.2,0.4-0.4,0.9-0.5,1.3c-1.1,2.8-1.9,5.7-2.3,8.7c-0.1,0.4-0.1,0.8-0.2,1.2c0,0.1,0,0.2,0,0.2
					c-0.1,0.6-0.1,1.2-0.2,1.8c-0.1,1.2-0.1,2.4-0.1,3.6c1.8-0.2,3.6-0.3,5.5-0.5l0.7-0.1c0.2,0,0.5,0,0.7-0.1
					c0.6-0.1,1.2-0.1,1.7-0.2c0,0,0-0.1,0-0.1c0-0.4,0-0.8,0-1.3c0-0.1,0-0.1,0-0.2c0-0.5,0.1-0.9,0.1-1.4c0.3-2.5,0.8-4.9,1.6-7.3
					c0.2-0.5,0.4-1,0.5-1.5c0.2-0.4,0.3-0.8,0.5-1.2c0.3-0.7,0.7-1.5,1.1-2.2c0,0,0,0,0,0c1.4-2.5,3-4.9,5-7c0,0,0,0,0,0
					c1.8-1.9,3.9-3.7,6.1-5.1c0.4-0.3,0.9-0.5,1.3-0.8c4.2-2.5,9-4.1,14.2-4.5c1.3-0.1,2.6-0.1,3.9-0.1c1.7,0.1,3.3,0.3,4.9,0.6
					c0.5,0.1,0.9,0.2,1.4,0.3c0.2,0,0.4,0.1,0.6,0.2c2.8,0.7,5.5,1.8,7.9,3.2c1.2,0.6,2.3,1.4,3.4,2.2l0,0c0,0,0,0,0,0
					c0.1,0.1,0.2,0.1,0.2,0.2c0.4,0.3,0.9,0.7,1.3,1l0,0c0.6,0.5,1.2,1.1,1.8,1.6c1.5,1.4,2.8,3,4,4.7c0,0,0,0,0,0
					c0,0,0.1,0.1,0.1,0.1c0.3,0.4,0.5,0.7,0.8,1.1c1.6,2.5,2.9,5.3,3.8,8.2l0.3,1.2l0,0c0.1,0.5,0.3,1.1,0.4,1.7
					c2.8-0.3,5.6-0.6,8.3-0.9c0.1,0.3,0.3,0.6,0.4,0.9C638,279.9,637.9,279.5,637.8,279.2z"/>
				<path class="st6" d="M627.3,264.6l-0.3,0.3l-0.7,0.6l-0.1,0.1l-2.4,2.2l-15.6,14.4c-6.9,0.7-14,1.4-21.2,2l-1.4-1l-6.8-4.6
					l-4.4-3l-1.4-0.9l-5.3-3.6l-2.7-1.8l4.5-6.6l0.3-0.5l2.9,2c0,0,0,0,0,0l3.4,2.3l5,3.4l5.5,3.7l6.1,4.1l4.5,3.1l19.4-18l0,0
					l1.4-1.3l0,0l0.6-0.6l0.3-0.3l0.1-0.1l0.1-0.1l0,0l0.4-0.4l1.9-1.8l2.5,2.6l2.6,2.8L627.3,264.6z"/>
			</g>
		</g>
		<g>
			<g>
				<path class="st15" d="M586.6,273.6c0,0.4-0.1,0.8-0.2,1.3c-1.1,3.1-5.2,3.7-7.4,3.9c-0.2,0-0.4,0-0.6,0c-0.6,0-0.9,0-0.9,0
					s0.2,0.1,0.5,0.2l0,0c1.4,0.7,5.1,2.7,5.2,5.7c-4.7,0.4-9.5,0.9-14.3,1.3l0,0c-1.5,0.2-3.1,0.3-4.6,0.4l-0.3,0
					c-0.6,0.1-1.2,0.1-1.7,0.2c-0.2,0-0.5,0-0.7,0.1l-0.7,0.1c-1.8,0.2-3.6,0.3-5.5,0.5c-3.5,0.3-7,0.6-10.6,0.9
					c-0.5,0.1-1.1,0.1-1.6,0.1c-1.2,0.1-2.3,0.2-3.5,0.3l0,0c-2.3,0.2-4.5,0.4-6.8,0.6c0,0,0,0,0-0.1l0,0c-0.3-0.9-0.4-1.7-0.2-2.4
					c0.6-2.4,3-3.7,4.4-4.3l0,0c0.5-0.2,0.9-0.3,0.9-0.3s-0.1-0.2-0.3-0.6l0,0c-0.5-1.1-1.4-3.5-0.1-5.6c1.6-2.6,4.6-2.9,5.8-2.8
					c0.1,0,0.2,0,0.3,0c0,0,0,0,0,0c0,0,0.1,0,0.1,0c0.1,0,0.1,0,0.1,0s-0.1-0.2-0.2-0.6c-0.5-1.1-1.3-3.7-0.3-5.1
					c1.6-2.3,4.2-2.7,6-2.8c1.1,0,1.9,0.1,1.9,0.1s-0.4-0.8-0.6-1.9c-0.1-1.3,0.1-3,1.7-4.7c0.7-0.7,1.8-1.2,3.3-1.6
					c2.8-0.8,6.8-1.2,10.2-1.8c0.4-0.1,0.8-0.2,1.2-0.3c0.9-0.2,1.7-0.4,2.5-0.7c2-0.6,3.4-1.2,3.6-1.3l-0.4,0.5l-4.7,5.3l-1.8,2
					c0.2,0.3,0.5,0.6,0.9,0.9c0.7,0.6,1.6,1.1,2.5,1.6c1,0.5,2.1,1,3.2,1.5c0,0,0,0,0,0c1.2,0.5,2.4,1,3.7,1.5
					c2.2,0.9,4.4,1.8,6.1,2.9C585,270,586.6,271.6,586.6,273.6z"/>
				<g>
					<path class="st6" d="M544.6,288.1c-0.5,0.1-1.1,0.1-1.6,0.1c-0.6-0.6-1.3-1.2-1.9-1.8c-1.2-1.2-2.3-2.5-3.3-3.8
						c-0.1-0.1,0-0.2,0.1-0.1c1.2,1.1,2.5,2.2,3.7,3.2C542.6,286.6,543.6,287.4,544.6,288.1z"/>
					<path class="st6" d="M564.1,286.4l-0.3,0c-0.6,0.1-1.2,0.1-1.7,0.2c-0.2,0-0.5,0-0.7,0.1c-0.2-0.1-0.4-0.2-0.6-0.3
						c-1.9-0.8-3.7-1.7-5.4-2.8c-2.7-1.6-5.2-3.5-7.4-5.5c-1.7-1.5-3.2-3.2-4.6-4.8c0,0,0-0.1,0-0.1c0,0,0,0,0,0c0,0,0.1,0,0.1,0
						l0,0c1.4,1.3,3.2,2.7,5.1,4.1c2.1,1.6,4.5,3.1,6.9,4.6c1.8,1.1,3.7,2.2,5.5,3.1c0.6,0.3,1.2,0.6,1.9,0.9
						c0.3,0.1,0.6,0.3,0.9,0.4C563.9,286.3,564,286.4,564.1,286.4z"/>
					<path class="st6" d="M578.2,278.6c-10.2-2-18.8-7-26.9-13.5c-0.1-0.1-0.2,0.1-0.1,0.2c3.1,4.2,8.6,7.8,13.2,10.2
						c4.4,2.3,8.8,3.5,13.7,3.5C578.3,279,578.4,278.7,578.2,278.6z"/>
				</g>
			</g>
		</g>
	</g>
	<path class="st6" d="M638,280.2c-0.1-0.3-0.3-0.6-0.4-0.9c0.1,0,0.2,0,0.3,0C637.9,279.5,638,279.9,638,280.2z"/>
</g>
<g>
	<g>
		<path class="st6" d="M600.8,188.6c-1.2-3.4,0.9-5.8,4.5-5.2c-0.3,0.1-0.7,0.2-1,0.2C601.4,183.9,600.8,186.1,600.8,188.6
			L600.8,188.6z"/>
		<path class="st6" d="M594.3,184.2c3.4-1.2,5.8,0.9,5.2,4.4c-0.1-0.3-0.2-0.7-0.2-1C599,184.9,596.8,184.2,594.3,184.2L594.3,184.2
			z"/>
		<path class="st6" d="M598.7,177.5c1.2,3.4-0.9,5.8-4.5,5.2c0.3-0.1,0.7-0.2,1-0.2C598,182.2,598.7,180,598.7,177.5L598.7,177.5z"
			/>
		<path class="st6" d="M605.1,181.9c-3.4,1.2-5.8-0.9-5.2-4.5c0.1,0.3,0.2,0.7,0.2,1C600.5,181.3,602.6,181.9,605.1,181.9
			L605.1,181.9z"/>
	</g>
	<g>
		<path class="st6" d="M548.2,236.1c-1.2-3.4,0.9-5.8,4.4-5.2c-0.3,0.1-0.7,0.2-1,0.2C548.8,231.5,548.1,233.6,548.2,236.1
			L548.2,236.1z"/>
		<path class="st6" d="M541.7,231.8c3.4-1.2,5.8,0.9,5.2,4.4c-0.1-0.3-0.2-0.7-0.2-1C546.3,232.4,544.2,231.7,541.7,231.8
			L541.7,231.8z"/>
		<path class="st6" d="M546,225.1c1.2,3.4-0.9,5.8-4.5,5.2c0.3-0.1,0.7-0.2,1-0.2C545.4,229.7,546.1,227.6,546,225.1L546,225.1z"/>
		<path class="st6" d="M552.5,229.5c-3.4,1.2-5.8-0.9-5.2-4.4c0.1,0.3,0.2,0.7,0.2,1C547.9,228.8,550,229.5,552.5,229.5L552.5,229.5
			z"/>
	</g>
	<g>
		<path class="st6" d="M604.2,199.5c-0.9-1.9,0.5-3.6,2.5-2.9c-0.7,0.3-1.4,0.3-1.9,0.9C604.4,198,604.4,198.7,604.2,199.5
			L604.2,199.5z"/>
		<path class="st6" d="M600.6,197c1.9-0.9,3.6,0.5,2.9,2.5c-0.3-0.7-0.3-1.4-0.9-1.9C602,197.1,601.3,197.2,600.6,197L600.6,197z"/>
		<path class="st6" d="M603,193.2c0.9,1.9-0.5,3.6-2.5,2.9c0.7-0.3,1.4-0.3,1.9-0.9C602.9,194.7,602.9,194,603,193.2L603,193.2z"/>
		<path class="st6" d="M606.7,195.7c-1.9,0.9-3.6-0.5-2.9-2.5c0.3,0.7,0.3,1.4,0.9,1.9C605.2,195.6,606,195.5,606.7,195.7
			L606.7,195.7z"/>
	</g>
	<g>
		<path class="st6" d="M529.2,229.2c-0.9-1.9,0.5-3.6,2.5-2.9c-0.7,0.3-1.4,0.3-1.9,0.9C529.3,227.7,529.4,228.4,529.2,229.2
			L529.2,229.2z"/>
		<path class="st6" d="M525.6,226.7c1.9-0.9,3.6,0.5,2.9,2.5c-0.3-0.7-0.3-1.4-0.9-1.9C527,226.8,526.3,226.9,525.6,226.7
			L525.6,226.7z"/>
		<path class="st6" d="M528,222.9c0.9,1.9-0.5,3.6-2.5,2.9c0.7-0.3,1.4-0.3,1.9-0.9C527.9,224.4,527.8,223.7,528,222.9L528,222.9z"
			/>
		<path class="st6" d="M531.7,225.4c-1.9,0.9-3.6-0.5-2.9-2.5c0.3,0.7,0.3,1.4,0.9,1.9C530.2,225.3,530.9,225.2,531.7,225.4
			L531.7,225.4z"/>
	</g>
	<g>
		<path class="st6" d="M612.7,175.7c-0.9-1.9,0.5-3.6,2.5-2.9c-0.7,0.3-1.4,0.3-1.9,0.9C612.8,174.2,612.9,174.9,612.7,175.7
			L612.7,175.7z"/>
		<path class="st6" d="M609.1,173.2c1.9-0.9,3.6,0.5,2.9,2.5c-0.3-0.7-0.3-1.4-0.9-1.9C610.5,173.3,609.8,173.4,609.1,173.2
			L609.1,173.2z"/>
		<path class="st6" d="M611.5,169.4c0.9,1.9-0.5,3.6-2.5,2.9c0.7-0.3,1.4-0.3,1.9-0.9C611.4,170.9,611.4,170.2,611.5,169.4
			L611.5,169.4z"/>
		<path class="st6" d="M615.2,171.9c-1.9,0.9-3.6-0.5-2.9-2.5c0.3,0.7,0.3,1.4,0.9,1.9C613.7,171.8,614.5,171.7,615.2,171.9
			L615.2,171.9z"/>
	</g>
	<g>
		<path class="st6" d="M540.6,182.2c-0.9-1.9,0.5-3.6,2.5-2.9c-0.7,0.3-1.4,0.3-1.9,0.9C540.7,180.8,540.8,181.5,540.6,182.2
			L540.6,182.2z"/>
		<path class="st6" d="M536.9,179.8c1.9-0.9,3.6,0.5,2.9,2.5c-0.3-0.7-0.3-1.4-0.9-1.9C538.4,179.9,537.7,179.9,536.9,179.8
			L536.9,179.8z"/>
		<path class="st6" d="M539.4,176c0.9,1.9-0.5,3.6-2.5,2.9c0.7-0.3,1.4-0.3,1.9-0.9C539.3,177.4,539.2,176.7,539.4,176L539.4,176z"
			/>
		<path class="st6" d="M543,178.4c-1.9,0.9-3.6-0.5-2.9-2.5c0.3,0.7,0.3,1.4,0.9,1.9C541.6,178.3,542.3,178.3,543,178.4L543,178.4z"
			/>
	</g>
</g>
<g>
	<g>
		<g class="st19">
			<path class="st4" d="M426.5,300.9c0.1-1.1,1.1-11.8,1.1-11.8s1-10.7,1.1-11.8c0.1-1.1,35.7,3.4,39.7,3.8c4,0.4,13.6,8.2,15.9,8.4
				c2.3,0.2,18.3,1.7,18.3,1.7l-1,10c0,0-16.1-1.5-18.3-1.7c-2.3-0.2-13.2,5.6-17.2,5.3C462.3,304.3,426.4,302,426.5,300.9z"/>
			<path class="st6" d="M426.5,300.9c0.5-5.8,1.5-16.2,2-21.8l0.1-1.6l0-0.2c0,0,0,0,0-0.1c0.3-0.3,0.9-0.2,1.3-0.2
				c11.6,0.5,25.8,2.5,37.4,3.7c6.3,0.7,11,6.1,16.7,8.4c6.1,0.7,12.5,1.1,18.7,1.8c0,0,0.3,0,0.3,0l0,0.3l-1,10l0,0.3l-0.3,0
				c-3.2-0.3-11.2-1.1-14.3-1.4c-1.4-0.1-3.4-0.5-4.7-0.3c-4.4,1.1-9.1,3.6-13.5,4.7c-1.5,0.5-3.2,0.4-4.8,0.2
				c0,0-19.1-1.5-19.1-1.5c-5.6-0.5-11.1-0.9-16.6-1.7C428.1,301.3,427.2,301.4,426.5,300.9L426.5,300.9z M426.5,300.9
				c0.6,0.5,1.5,0.4,2.3,0.6c5.5,0.7,11.1,1.1,16.7,1.6l19.1,1.4c1.6,0.2,3.1,0.2,4.7-0.3c4.5-1.2,9-3.7,13.5-4.8
				c1.5-0.2,3.3,0.2,4.8,0.3c3.1,0.3,11.1,1,14.3,1.3l-0.3,0.2l0.9-10l0.3,0.3c-4.2-0.4-8.3-0.8-12.5-1.2c-1.5-0.1-4-0.4-5.5-0.5
				c-2.4-0.4-4.3-2.1-6.3-3.3c-3.5-2.1-6.9-5-11.1-5.4c-11.6-1.3-25.8-3.4-37.4-4c-0.4,0-0.8,0-1.1,0.1c-0.1,0,0,0.2-0.1,0.3
				l-0.2,1.6l-0.3,3.1C428,286.1,426.9,296.8,426.5,300.9L426.5,300.9z"/>
		</g>
		<path class="st21" d="M429,299.4c0.5-5.3,1.4-15,1.9-20.2c0.2-0.2,0.3-0.1,0.4-0.2c1-0.1,2,0,3,0.1c7.9,0.5,15.7,1.5,23.5,2.3
			c2,0.2,6.9,0.8,8.8,1c3.1,0,5.7,1.8,8.2,3.3l5,3.1c1.3,0.7,2.4,1.7,3.8,1.8c4.6,0.4,14.4,1.4,19.1,1.8c0,0,0.3,0,0.3,0l0,0.3
			l-0.7,6.9l0,0.3l-0.3,0c-1.2,0-20.2-2.3-20.7-1.7c-3.4,1.1-7.4,2.9-10.9,4c-1.5,0.4-3,1-4.6,0.8l-18.5-1.5c-3-0.3-10.9-1-13.8-1.3
			l-2.3-0.3C430.7,299.8,429.4,299.7,429,299.4L429,299.4z M429,299.4c0.5,0.4,1.6,0.4,2.2,0.5c0,0,2.3,0.3,2.3,0.3
			c2.9,0.3,10.9,1,13.8,1.2l18.5,1.3c1.5,0.1,3-0.4,4.5-0.9c3.4-1.1,7.4-3,10.8-4.1c0.8-0.7,19.4,1.6,20.8,1.6c0,0-0.3,0.2-0.3,0.2
			l0.6-6.9l0.3,0.3l-11.8-1.1c-1.2-0.1-6.3-0.6-7.3-0.7c-1.5-0.1-2.8-1.2-4.1-1.9c0,0-5-3.2-5-3.2c-2.5-1.5-5-3.3-8-3.3
			c-10.7-1.2-21.5-2.7-32.3-3.5c-1.1,0-2.2-0.2-3.2,0c0,0.2-0.1,0.9-0.1,1.1C430.4,284.9,429.4,294.7,429,299.4L429,299.4z"/>
		<g class="st19">
			
				<rect x="497.6" y="295.1" transform="matrix(-9.491045e-02 0.9955 -0.9955 -9.491045e-02 846.233 -176.7988)" class="st4" width="11.7" height="2.5"/>
			<path class="st6" d="M504.2,302.3c0.2-3.4,0.5-8.4,0.8-11.7l0.3,0.3l-2.4-0.2l0.3-0.3c-0.5,3.7-0.6,8.4-1.4,11.5
				C501.7,301.9,504.2,302.3,504.2,302.3L504.2,302.3z M504.2,302.3l-2.5-0.1l-0.1,0c0.2-3.9,0.6-7.9,0.9-11.8l0-0.3l0.3,0
				c0.2,0,2.6,0.3,2.7,0.3C505.2,294.3,504.7,298.3,504.2,302.3L504.2,302.3z"/>
		</g>
		<g class="st19">
			
				<rect x="500.5" y="295.3" transform="matrix(-9.492099e-02 0.9955 -0.9955 -9.492099e-02 849.6091 -179.3198)" class="st4" width="11.7" height="2.5"/>
			<path class="st6" d="M507,302.5c0.2-3.4,0.5-8.4,0.8-11.7l0.3,0.3l-2.4-0.2l0.3-0.3c-0.5,3.7-0.6,8.4-1.4,11.5
				C504.6,302.2,507,302.5,507,302.5L507,302.5z M507,302.5l-2.5-0.1l-0.1,0c0.2-3.9,0.6-7.9,0.9-11.8l0-0.3c0,0,2.6,0.3,2.8,0.3
				l0.3,0l0,0.3C508,294.8,507.5,298.7,507,302.5L507,302.5z"/>
		</g>
		<path class="st4" d="M462,290.7c-0.4,4.1-5.9,6.8-12.3,6.2c-6.4-0.6-11.3-4.4-10.9-8.4c0.4-4.1,5.9-6.8,12.3-6.2
			C457.5,282.9,462.4,286.6,462,290.7z"/>
		
			<rect x="481.7" y="292.3" transform="matrix(-9.492039e-02 0.9955 -0.9955 -9.492039e-02 826.2344 -161.809)" class="st14" width="10" height="4.7"/>
		
			<rect x="438" y="287.4" transform="matrix(-9.491501e-02 0.9955 -0.9955 -9.491501e-02 782.8376 -129.3172)" class="st14" width="24.5" height="7.6"/>
	</g>
	<g>
		<g class="st19">
			<path class="st4" d="M437.4,279.7c0.2,1.1,2.2,11.7,2.2,11.7s2,10.6,2.2,11.7c0.2,1.1-35.3,6.6-39.2,7.4
				c-3.9,0.7-15.4-4.1-17.6-3.7c-2.2,0.4-18.1,3.4-18.1,3.4l-1.9-9.9c0,0,15.9-3,18.1-3.4c2.2-0.4,11.2-9.1,15.1-9.8
				C402.1,286.3,437.2,278.6,437.4,279.7z"/>
			<path class="st6" d="M437.4,279.7c1.1,5.7,3.1,15.9,4.1,21.5l0.3,1.5l0,0.2c0,0,0,0,0,0.1c-0.2,0.4-0.8,0.4-1.2,0.6
				c-11.2,2.7-25.5,4.8-37,6.8c-6.3,1.1-12.2-2.8-18.3-3.4c-6.1,1-12.3,2.4-18.4,3.4c0,0-0.3,0.1-0.3,0.1l-0.1-0.3l-1.8-9.9l0-0.3
				l0.3,0c3.2-0.6,11-2,14.1-2.6c1.3-0.3,3.4-0.5,4.6-1c3.9-2.3,7.7-6,11.7-8.3c1.4-0.9,3-1.3,4.5-1.6c0,0,18.7-3.9,18.7-3.9
				c5.5-1.1,10.9-2.2,16.5-3C435.8,279.7,436.7,279.4,437.4,279.7L437.4,279.7z M437.4,279.7c-0.7-0.3-1.6,0-2.3,0.1
				c-5.5,0.8-11,2-16.4,3.1l-18.7,4c-1.6,0.3-3.1,0.7-4.4,1.6c-4,2.4-7.7,6-11.6,8.4c-1.4,0.6-3.3,0.7-4.7,1
				c-3.1,0.6-10.9,2.1-14.1,2.7l0.2-0.3l1.9,9.8l-0.3-0.2c4.1-0.8,8.2-1.6,12.3-2.3c1.5-0.3,4-0.7,5.4-1c2.4-0.3,4.7,0.9,7,1.4
				c3.9,1,8,2.9,12.1,2.1c11.5-2,25.7-3.9,37-6.5c0.4-0.1,0.8-0.2,1.1-0.4c0.1,0,0-0.2,0-0.3l-0.3-1.5l-0.6-3.1
				C440.1,294.3,438.2,283.7,437.4,279.7L437.4,279.7z"/>
		</g>
		<path class="st21" d="M435.5,281.8c1,5.2,2.9,14.8,3.8,19.9c-0.1,0.2-0.2,0.2-0.4,0.3c-0.9,0.3-1.9,0.5-2.9,0.8
			c-7.7,1.7-15.5,2.9-23.2,4.3c-1.9,0.3-6.9,1.2-8.7,1.5c-2.9,0.8-6-0.2-8.8-0.9l-5.7-1.6c-1.4-0.3-2.8-0.9-4.2-0.7
			c-4.6,0.9-14.2,2.6-18.9,3.5c0,0-0.3,0.1-0.3,0.1l-0.1-0.3l-1.3-6.8l0-0.3l0.3,0c1.2-0.4,20-3.4,20.3-4.1c3-2,6.3-4.9,9.3-6.9
			c1.3-0.8,2.6-1.8,4.2-2.1l18.2-3.7c2.9-0.6,10.8-2.1,13.7-2.6c0,0,2.3-0.3,2.3-0.3C433.7,281.9,435,281.6,435.5,281.8L435.5,281.8
			z M435.5,281.8c-0.6-0.2-1.7,0.1-2.3,0.1c0,0-2.3,0.4-2.3,0.4c-2.8,0.5-10.7,2.1-13.6,2.7l-18.1,3.8c-1.5,0.3-2.8,1.2-4,2.1
			c-3,2-6.3,4.9-9.3,6.9c-0.6,0.9-19.1,3.8-20.4,4.2c0,0,0.2-0.3,0.2-0.3l1.3,6.8l-0.3-0.2l11.6-2.2c1.2-0.2,6.2-1.2,7.2-1.4
			c1.5-0.3,3,0.4,4.5,0.7c0,0,5.7,1.7,5.7,1.7c2.8,0.7,5.7,1.7,8.6,1c10.6-1.8,21.4-3.4,32-5.5c1-0.2,2.2-0.4,3.1-0.9
			c0-0.2-0.2-0.9-0.2-1.1C438.1,296.2,436.3,286.5,435.5,281.8L435.5,281.8z"/>
		<g class="st19">
			
				<rect x="358.9" y="304.2" transform="matrix(-0.185 -0.9827 0.9827 -0.185 132.023 720.4174)" class="st4" width="11.7" height="2.5"/>
			<path class="st6" d="M362.5,299.9c0.7,3.4,1.8,8.2,2.5,11.5l-0.3-0.2l2.4-0.5l-0.2,0.4c-0.7-3.8-1.4-7.7-2-11.6l0.1,0.1
				L362.5,299.9L362.5,299.9z M362.5,299.9l2.4-0.6l0.1,0c0.9,3.9,1.6,7.7,2.4,11.6l0.1,0.3l-0.3,0.1c-0.2,0-2.6,0.5-2.7,0.5
				C363.7,307.9,363,303.8,362.5,299.9L362.5,299.9z"/>
		</g>
		<g class="st19">
			
				<rect x="356.1" y="304.8" transform="matrix(-0.185 -0.9827 0.9827 -0.185 128.1907 718.2921)" class="st4" width="11.7" height="2.5"/>
			<path class="st6" d="M359.7,300.5c0.7,3.4,1.8,8.2,2.5,11.5l-0.3-0.2l2.4-0.5l-0.2,0.4c-0.7-3.8-1.4-7.7-2-11.6l0.1,0.1
				L359.7,300.5L359.7,300.5z M359.7,300.5l2.4-0.6l0.1,0c0.9,3.9,1.6,7.7,2.4,11.6l0.1,0.3c0,0-2.6,0.5-2.7,0.5l-0.3,0.1l-0.1-0.3
				C360.8,308.2,360.2,304.3,359.7,300.5L359.7,300.5z"/>
		</g>
		<path class="st4" d="M406.2,299.3c-0.8-4,3.8-8.2,10.1-9.4c6.3-1.2,12.1,1.1,12.8,5.1c0.8,4-3.8,8.2-10.1,9.4
			C412.7,305.6,406.9,303.3,406.2,299.3z"/>
		
			<rect x="376.3" y="300" transform="matrix(-0.185 -0.9827 0.9827 -0.185 154.7638 733.0228)" class="st14" width="10" height="4.7"/>
		
			<rect x="405.1" y="291.8" transform="matrix(-0.185 -0.9827 0.9827 -0.185 204.0797 760.376)" class="st14" width="24.5" height="7.6"/>
	</g>
</g>
</svg>
